<mxfile host="app.diagrams.net" agent="Mozilla/5.0 (Windows NT 10.0; Win64; x64) AppleWebKit/537.36 (KHTML, like Gecko) Chrome/138.0.0.0 Safari/537.36 Edg/138.0.0.0" version="28.0.7">
  <diagram name="LIBRERIA PIL" id="SzP_j0X4nl6GC2X0ljRK">
    <mxGraphModel dx="1366" dy="717" grid="1" gridSize="10" guides="1" tooltips="1" connect="1" arrows="1" fold="1" page="1" pageScale="1" pageWidth="827" pageHeight="1169" math="0" shadow="0">
      <root>
        <mxCell id="0" />
        <mxCell id="1" parent="0" />
        <mxCell id="_ihUUyF4QGS6WQR9YeVK-2" style="edgeStyle=orthogonalEdgeStyle;rounded=0;orthogonalLoop=1;jettySize=auto;html=1;" parent="1" source="_ihUUyF4QGS6WQR9YeVK-1" edge="1">
          <mxGeometry relative="1" as="geometry">
            <mxPoint x="414" y="200" as="targetPoint" />
          </mxGeometry>
        </mxCell>
        <mxCell id="_ihUUyF4QGS6WQR9YeVK-1" value="&lt;h2&gt;&lt;font&gt;PROPIEDADES DE LAS IMAGENES&lt;/font&gt;&lt;/h2&gt;" style="text;html=1;align=center;verticalAlign=middle;whiteSpace=wrap;rounded=0;fillColor=#60a917;fontColor=#ffffff;strokeColor=#2D7600;fontFamily=Comic Sans MS;" parent="1" vertex="1">
          <mxGeometry x="99" y="20" width="630" height="100" as="geometry" />
        </mxCell>
        <mxCell id="_ihUUyF4QGS6WQR9YeVK-4" value="ALTO Y ANCHO" style="text;html=1;align=center;verticalAlign=middle;whiteSpace=wrap;rounded=0;fillColor=#1ba1e2;fontColor=#ffffff;strokeColor=#006EAF;fontFamily=Comic Sans MS;" parent="1" vertex="1">
          <mxGeometry x="50" y="290" width="286" height="30" as="geometry" />
        </mxCell>
        <mxCell id="_ihUUyF4QGS6WQR9YeVK-8" value="En resumen su volumnen, se les llama comumente dimensiones" style="rounded=0;whiteSpace=wrap;html=1;fontFamily=Comic Sans MS;" parent="1" vertex="1">
          <mxGeometry x="50" y="380" width="237" height="60" as="geometry" />
        </mxCell>
        <mxCell id="_ihUUyF4QGS6WQR9YeVK-12" style="edgeStyle=orthogonalEdgeStyle;rounded=0;orthogonalLoop=1;jettySize=auto;html=1;entryX=0.583;entryY=0;entryDx=0;entryDy=0;entryPerimeter=0;" parent="1" source="_ihUUyF4QGS6WQR9YeVK-4" target="_ihUUyF4QGS6WQR9YeVK-8" edge="1">
          <mxGeometry relative="1" as="geometry" />
        </mxCell>
        <mxCell id="_ihUUyF4QGS6WQR9YeVK-15" style="edgeStyle=orthogonalEdgeStyle;rounded=0;orthogonalLoop=1;jettySize=auto;html=1;entryX=0.5;entryY=0;entryDx=0;entryDy=0;" parent="1" source="_ihUUyF4QGS6WQR9YeVK-14" target="_ihUUyF4QGS6WQR9YeVK-4" edge="1">
          <mxGeometry relative="1" as="geometry" />
        </mxCell>
        <mxCell id="_ihUUyF4QGS6WQR9YeVK-18" style="edgeStyle=orthogonalEdgeStyle;rounded=0;orthogonalLoop=1;jettySize=auto;html=1;" parent="1" source="_ihUUyF4QGS6WQR9YeVK-14" edge="1">
          <mxGeometry relative="1" as="geometry">
            <mxPoint x="630" y="280" as="targetPoint" />
          </mxGeometry>
        </mxCell>
        <mxCell id="_ihUUyF4QGS6WQR9YeVK-14" value="PROPIEDADES" style="rounded=0;whiteSpace=wrap;html=1;fillColor=#60a917;fontColor=#ffffff;strokeColor=#2D7600;" parent="1" vertex="1">
          <mxGeometry x="360" y="200" width="120" height="60" as="geometry" />
        </mxCell>
        <mxCell id="_ihUUyF4QGS6WQR9YeVK-19" style="edgeStyle=orthogonalEdgeStyle;rounded=0;orthogonalLoop=1;jettySize=auto;html=1;" parent="1" source="_ihUUyF4QGS6WQR9YeVK-16" edge="1">
          <mxGeometry relative="1" as="geometry">
            <mxPoint x="640" y="390" as="targetPoint" />
          </mxGeometry>
        </mxCell>
        <mxCell id="_ihUUyF4QGS6WQR9YeVK-16" value="CANALES" style="rounded=0;whiteSpace=wrap;html=1;fillColor=#1ba1e2;fontColor=#ffffff;strokeColor=#006EAF;fontFamily=Comic Sans MS;" parent="1" vertex="1">
          <mxGeometry x="480" y="290" width="330" height="30" as="geometry" />
        </mxCell>
        <mxCell id="_ihUUyF4QGS6WQR9YeVK-27" style="edgeStyle=orthogonalEdgeStyle;rounded=0;orthogonalLoop=1;jettySize=auto;html=1;" parent="1" source="_ihUUyF4QGS6WQR9YeVK-20" edge="1">
          <mxGeometry relative="1" as="geometry">
            <mxPoint x="645" y="500" as="targetPoint" />
          </mxGeometry>
        </mxCell>
        <mxCell id="_ihUUyF4QGS6WQR9YeVK-20" value="Se refieren a los colores de los pixeles&amp;nbsp;" style="rounded=0;whiteSpace=wrap;html=1;" parent="1" vertex="1">
          <mxGeometry x="585" y="390" width="120" height="60" as="geometry" />
        </mxCell>
        <mxCell id="_ihUUyF4QGS6WQR9YeVK-29" style="edgeStyle=orthogonalEdgeStyle;rounded=0;orthogonalLoop=1;jettySize=auto;html=1;" parent="1" source="_ihUUyF4QGS6WQR9YeVK-28" edge="1">
          <mxGeometry relative="1" as="geometry">
            <mxPoint x="644.9999999999998" y="640" as="targetPoint" />
          </mxGeometry>
        </mxCell>
        <object label="" tooltip="hola" id="_ihUUyF4QGS6WQR9YeVK-28">
          <mxCell style="shape=image;verticalLabelPosition=bottom;labelBackgroundColor=default;verticalAlign=top;aspect=fixed;imageAspect=0;image=data:image/png,iVBORw0KGgoAAAANSUhEUgAAAdkAAAD+CAYAAAB2mX84AAAAAXNSR0IArs4c6QAAAARnQU1BAACxjwv8YQUAAAAJcEhZcwAADsMAAA7DAcdvqGQAAJ6HSURBVHhe7f15/G1HWeeLf55ae+/vcM7JcDKTEBICISNDgODAEBCi6G1ttEUcaMV7bQfAtruF9nbbtxXv7Z/9crgtIFFQLzY2oCDaDBIGGWyVIYkBBCIQCGQic845OdP3u9eq+v1R9az1rGfXqrXX3vs7nvU+qXz3WlX11FPjU1VrojMedYlDB5aXMowGhMGAkBmAyMEQ6WCNOFdPjhYUV/tpFpUOgj8RleettTDGwDlX+o3HY4xGI1hrQUSlnzGmJkei09mOaJ01Og86fKrOdNx5kGUuj3U98fkmtN88Os4jS4fVsnRedfgUsbJaBLJsubz5tzxnjIG1tnZOh2/Tqc1/Uch0dB3sFogIRVHAGFPm11pbqxsX+tKs5dFWXylZbXElWk5b3FR46xycIxQWyHOH9dzh+FpRCx+DpjGyg4ywZyXD0ohgaFIRyTyZaCMVV/tpFpUOQoPj80RUGlJJURQYDAYTBrg3ss11puMuGllP06a1SB0XKUvD7QuiXU4LbZCRhdLLCaMqj7kPyfTZT4ZL0ea/FWxkfW80XOZOjFlF4Q1KU/vS+U0Riy9JyWqLK9Fy2uKmwsf8rAPW1h2OHCuQF3GdqxE/QpYRTt43wOmnDLCy5A0sABhjGt2JgmxoPKOTFSINqxxMejYH3SEkqY6zXZFtaafoTMGgSkfBoMoJj1wlUcvOwlazE+uhCzxuQdSLHMOYzcw7t4utHkNjdW8IWFkinH7KACfvGyDLJvVrtIp7VjKcdnKGldFkJO4kMbeZhb9V6ArXHc6J2d9WNortxmaXha4THvRlve02Zilj3X4XhRyQ5ICdGixTfltN1zLaLsahC3mew1qLLMswGAzKcUzX20a1mSa2Qzm2pb0yIpx2coY9K1ntfHS7+OR9AywP9dkKnViqsGNhZUXNg5TdVVYqbkxnyTxxF0kXPSRtYbV/F7SsFG3pdMlfzF8OBClZegdG++u0ZsWqywwana4kFl6i46byq2Vpf4kOq9mouIukTY8UXGeMljVPOafiarQsiY6rw8p2p4mda0Kno9Gy2sLPik5Hs8h0Z62jY+sOBx/JgdhKdv/Jw6SB7dn5tDXS7cgidV6krJ4Th7Z20+bfc+KwPAROPWkAaCO7/+QhRv58zy6HtsH2Sxsucg1kUeyE/PdsPV3bSdfwPbuX0cAb2nK7+OR9g/L666wDmpviLsCexSHLukudtdVRF1maNtmSRabTJGuaNqn9m2ShJaz2Q0TWNPrE4DhaXhM6jWnjaZrkTKOPjqtJxY0xa9lJ5o2PKeq8ia75nRWtk7zJrA0dbrN03q50KQ8ZVoYzCDc5xW5wmhatCM0xm0vFlX4x/53IVuTHdVwhbpaObfU7rZ/0j4VtIyZnGnRZ6mO06NOWbpc606Rk67JLhdU66PCpuJouYZlYul2Ypewks6S51Wh9Zy27rWRROks5s8iaJa7JMsKelekj9PRoZml4m81O0LGnp2fx6InhZmP2rmad3tjU0yOZd2a4GewEHXt6ehbPVhlWCV155ZUTWrQppgeqtvAppKx55GBOWS7x/F4XWTr+ZsWdB51uCq1TW1wZvi1sF9r00P6SLmExZx66hm9C66jlan+JDtsFLVfL6lI2KVkpP0T8u6BldYESj4LpYxluGnTcjULr3AWtV0pnnY72T9EWN9XO9LGOK2kLq/27oGUxE4/wnIg0FU7PYtmJ5bwTdd4qToSyYkPKeZXHJ0L+t4KdXq6bbmSp37rr2UH07bVHoo1qb2A3np3eB3sj29PTQt9ee2L0hnXz2Ml9sLwmqxvMrJlpk5Py135d0WlNS9d0dTqpPOjjRZJKV6N1lui4qbDz0JZOm3+KLnF1WE0qrqaLLKdeKarjdklXh+0iS4ftgparZen8Nvkh4i/pEhaR8CnaZEm0XB1X+svnUZ364hafk2jZknnCtpGSpekquwlSBjImV/YJXXYSHVfnR/vPQ5vOKThuc05mRGf4RIAbR9dK6Onp6TkRkGNkbJzkc9oY7wYWbmQhCmq3FVaMtsbT09OE7CcnQl/pObFJjZOxc7uFbWVku4aXzBO3p2cr2Cgju0hZO4Htkt/tosdOZ7eV41TPyepMt/mnmCduF3Q6GpmuDttFJx13u9AlD20sMo+sl5viPbSpdNviptBytSzpz7+bDKGWpYnFYXTcVNitQuuoSfWjNlJxdVm0+SMSZlpSemh0WG7Hi9QHDfljZpHL8lhfpk1Wl7BNyLTlcYpZ02pDp92WziLyvyEr2Z6enp6enp7eyPYsGJ7VN83ue3p6Jun7ze6FrrjiCher1FmXxl1l6fCpsBIdDx3iIhJfxk357QZ0/rDAPGrZKbk6rGaeuG3MUt86HBJhU7CclA4xuobXuIYt+lnygAYd5pU1S/y2uFrPVDk2yUBLWO2HFlmaWPwUXWRrdFpNsqYN10Zb/WxnZBnMqj9dccUVDpEClXQV3kWxLmE1i4rbRlfZXdgqPeYpO8k8+neJu13ReZoGCquVLnF12K5lx/Fj8ay1teNYGCblp2nTWfqzn44zCzqdLuj0N0tWl7BtaFmaWWV3lavDS3/tp9GyUmhZXdJpYxGy+u3inp4THNrlW5Uu8ehIT89G0xvZnp4TnN1sYDW9od06TtTJTuN28aIKQstN0ZbmZsnScXVY7b9R6HRTtOnURVYKnQ4Pztx5FpVOV7ReKdp0lLLawmq66JFCp6vlav+tYp6ySqHzq5Fp6bBtenTRWcuWtMXVpGRpusqeFa1TKl0dto1UHbWxSD0kWm6bLB0+RZOs6Eq2KfB2x52gM6WtRJb1Ti132W50HvTxZrFV6c7DiabzPHEXSar99mw9USO7E+kb2tbA5U07eLuxbzs9O52+/W5fdo2R7dl6dqqR7enZyfSGdXsz1afutF8bXeKyf2yAjp2TtMmWxGTJmZ/012G7pLORdClXnYd50Gl1kZ2Km/JrY5q4Ogyjw+pwXXRM+af8tivz6KzjtpGSrWW1hXWJ3ZQustrQsiTaL/W5No2Oq+micxdZOmyXdPjRLy53LasLqXTb5Oq4beElXeJ2CSuZvhVsIFr5np6enp6e3cCWG1k2sDwb7enp6dmJ8IquaUXdc2KybYys/r2ZbFW687BVOm9Vuj2bwzz1O0/c3cCJZmRPhDwugrk+dceNSb+WTdIUl9H+Eh12s9A6aT2kv/brik5LomUvKmwbGylL0kWulqPjav/tQqqt6Dyk0GG1LH2sw29HtM4SrX8qLKPjMNPEZbQMHbdLfWr/zWKRepB4Bp6PNwJjTC2dFFoHHUf7p9Bxu6DTaSqnLV/J7kS4MOepoJ6eLsg217e7SfSAtxFsRho9u4/eyM5AP+D1bDZ9m2smtbqcFzqBtn97NoaJ7eJpG+miGrZuvPPI2iykjlr/jSSV1kaVWyrNGPPokUpLy9Vhtf92Ydp+ovOj0XF1eO0vSYXVfpjCP0WXuCmdu6DLWKc7TzpaliaV33nS3S7QnI/mTMsi09nKeoi1v5mMrBYimSa+RHeQJj9E/HcCstCdc7Vn57rmR5eHpKusFKl02tB6pOpXk0pXx02FnZd50tJxu5BKR8udJ2zKP+XXxjxxNVqWpotsLSsVV4fVpOLOQ1u6mlSddUHnR8vS/pJFhk35a7+dxsR2sc78bsX1W289m0Dfzir6sujZDLZbOyuNrFToRDG0zHapjJ7dRd+umunLpmcz2A7trPzUXYouRncjM6X10Gk58Wo17deFtnS60Lbt0eYv0Xp1oU22ZLPS6QLrxPLbdEzpoeOmwmp0XI2W1RZeIuPqeFpuF7SsVJvTxxotS9I1bpf8an9NF1kpusTVYbuSkq1x6lpfqg5JjH/y93aiS9l11T9VNpqUHl3jNoWf2C7eqTRlcDuhK6Wnp4mNbM9um22nYc78zhN3HuZJd564PRvHRvSNXWNke3p6pkMOJIscTHp6djob0S96I9vT09PT06NYlKGd6pqsRm97ppTRYTWpuBsJp9um326lS75T1zj0cRupdNtkpfRgOIz8DNe8pGQ06RFDy2mKq8MhEjYWhukSFi3hU35t6LhNdJEZQ/ZlmuIapPZPpd8lrGaeuJpUnehjjS6fmN+0pPTYCDi9trRkHmOw/yI/Pzgt06e4w3BTbIk1VUhPnbZy7Nk97NQ+sdvb6G7P325m1xpZY0zNaeQMqW+4aaaZsPTsXHiFsxsM7G5tnydCHncrk9anI9u1wq21NaeRA8pOHVx60izCeMwTd6ewiHKalUWkuVW67yROhPJJ5ZH9tsJelddku35qSIZNZU6TCtuWdpe4+ljHlcdtYTUyfNe4qXQ1WlZb+BSpdHU6Gh1+Hrro0eY/K/J6LbdlSZd0UnG1n0ano8Nrf4kOq+kSt4vOXdA6aNld0u0iS5MKm/JDxN9F3k2LSDxE4nZBy4vJooZPjbbF1f4SHTYGh0nJ2Uy0HtPkoYlU25iVuVey2xVd8BvFZqXT09Oz9fT9vacru9bIQsz0NrpjbFY6OwFZFn159OxW3JS7fj095XYxRbbN2mjaOtkMdLpddU+xkbK7sFV6cLqzpNemc5v/tMTkyHNSbiys9JtVh3lp0ytFSud54vY0I/uFbm/z9JkYug6b5Mbabyqu9tNoWZpYersJXT6LyGvjc7JNA9Y0aEUlbbK6pNslbBtddN6sdFPodLUc7a9J5aHr9fkUWkYqfCpsyg/Cn6a8TiXRshdJKt150DrPk46WlUKno+POUmeM9pfosJuF1onU/SiLQqeToi3tLrLa0Gml6nc30KXsdP6bymZXbxf39PRsHTzhYbdd2Qk67gR48qGNz4lOb2R7eno2hJ1gZHeCjjuR3tBW0JVXXjlRGhtZQLohLzItLVui0+kSdhpoymsVMl0dXuuk/WeBZcrtUz2g6HS0HhIdVqPj6vDaP0WXuDJsKhw6ytXouG0sUjbLcnPeC6HTaWsLLvG4XiquRsfV4bW/RIedB53OotqO9utCW7qSrulo2V3yK5knXR1XtuFp2nPKX8vugpabktUWtim//Up2AejC3y5sV702Gt34e3qaONHayomW3+1Ab2R3KXpWRf2WWE9PT8+m0xvZXYrciuHj3tD29PT0bC6152QZvaWgB2XtL+FV07SPgaTS3S7o/HdBlkFMTir/sfCMDttGSpami2wtty2uDK8fs9EfcmiTlULrJdFyu4TVpOJ2RaeVkt0Wlo+n6YNd0Olo2V3ac5t/Ch1XouXosK7j9UBJl7A63Y1C69SWrg4v2ay4bWHlWNC1DVPLfQSzouVMq1O/ku1phRts18beBvWr6w1h0fXU07PZbNSYsxX0RranE70x3BnslgGqx3OiTUh3U/tduJHlBrAbCqfHs5Gdezd1pkWyiLLeSWW6iPxOi0xrM9Odh43sg7uZ7VBe5XOyqQ6pFdVhpX/KDxH/7YjWOcW8+Uml1SY7Vu7cEVNxtZ/WQftrYukuAq2HRKeTCqvRcdvQ4buk1SVsF7ROmlS6Oq4+1nFT9avDav8uaFld0OnOI2tWtA4arZMOnypnjZYlaYur6SJrHh11+JSstriSWFgOr/3a0OFT6c7KwleyPT27Cd0Jdxu7PX89PVtNb2R7ehS0y7fmdnv+enq2ExtuZHkpL5f025FZdZtnoIrFnbasdNzUVoxGx+3CPHFj1PNr6s6J32TghLMwcNJFyq2tHFJ0MUSxtD0E5yqn8zcZfnE064QJPeoufalhXlLlKnVucxKWJc/r8LF4TaTCp/w0s6QdI1ZWkjb/Wekqty2/0/rF/Kehq76bRWlkU41/VqYprHkLVtIlD01h9fE0NMnqii4DKVe7GE3nY7TJkswats0xVb6pci6cd4Bz8EaKvLH1juCEk8hy1GUao0mvJv+Y43CT+LzU/pZuOv26omVO6lp3RKZ0rBfHWySynLRsrXMbuux1nTeNKbFzkjZ/jS5brdesdJWj0+4an+kSb1HpTBO3LWzT+UXSpnOTX2lkU8hG27URttGk2G5Bl512O522hjcNVVwnHEAEgIIpIAdyCbcAPZiu8VPpEpzPQ8iLzCPH2fx2IMs55qZj1jZsrZ0pXopUWS6ybfRsD3bSGDqVke3paWLeAYzj+Te8iIGe7MRvSrk59YgxbSdmo6HfYAWESQI5EGlDVn/T0DTpLI5JXSrXDS6jact9UYOjlMOymtLfiLbRs3XM23Y2m4U8wrNIFjXwaJ01WnYqXS1L+6fQcZGIr8PqcG3+Eh12HlLpaHS6Mq72gzBQWZYBAA4fPhxNTw6kFFmxWGsxHA7hwqC7srKCLMvKNPk8y7DWwhhT/o2FYWJ6M9ZaDAYDFEUBay2yLINzDmtra8jzHMvLyzjppJNwyimnYHV1FcPhEGtrazh48CDuv/9+HDlyBACwZ88eZFmGoihq+vA5Pgb8K+eKoijLgl9hymHG4zGKokBRFHDORfMHkS8Zl+VlWYalpSUYY2rlxfqxTlq2Ljd5rCchHJ7lc9pra2tYW1uL1jOXyWg0wmAwAFr6riRVj01oeW1pyTJNpafj6rBd/LWfRstKkZLVRU5XdLo6rbZyT6Hjdik7iQ7bpgeH741sIJWulqX9U+i4pN6rqf0kOkxKR42WNQ9taUl0ujpuUx6ICEvLI/zMT/80nHMgY0AgyNUVuRCfAB9VyKYM4/EYR48exSOPPIK77roLt956K77xjW8gz3Ps27evNKo82A8Gg7Iu5CDPevFfPsdhdB6KosBoNMJ4PMba2hoe+9jH4jnPeQ6uuuopOPfcczEYDmCIMBgOAQdYZ0EArAUeeughfO5zn8Pf/u3f4sYbb0Se51hdXQUiRgmhnFgPhPSlobPW4swzz8Q111yDc889t4zD/oC/pO3YwPGNThTykhc4duw4Hn74Ydx555249dZbcddddwEAlpeXy/yXsoRsltkEx2E4rJSxvr6OZz3rWbjqqquwsrJSKwP+fejQIXzgAx/AnXfeWRpajh/TQeqq/dpo0jnmB5WXVFo6rg6b8k/5xdDhU6RkdZHTFZ2uTiuV/zZkXN2ndLopdNg2PTj8lhtZLVsyTzopuYjITlWilqX9U+i41BvZ8rdcRRpjsLKyhPe85z3eEDoHwPmbnqw3SoYoGNcIxq+EJUVR4OGHH8ZNN92Ev/zLv8QXvvAFDIfDcsVrwyr0+PHj5WBtw2qUhDHj304YNMY5hzzPkec5nv/85+PFL34xLr30UhARskGGLDPIQpwi5IMM39hF5YpwbW0N99xzD9773vfiL//yL3HkyBEMh8OyvVCYABARxuNxufLnfCCULRHhsssuw0/91E/hiU98IlyYBDixWwBU4UF+xuKcgwMwyAZwzpcD5/nIkSP49Kc/jT/7sz/DZz7zGezfv7/0Z53kynpaOF9EhDzPgVBnv/7rv45v+ZZvKfOOoCuvoA8ePIh3vetd+KM/+qOo4ddtTsrooh8ismR87Qfhz3lrQsfVYVP+Kb8YOnyKlKwucrqi09VppfLfxjxxJW06ajj8lhtZOWhpufq4C1pnjZadqggtS/un0HGpN7JRv9FohGwAfOQjH8F4PMZgMEA+HsMY4wdyAGSD0XXhZqIyNuCyUTlQZ1lWGkhjDMbjMay1+Md//Ee89rWvxS233ILRaAQSxpP1kka2lN2wQkLY3r7sssvwq7/6q3j84x9fyvTpOwBh1UmEctIQ8m1oWOrKBqsoCtx111247rrr8LGPfQwuGHZp+NmoyhW27EeXXXYZXvGKV+Cqq64qt40RVu7GGFi77gMSwRDBOgtbhBk+ZSB4wynT4/zffPPN+M//+T/jrrvuwr59+8py5r+63CSsN0I74LCcj/F4jMsvvxz//t//+1pZUjDivBWfZRk+8YlP4Bd/8RdDfrzcpnpiPbR+06DzkMofhH9MD4mOq8Om/FN+MXT4FClZXeR0Raer00rlvw0tW9JFlpbTFpfDZ2eeeeavaE+NFt4FbtjsUrQp3QWdlpY9rU7zouVrPVLosusSVyP10HJ4NbKI8ugSnw0DD5IZEX7yJ37S7wKH8TijDHAE5ywcHBx5Awty8I+eEsgQCBYEi4wciArA5SAK5wwB1uJR55yDf/a//W/IjMHnP/+PyNfXAVhkg2GpU5P+rCsJw7O2toZfevWr8P/7L/839u7ZAzgLZwsYArKMAFg4WL/PDYcsM6Bgb7PMb4c7W8A5/9Qvwk1cp5y0D9dc82zsP+0UfPkrX8KRo0cwyDLkuTeWvD0tdZPt48wzzsAzrn46zjzzdF9UgC8DONgih7N+MgJXwBZeXwJA5OCshbPW72U7/zszBGMIsAUe9agz8c/+2ffg6JHD+MzNNyMzGbIwCYIypPyb2xVPmLgs2RA550AAxmvH8f0vehG+5RnPwGg4AFxR7mAY4/U0Qcd8PMYdt9+J27/+9Vq7lZMNpq1dp/w0MqzsMzqNmEzd7+alSV4s7WnRcXUaMq+xsp6WpnLbarroNG0eNsXIbgVt6bb5L4p50pknrmaRslLMmk6WZRhkBi996UthC78yG2QDODhYZwGHcI3WO6JgpABYG56nhX+WlojgLPyKDH6L2WQZCL4zPO1pT8PePXtx883/gLwogkyvuxw4HG+jqpUuAJxxxhn43d/9XTzvec/1283ZoFxRSiPiABBlMCYL27B+NWutC/kpUw//+TxlmcFll1+G8847D//0T1/Cww89jMFgiPF4jOXlZeR5Xg6ApLZVzzzzDDz96qfjnLPPhgvXsTkfxhi48s5mn3IoXiCUF1HYPTAUdpNDGRiDohhjeXkFT7/66TBmgM997h/DNjTBCqPJK1BGD9YQbcWXr7/56/u+7/tw8cUXwzk20OG+Z5cDrnoWanl5GQcPHsInPvmJ2rb6LHRps13CbhZaJ33chba4Mf/YuTZmibMZdNFr2rCzT0V6dg3SmMw6UM2CTI+IYHhwJ29w8iKHLQpvYHnFGpxf93mDxf6Av35ri2qL1g/QLmyH+rSss3jJS16CH//xn0DzRd5qpSWNgXMO5557Ln7jN34Dl112GfJxXhrY8jopKsNsjN/mZb0MUZhQDODC5MAvbwFwnHDsrMVznvMcvOIVr8A555yD48ePY+/eveWdt7KTSx29AQ/nxDhAqF6I4azz6YeJh5+0KIJ6PqaPOxh4vVeWV/CiF70I3/Edz8P62jqgHknyea8mHEi0M+cc1tbW8dSnPhWPveixflKFUHbhBjje6maNlpeXcdFFj8XZZ59Ta0M9m4esw77sm9lyI8uDxVZW0lam3VO1gXKrkQBnHUxYlRKR3zK28K9adAYE/zczGbJsCELmjXQ2gMkGoLDN7PeU/XYnkYHJDOD8jUYv+8mX4WlPe1q56vIGqrq+x7rx9dCiKHDOOefgP/2n/4SLLroIRVFgOBz4m5vC9UK/+uP2RLCFw5HDR/HAgw/h/vsfwD333If77r0fBw4eDIbY2w1epfPEoSgKWGdRFAWee81z8cM//MM49dRTcOzYMZhwjbackIgJgdeZTVEwlGKy4JwDHMFnM5RjeJ2iLVe0wiCKLV+/Te787oK1OPvss/CiF70Ip59xRig3ObmoJkzSaTj8YJDhsssuxdlnnSV2ArxCXC+FtX5lbvwE6vzzH4MnP/nJWF9fr+WxC13Dbye2g+79BKedxhufuhRaKq722y6k8jePzlpuF1ld4+rw06LltsmR4XVYLcuEm1iaOp/0M+KmleFwiNEww0c/8lGMww1PMqxzDg8/fAC33347jh07CiLjr2WGcH47GBgtLWHvnr0444zTcfLJp9QGfqkLG9bbbrsNL/mRH8XS0hKseKkEy+V41lqsrq7il37pl/CsZz0Ly8vLXndb+OuVwbJx+CNHjuDOu+/C7bffga997Wu4+5t345FDj2Ccj7FndQ/OOedsXHrJJTjn7HNw/vnn+5uIXDD21oEyv+L2ZeR1/tVf+TV86EMfAgUjJvXkMnLO4fLLLsUrXv5yPOlJT6obXMYBf/u3f+d/ACgKC2PCdi+AwXCAleUVnHXWWTj9jNNhjMEgy2CdgzEWtuBrn4QDBw7i//v/3oy3v/1PMVoawak2IduBrG/td+6jHoWff+Ur8KxnPav0k7sDhV2vtrHhbxYrcot3/vmf43ff8AaAqq183cakPoi0yS4sSpbUkfi6dJAlfzPyWOug0XFTaFmpuG1hU/7aT6NltaHLb1rawqb01HFTYSW9kY0wj85abhdZXePq8NOi5c4qBxFZ2jhq2TE/5xwGgwGWRoPSyJIhFHkRbhTyq9C/+Zu/xete9zp84xvf8LurPjbgAJMZDAZD7Nu3F49+9KNx+eVX4Jnf/u247PLLsbq6XF7X9dc9w3XccFfzv/43/xZ///d/j8HAb/tC5EMahR/5kR/Bj/3Yj+Hkk0+GC3e5uiIvV94+LxZ33/1NfOpTn8SH//oj+MxnP4e1tTUMBgNQWBWPx2PkeQ4Di0suuQTPe9534JprnoPHPOYCDAb++mbh8rAqNuWO9p133I2f/dmfxcGDB0udJFyul116CV75ilfgKU95crnylOTjAs977vNw9NhRIEw4rOUJhcPy8jJOO+00PPnJT8Zzn/tcfOu3fitWV1eD/Bwu3H1sC3+N94Mf+BBe82u/Br89X08rVtdG3KhFRFhfX8e1L3gBfv6Vr8CZZ54Z6sqFvDtkgwy2WPfX28M7vgz5FfgNN3war3v96/GVW2+tGXFOtzeyabSsVNy2sCl/7afpIguR8puWtrA6XYmOmwor2fLt4p4eHmRq58DPhfqPAVBYTQ2HQ4xGIywtL2FlZQVLS0tYXlnBcDiCMQZHjhzBF7/4Rbz97W/Db/zmb+CDH/wgjh495q9zwhtYwBu7LPOP97z4xS/GI488UtODV7UId/NefvnluPbaa3HSSSeVK6yiKILR9qvXcT7GF794C974xjfiuut+D5/73OdgjMHq6ipGo5F/TCnkYXV1Fat79uCOO+7AG9/4Rrz+9b+LG268AePxGK40REA5lbAOF154IZ7//OeXz71KPaW+nI/C+juyNcZkMFmGk/adhJWVVezZsxcnnXQS9u3bh337TsJwNMSBAw/jAx/4AH7ntb+Dz3zmM8jzcXmt2Vk2gj7fJ59yCs4666xyQsRGVCONq3QrKyt43OMuwhlnnOFvyuKb1YxBYQscPny43I4vQtqc58c+9iJcfPHF5eNbrBPCICgnST07B9k+djpGZkRmKJVJ3Uk0Kb/twk7QsY1Z8xAbAFOk0tGydBgdlwdBHQ/w9sSvu+qrLz/o+kd2XDA71jlY50M5CIPCBnk4xO133IG3vu2tuOmmm7wUkbbXyW/JXnnllVhZWQGCIYDQm4iwNBri2hc8Hxc85nwQXDDYfmvVy3CwAL7ylVvxe7//+/jwX/81xnnut7CF4XbqxREAwTq/xX3DjTfiTX/wh7j5M5+Dt64Gzhk4ywYnQ56P8YM/+INlucTKtfQLK3znyruXQCB/Ixn565o23Lnty83no7AO/l4zg9HSMu6773689W1vxdFjx+Hg/DVt8vI5vb179+C0004ry0vqIY+lrhCXCx796EfjsssvB4DaDWpFkWNpaQkf+chHcOToMcD5G7BcKcvh1FNPwROe8IRy8sNlYsSzxTFdZoH1Z9pksS4xBxW/6Tej4y6KWFpNdAmLKXSW52PlI4n5a31i8RZJTIdpmFjJdonMcOPVmd5oFpVu1zzPk+5WxdV0kdUWNuavj6EGWfYjtVUGeGPgx1lvbNnPuvD6v2BUvYHw501mgpHw50CEbDDAN26/HZ/45Cdw8ODB8q5VF659Ag6Z8e/o1a8gJL6GWOS4/LLL8KQnXonlpVF4JtQB1sK/uMk/NnT//Q/gD/7wj3DDjTfBZAMU4c5dmUfOZ7kV7eC/kxu2QL/ylVvxl//zf+Le++6HMQNkZogsGyIzAxjjt5Ef85jH4LLLLivLShoSXd41QhO31pdRXhShPMNjUI6nNuRvGiP/yNFgOMJN//APKJx/3rd8XCoYOQDIskH53K5Tq0ejHmnivxzOWosLL7wQT7j44vKlGa5sI95Q/umf/in+4abPlJ/iI4SXiMAb5MsvvxwXXngh8jyfKAM9IGr/NvTYwG2X5bB8HW5amvSR6cTCaP9U2Da6xO0SViPjttXJtOnoMLPWQxMpPaRfzJ+ZMLIbwTSK9PQ4x8+7ckcJK5dgHMswMnz4K9uXHszvvPMu3HvvvV4CwV/rQ3jUxfgOf/bZZ5eDfL3TAldd9RScf/5jvPEIW6Js7AFgfX0d73nPe/DJT34Sw6F/sYVTxobUNimvuqTORVHg5ptvxpvf/Ga89a1vxZve9Ca88Y1vxO/93u/hDW94A6677jpcd911/pp1YltW41ClywYPQadpZBw9erS8yxjgO6i9HGMM8nyMI0eOqHKr1wHEOMD5ttbi5JNPxiWXXIJ9+04CESHLjL/eGsr5jtvvwJe/9CW8+93vDq+pzEK5s7G3uOCCx+Ciiy4qJxw6j+ykXotA1uci5e5UdFn3eDbcyMqC7wu/pxXRRLi9+Jty/Dk9YLOT27AkZspZluHIkcM4cuSwf5lC7r+W4wN7K2qtLbcb2Y9Xm+eccw4e9/jHY2VlBc75a6P8aAk/YvTNb34Tb3vb28r0nTCicvBlPzYyUk/O66FDh/DhD38Yf/Inf4J3vOMdeOc734l3vetd+PM//3O8+93vxjvf+U7ceeedZZ6lIW+i3G4PuwJ6SxwtBvfkU04J5SEnNGFVXBQ4cOAA7rvvvtLwSmR++ZjvGHbhmeOnPvWpPgw/6wz/+JYxBh/84AcxHI7wyU9+Eo888ggK69+R7K0wABCWlpZx+eWX4/TTT6+VuxM3WfVsPNym2fV4ar1CFk6qsHRhykat/VHevcjvc11cReh0u6B1mEdWF3Q6TeXoxEAcK6uUH6aYZWv/VNh50Dqm0qHwIgZ/52gwqGFF48TjMYjcRMPI48rwGpDxz8cSBUMBYDgYogifbtPbmhTuer3gwgtw4QUXeuEcN9z1ivDYyF/91V/h0KFDpT4UMVh8zOmwoZF5Yn/+FN7hw4dx+PBhHDt2DGtrazh69CiOHDmC9fX1Mi2pL8uQOoCNlsgbb6saY5Dnea1/OtFPTZbh+PHjuPYFL8DS8nLIR+b3c0ORr6+v48EHH8SDDzwAa/0NWbpOOI+8U8BpDodDPPaxj8VFF10EwIUPKfB2sDem119/PYbDIY4ePYpPfOITZfswht9ORSACnva0p+HRj350+SYsWTYxXWS5S6T+slwhylbK1G1Hy29ybWg9FomWvSgn2xFa+r4+37V8JE6NpdOgddd6xWTF8iFdE5NTzymYVjhEAfRsH7ZtnVD4X2jbJO7c5fZOwrjEjJXuuHmeY//+U3Ha/tPCNmMIZ0x4DtXHf/DBB2vXN7ltX3jBBXjUo87xj9wE48868J3A733ve7G0tASSL9QI8Dm9Fc3h3BR3wLIubBxZHhvuWH3y8CCHCYI3uHynrguPTvHblLhcuByOHTuKSy+9FD/8Iz8iPi5Q+NVkMCwPPPAAbrjhhqruRB4ZHnjLNEIe9u/fjyc96UlBtn/21efFTwq++tVbcfsdt/tXSa4s493/890YhFcogkJyYeJz5pln4oILLsDq6ipITGa4fFi2NARVeouDy3XRchfFZum1Wel0RbfNzWDDjWxPz6z49/zGB0M9aLK/HGD5cZnHPvYinHvuuf6GqmBorLUocn+n7WAwqG3BurDNuGfPHpx66qlYXl4pV8De0AQjRwZ33303brvttlq6PLgz7Me6sqGBGow4fVu7A9kj+xqJVaEuFw/HC3dbK988z3H8+HEcOHAABw4cwAMPPIAHH3wQDz/8MB4Kf1dWVvCyl70M/+W//Bc8+tGPhn9kp76DUBQ5vvjFW/Cxj30cw8EQCOXKeeSw0rjKPO3fvx/f+q3fCqj8OQdkgwHe//7rsby07G90y3Pc8k+34OCBg8iL8IGDgMn8tdpnPOMZtbucWWYW/LUeWp954fRkXnp6ZjKyPT2bAYWVlb9WVx8Mjbi5JROfi+MBrigKHDlyBJdffjm+4zuehyzjlat/FSPCKg5hRfrNb36zZhystTjllFNw6qn7gbD6o2AEjTEYDAcgQ+XNTmx4OW05yPI5HtA5LK/COQ8clo0sI40F/5VhZVkAfgfAsQGOjPWj0Qh/8Rd/gQ9+8IP40Ic+hI9+9KP467/+a3z4wx/G3/3d3+Omm27CB66/Hj/3cy/Hox71KAzDKrYo/A1omfF63H333fijP/rD0uBDTCggVrAuGL0ifHaPiLB3715ceuml/uUT5XVwbwj54wAf//jHsbZ2PJwDxutjfOzjHyt3FBhbFMjzHFdffTVOP/10FIW/7q7bBP/u6dlMGo0sN8yY6zIT7BK2jUXKkmi5bW4etBxZrm3oOCm0zjzI8ICm/bVeTei2oJ1G+7Wn42DDe3vBb3sCwRa5/5yds3DWvy3JwCEjYGAAA4fhwGBgCIYcbD7Gk668Ar/wr1+JSy+5GA4FvE0do7DrABVYHx+FQ4GPf/zjcGE7llei1lqsrKxg3759cM6/enCcj1EUhX/tIxkMBgPceuut5bdps/CCCmlYIOqNV1IIBmjt2HG4wn9WLl8fwxUFXFGAHGDzAq6wcEWBYpwDhUUxzmFAWD++Vk4s2PByOr6eHfzKk1dz3s9ab6Btvo5zzj4Tp592Ks464zSccdqpOOO0U3Hm6afh5JNXMRoS4MYwsBhkBFgHcs5/dpAGWM8L3PfAg/jN3/5tfPmrt2IwyuBM/b3NXo/qq0TGGBgHZGRAzmHPyjKe86xvRz4+DsIYoDEK5Fgv1mEJ+MxnP4v7H3wIhSOYbAjKBrAgvP/6D4LChMm6AhY54MYYkcW+1SU8/aqn4KR9ezAa+ZeTeANdb5vS8Oo229YXtF+TnBjS8COSVsqlkDq06aHlardIptUJHfMwD3qilUpX+8kwutxSZUdXXHHFwnOUSlCjM5ZCy+0SV6NlzYrWQctN+Ws/jZZF6kYf7Z9Cx+sSV9JVZx1e55/C6pBfq/ixj35UfGUmrGLDzUaf+tQncd111+HrX/9GTS7fjVoUBU46aR8uuuhxeOF3vxDXPOcajJZGgHP+/cLwL58g+FXVYDjAeDzGz/zsK/GlL33JnxsMgLCleskll+CVr3g5rrrqKbBF4Y2V8TfesM7/+0/9K9xyyy2w4iMDnDde0XE+jTE477zzcO2118I5h2HmX7XIYeSjSnD+bmATHjfiz9y5sJL9gz/6Q7iwCmdDy2V56SWX4JWv+Dk85SlPCatPv1J28F/ecS48bxzaRGaMvybqrH9vcq0Ow5Vs8pOdtfE67rrrLvzX//pfccMNN2A53BAFAEQmbPFX+TXGYH19HcYYDLjchgNc+NgL8Mbf/32Mlvw2s98C9s8cD7IBfuu3/19c//7rceTIUZjwMXtjDPbt24u3vOW/49T9p/qPPsDBABiYDGtr6/jSV27Ff/yP/xHfvOc+/1KSUJ/asMo86jY7LbINxtBy2biyn/ZPodPS/ajJryta1m5H5lfXSaws+JwOK/00vZGdE62Dlpvy134aLYtOKCPLBhblijYf5xjnY2TGX2v1sv3HAeD8i+39G4OqO1j9Ni/8R9+DLtb5D6hb6/DFL34RL/nhH8P+/fvLO1Oz8H7hK664Av/mF34BT7zyCljrvztLQRdr/Tt1v/f7XoQDBw5gPB7X8sV542M2Nt/zPd+Df/fv/h327t2LYViNMvWyI6+z9W+28u809tepjTF40Q98P+655x6Mx+OyLLgstZHl9Elcy/XHPiX/Hmdf0HUdXO2ubuccDhw6iJ97+c/h3nvvxfr6GDZs//r0q8d8eEt7PB5jMBjAOYdBuLlpaWmE7//+f46f//mfR8HvfoZFHr4jbAvgp3/6p/GlL32lNnmx1mLPnj145c+/At//ohchL/zXdzLnYMh/wGA4HOGVP/+v8akbbizziVAHTWWt2+y0cHtqQsuV4bVfGzotGT/l1xUt60QjVa7yHPeJmJ+mcbt4VnTCPRvDLOXMDWOWuJtC2UaDfi78z/nX7RERlkZLGAzCe4MBgPyHBPI8Rz7Oy+t+xpD/mHf57VnyhguEzAxgLXD4kSP4zd/4Lf8FnGCQeXvRi5ZlxXe0Vtuu7MOrLIiOxkaNwjYywpeGXDDAeZ4jL8YoCv/X2gJFkWOcr/vzNpyzOYgc8nyM8Xgdeb4OwPota7EdKvEqE/i03FLOsvrjJt6Icl6rdkV+A6FWBs457N+/H//jf7wVr3rVq/H4xz0Oo6VReJNWtVokcZc16+fTsgAclpaW8IIXXOu31p1FUVQfoAcIN3/mZtx3332lgWU3Go2Q5zn+5uMfxzgfg/j91nwd1zmMxzme/exnY2V5udQjVieLoKscmZee7YGsk2nqZZowGjOt8BRdlGwjJYsHKHapsG2Fp2VJp2nzT9Gmh6QtLKfd5CcdD3IclgdkHmDnQZZDm87aL1aO7MevPSTyg3zwLG0uGXkHb5DpgOHQ35jDMv0GZxj0w2sA/co4Kx8Jevihh/GmN70Jt9xyS21LEaKs/ADNq59IOyGqfSJP5kmWj6wTacz5PcImGCA2Vs75l/BbZ305kE/fX/P05cSGW9anE33CH4f4QY/qtZLcPkJY4finbOX8hiUiwnjsJwbfee21+L//n/8H1157LZaXV+CEEeO/ctXswmp6MBji0Y8+H5deeql/laPQ2U8ACJ/61Kdw5OjRMo+srwuTk69//eu48847y/h+ChVuWHMW3/It34K9e/dOtHdZP1xG88K6x9w8cJvR7SpGl3Tb5GpZ08rFnHE1Ov6iZGl0eUxTNty+dfimdOYfcXtq6ILfLmxHnVL4oTMYyGBgqXxzEdjy+LAuvLTCUGl8ra1eZEFkQOHrAsZk+MbXb8db3vI/8M53vguDwahcMckBmY3s8ePHwwAPn354rMg5r9sZ5QfLK4MqkR1Qrqp8eADOhpc42LDO9s4hHBsfxpeI/NuMLyMXDKow+Fx+zuGee+/B7XfcjjvvvAN33XlX6e688y7cffc38fBDD5f5ggPGY//YjHV8nRg4+6yz8JMv+0l83/d9L5ZGo4m882BTb3cO3/Vd34m8yEHqZjDngIMHD+EfP/ePeOSRQzh+/DjG4zGOHz+O9fV1rK2t4dixY3j4wAH83d/9XVih+zLlD0YQEc4771xcdtllZbqyDrge2Gmde3oWTXbWWWf9ij7ZFW2556GLrFTYlF8bbXFT/rrTpsJquoSdBh5UMKdeTUj5s8LxjTHIDOFlL3tZWAH585wG3wDkXNj4DcbUOb/Cs4WFKfWp4pYDrCEcPHgQn/rUp/G2t70NH/zgB0AEv/UcjKyOs2fPHjz5yU/ChRdeWG6lynBEhK/c+lX8wz/8Q20rmPMDYWB4NXfhhRfimc98ZnjHsX/DEq9SeWqh15E+SW80/U1cBn/6p+/w7xSOGInTTz8dz7j66TjnnHO8P3kDC/ITFyLCb/7Gb+KGG27ATTfdhBtuvAE33ngjbrzxRnz605/GTTfdhC984Qu47bbb8NBDD2Hv3r1YXV2tGUTOz759+3DeeY/GPffcg6997bby8Ro20DLvmTEYjZbw6le/OjwWJNonHIzJ8MAD9+Oee+7FaftPw/mPeQwe85jH4Pzzz8cFF1xQ/j7/0efhrLPOwhOvvALOWRjAT6KI/LVZ6zBaXsZHPvKR2la+bKtcf7JOdxKL0nlRcnACyGqT0+Tf+NF2jRM3cmiazjNtsmdBp7kRacTomq4Or5Hxu4SFCq/9IPy1X1s6bXTRWaN1YYwxWBoO8LGPfQzj8Xr5Hlyi8n/l6gPkX7BQvt4QAOCNLG+H+rh+AD127Bg+fcMN+MQnPoGbbroJd9/9zdKQGWOQh+u9HIc5+eST8dP/6qfw/S/658jDDT5U3ijkw/7dJz6Jn/mZn8HJJ59cMyxN5fLMZz4Tr371q7Fv3z7A+WuRRP4mJBv0ZoPENzv5sgjXpp3FcDDEi37gxeV1S47DaV56yRPwipe/PNz45D98j7A+Dv/h27/92+FqNwMRED6a4A07IcsGOPPMM3D11Vfjx3/iJ/Cocx7l79IOEw7+LB2Rwcc//jH8zu+8Fvfedz9IPGvMdQAA5By+7du+Db/5W7+J9bU1ZBlvu1kUtgDIX1M9cvgIxnleXhN2zoGsl+knYA7D0RCnn+bf4kVlu/KG1oZrsy9+8Q/hwIGHwxeRqrbn1J3fmKEdbzRN/QQz6LooWTE5TW09di4Wvwkdv0tcjZQ1j5xZaTSyUjG5HcaNXqILRKLDxuD4bWHnTSdFqiK6pJsKOy+ptLSfZiP1mhXWmduVv7v4Y+VXZngAJwKsI6ytr+Pw4cPl6wV5IF9ZWcEpJ+31W4aFN8Qmq95te2ztON74xjfiz97xDlixsgHCutHWy4d/ExH+j//9J/ETP/HjKPICWWZQGXF/TfbQI0dw7bXX1laysbLmvJ5xxhl44hOfWH6th/04HhuSq69+Ol7w/O/AIPN35nJ5WGsxHI7woh/4F7j33ntLGdKgXfKEJ+CVr/g5PJmNLBvQoENhgec973l+ghHKUrcfvlmqCC96uOaaa/Brv/ZrGA78V3I4j3zd9aGHHsLrXv+7eH941zCvXqXstWNH8YY3vAHPeMYzyuvPKD86wCt2Pl09Z0sg2LG/I7wIEyJZR/ydYYb9f/u3fwt/+md/BlD4ek+kj/A5qe9uQ+d71jxqOXzcJK/pPCKyNDKuDqvlan9NF1kSHVaj4+rw7L/h12S5wbPr6ZkWFz5lxoPfrbfeiuuuuw6vec1r8Cu/8iv45V/+ZbzmNa/Br/7qr+LIkaPlNT52CNvLK8vLeOYzn4nHPOZ8FOFtTGWb1ImGzmLD9dh777sPjxx6xBsp6691+rh+8N+7dy++7du+rXz8h9Ftnn/ff//9+MAHPoB3v/vdeM973oP3vOc9eO9734v3ve99eN/73of3vve9uP7663HnHXf4LfKWjj4LpIyqLA/25+uVWZZhNBrhox/9KG6++ebyOqgv22oVfdppp+G8884r33Es5dvwiNapp56Kq666Kqyu/ccg/EQKYbXu7wRHuAM8MwMYyvx7kjN/HTgbZDCZP0dZdQnBb214xzse//yfvwhr4cUdXKexcYjLg13PdMiy7Mutmd7I9mxPCOULJIqwOj148CA+//nP41Of+hRuuOEG3Hzzzbjpppvw8Y9/HG95y1v8p+zC11v4ui6vdq+44go8+1nPLrd12djKVS3EYGHCiwzuuP0OfPOb3wx3uoa7XIMpKKx/u9NLXvKS8ss4PGBzGrzSk/KzzH8ofjgclm40GmFpaQnGGJx77rm4+OKLYbKwTbwB3caI66saLgNpdLIsw6c+9anwIg5XWjSe0GSZwf7T9uOkk06qxePV6COPPIIXvvCFWA6P1vD0xofldP2ugitv2PJb87YonzMCQh07CqvO8IiW35Lwzjk/Gbrwwgtw+RWXl/rz3cqFeCtXz+z0BnY6yhFGG0LuKE7NcuWxHFRkx2ryi8VluTpezGlZKXRcjfabVm4bWkeeVS+iU6fypP20S6F11jT5x8Jq2vJPfM2NwoOZ3HnDIOs4b+HxncFggOFwiKWlJYxGo3Kl9fa3vx1f+Pznw+fSqu+R+pWn8S+O+N7vLT/unWVZucXIenljUX2JxxiDW2+9Fbfd9rWQ92pgYeMxHA5x6aWX4vnPfz6OHTtWrpb4L4fnsiPxJiQ+L8PleY7HP/7xuPLKJ/rHjxDeMOX8Hc4my4DwtiYuu7L8+LEleF39jnZIH/77t1n5aJLPs/4rdUEwSKzzgQMHvOEnb2NlOGsdVldWyzdAsRwu07W1NbzkJS9BYQuYLBhKB2RZeHzK+bwCBBfu5vZvj6raAbhcjfG/Q53I1avlx7DIoLAW3//934/Dhw/XykvqJ/MQm3hw+bLTpPy2CzKv8+ZPy+E65vYs0XG7oOPqdGclVRaaLmFjsP6TJbMAdAH1ePryiMPlUpZOaM+8YgyXFP0LHMQ1RB5QnXM4fvwYrrvu9/wgHeQVtvDDNvnB+1HnPgo/+OIfxMknn4xxnvs3EamX/+vJwAMPPoAvfvEWHHrkET+QOP9cKwWdrLVYXV3Fv/yX/xL79+8v2z1vUcrOyZ3ViY8ImLC1aq3F+vo6zjnnHDznOc/Bqaeewvd7eUTTYf10xy/1FmH5eizfXYxgTHg1x6s7LYvhZ4jX19dx9tlno8iL8jpxnufhrmiEREM9cn2K51svvfRSPPrRj0aRFyjy3F8vN7zjEG7ICg7wb44yJgsTGwMLV3N5USC33gEEk/mJVDaovrZjC4vv+s7vrNpD2FXIwnPK2qg2lUETsp3wsXQ9FSdyeSzcyPYNrc68s6GdzkblXa46/aoyw2c+8xm84x1/hkzcLOQcUBQ5iIAiL/CcZz8HT7/66VgajarBXunGhpCIMMgyfPrTn8ZXb/2qMMDe+vHNOdZaPOEJT8CrXvUqGPEhdC03z/0bqTiNwcC/u5gH/aWlJVxzzTW45pprWBGhS2UEOvcrqgws90s2MiyL81uPVpXD2toavuu7vgvW+huhHH9sILzGcjAY4OjRYzh27Fgph+v9wIED+KEf+qHSqFvn/I1pYhU0Gi1heXkFK8EtLy9jdXU1rI798dLSEoajEUajEUZLS1hdXQ1b7GHnI3wYwTqLPEyi9u07Cc9+9rNrkzPWi/POxzxp6+lZJAs3sj11uAOzO9FYVP4pGCNeeY3H49KQZWELtbAF3vKWP6m2NR2/eD4YqJD+y3/u5TjllFNgrcXaun//bRlGMRgM8OUvfwk33nQj1tfD12+c9c9nhi3p4XCIwWCAZz/72Xj1q1+N5eVlOPH+XimLbwzitNjojcdjPP/5z8fP/uzPll/14X/8piamq5Etr4A6vzcQqwsSRkeWR1EUePDBB/FTP/VTOP/88wHx0g6qvcCD8NBDD+LgwYO11TmH+c7v9C+gGI/HGGQDFEWB8foY1lnce999+A//4T/gaU99Kp5+9dNx1VOfiqc+9al4ylOuwtVXX42rrroKz/iWb8EznvEMPOPqq8u/T3va0/D85z8ff/aOd8AYClvQ1XV2P+EZ46UvfSkeeeQRDIfDcoeB9ZOTCz4/K7Kd6/LtOXGJGlndWLTjxjhLo0zFTfnF0GFTOqbyoON2QcttQ+ul9dBheaUU88cCBgZE8qD10v4ynkbHbfNj+c6Fl0wQv1Wpnq7j9/2Gu3h5FchlYx2hsMDBRw7jDb/3+wBlcJTBZEO/5Wh9Y8+MwdlnnoUff+m/REYGe5aXays6HqBLHclgaWUP3vUX/xP/+IVb4MggLxwKR7AgwBUwcDBwWB4N8M++57vx//7Wb+Lix12EI48cgityZOT9MwLgCsAWMLBwRY7x2nEMM4NX/bt/i//rl/8jRsMMJtxxa4wpP6tnTLgWKoybLDvW2fsDCKtsXj27cF3TOQfYHKNBhoEhLA0zDDPCwFSfDDRwyMdrOHr4EawsDfGf/9Mv41+/8uXI19cAlwNUgIyFQ47CrsEhx/0P3BO+yUsoChe2eQnW5nje867B6p4RjHEwGWBtDgT/jAa47Wtfx1e/9jWY4QCUZcjCX8oMnCEMl0b+pVcwGAxGMGaALBtiMBjhwQcfxte++jUcPHSo/JoQT2LY6F711Cdh//5TkOf8EQcCYGDMEET+owVOfERBIttgm9PwOW5LXD98rgtSRte485DKo9YpFVbTJaymLV3tUnFTdAmLSJ7YLeSNTyl0JjUp/5RfjFT4lB9a/FN+bXSJmwrLFabhczG/RTGP7GnjEhFGwyFe+tKXogifnCuvycIbiNtvvwM33HADDh06BIjnt7MsQ57nyML3XB988EFcfPHF5RuPjDH+Oiq/0KKwePKTn4y///u/x93fvBsIj8rwKkfCHezw4cM4fvw4Hve4x+HUU0/FcDj0W7/i2jARwdoC5513Ll743d+NK6+8AocOPYKHHno4TBD8Z+kQrjc+/vGPxw//yA/j13/91/GkJz0RReFXxxTuAfM3HQHgF+HzS/sB/Nk73okjR46UOnL6KN/4dDUe9ahzyhvGfD7CizzI4KGHHsL555+Px198MS666CI8/vEX4wlPuBiXXnopnvKUp+DZz342XvrSl+JVr3oVnnLVU1CEPA5HQ9jCl4kxWfnlnc9//vN4//s/hAMHDvq3PhEAOBw8eBC/+Iu/iHPPOxdwBbJsELb5DQB/89L/+l9/i/e9769qbdyJlWbTIOd4S3+Q4eLHX4yzzz6nrAPnHAaZ3zWwrsCBAwfxuc99NuhM4C3/IAno0FanJSZPnov5T8s8cVPMI7ctbpt/ilTclF8bmxG3fBlFF2INvgmtiI4r/VN+iPhr5pHVJW6KtrjaXxILy+FJGVl5ftFoHbukkYqr/STGGCwNM3z843+D9XX/PVne3gUAIoO//bu/x+tf/3p8/etfL1ec3s+Ho7C9mWUZnv70p+M1r3mNv2ZHhCzcoOPgYIgwHue499578ZKXvAQufOeUy9ipLUQKK+a1tTW88pWvxIte9CLs2bPHG69ijMFg6K/5Whtu4PFxssxgOBxhfbyO++69D4ceOQRnHfbu3YOzzzkHw8EwXOOsv0i/qnc2ZIA3CH7aYcjgB37wxbj33nvham9t8mlfdukleOUrXoEnP/nJZZn7Z1qpvLZLxpQ7B4Vl487l7Z8JznO/1e63XXOMRiNY528mc+FmJTKEo0eO4o//+I/x5jf/CbLhUpgM+HpYXV3B2972Vpy6/2SQ84/jODgQ/ITmnnvuw+9ddx3+6vr3Y4kf7xFlL8sfoh9wvowxGGQG/+YXfgHf+73fG+q3qk/AYWzH+Oqtt+FHf/RHsby8Whr4skxddZ28Dd2GU3FYTxlHt6tp6ZJuF+aR2xa3zV+iw2pScbug00nJ1WE1qbiS6Hbxica0hbVVxPST52L+OxGi8Oq/MAD6/4ehMBgvhIGVwpYpibuCeSWa5zm+9KUv4cMf/nAoG38zjA3GxDn/zuLHPOZ8/Kt/9VNYW1srr5XWdAkDJA/YKysr+IM/+ANcf/31OH78OIqiwHA4ApF/3IRvovJvhvLnjh8/jiIvsH//flx4wYV47GMfi7POOhtwwPp4HQCJu3SrtB5++GEcPHTIp192dq7n+EBBkYmYDc/rAtX7nvPcr/Rs2E6G89ezi/Bcb1FYgPyLHyi873g08h9SAAjWAgQDYwbIxxY33ngTPvLRj5WP4zjnDfDx48fxgmtfEOI6+EmDf2MUQj3effdd+Kcv/RNGoxEgHvmSsEHS+ePjw4cP47av34bDhw+HtiKfLfavhzzvvPNwySWXVgOnb1ClnFmYNR62MO5uQLaFjSyLRcmeysjyYMNOk1JGx9UFlJKr0XF1QadkpfTQxGQvii5ySRiSWHiZ781Cl6NGl50Oq/1kPITrsaZ87o6Eq3Bi9caGkVdbfHPUww8/jA9+8IO4++67fRkGA2jDyyoA/9m2H3vpS3HppZdifX29lC11M+rZWWstXv/61+Pd7343Dh06BDIEFx7lcfCDO39YHSFf2cDrxEYu5KI0tHx9GfB3Ad9///34i7/4C3z2s5+FMQa28IayND5BBsviNlKdo3BN1xt8/45gXwYIW89FXviJAV/vFXbciUeMKGy182sQCf5GM6IM4/EYt9xyC/78z9+Fb3z9dpgsCx888AbaWotrrrkGS0tLpbzydYrkHwu6/fY7cMcdd9ZuCOOyl3XBbYbh37xzccsXv4i77r4LxviXhlTPFjsQ+W/5vvCFL8Ta2lqQXfUbli3bKjsNh5XlrXVjtPxYGKZruotCym2TrXXk8Pq89Jdytb90bXQN30SX/CISPhW3ScepjGxPz0agO0u4B3aisfpw9bAmvFTB8vttVUc2xuCWW27B+9///nKl6I135l/WENbMmcnwi7/4i2KlVsngzmTFXaiDgX886LWvfS3e+ta34stf+lKZno/sbSDnzfnR3Bs9Im8fw2sEs/DoDuDKm73uu/devP3tb8f73/9+HD16FET+mrPu01JXrXfNYoa3J9nwvVrHq0nePg8v53culEl4dSTCIzGyXL1cL/P4seP45Cc/jTe96Q/xiU98CsPhsHycx094ClxyySU479zzQOUrFMPdyORFPfjgQ/jc5z7nDbC62U2uZmMDmqyT4XCEL3/lK7jjjjv8uVpd+HSzLMMznnE1VlZWgkcll9sR11kXuMxnidszG7LMd0K590a2Z8vQs0Iiv5JzCB2oZg4ruGOxoYUadNngHTlyBH/zN3+Dz33ucyD1dR5jDDKTYX28jiuuuAI/8AM/4O/kFTsHTl3v5MGYb8x685vfjNe+9nV4//vfj3vvvTfEDaaoNAwu3GnLE4HwQA3nM6wmiyLHZz7zGbzpD/4A7373u3HkyJEQzr+0wVumCs7jRPn5X+Fu4mAYiVP1/1y4aYk/eEBBHt+wROJ1ic5av33s+AazAl/84i1429vfjuve8AZ88pOfDB8E8I9RUSiAY8eO4Tu+4zuwZ++e8g1Nviy8ATeZwQMPPICb+TOBIm8yP17XyWGqyqtvD4cOHsJXvvIVPPLII/552XB3tjG+bIfDIU49dT+e+tSn+kkXvyc5suKalp022O8mdlK5m0UoKWXM0lhnZZ6C1h0kJSvlB+Xflv82WV1YpCxJSv+U3zRonfm3Da/L4y1Mf4dOfcuYB12Ox6tYqHbHhnE0GuHrX/86PvjBD+GBBx+Cdf7mJC+CYOFf62etxb/4F/8Cj3vc46IrGpbtwjaqCTcora6u4lOf/jRe+7rX4XWv/1385V++G7d9/Rtw4fWHZAwc/I1FhbXICwtbPkrjDW/hHL54yy3472/5E7z2da/D+99/PY4eO4ZsOITJ/LdRrQ2rs/DeYF4Fy7JDKBPiFzxkmZ9Dk4EL31oFEfybGk34yLm/AcoFY+6/CGf84zPGAMY/0HP4yFF89Wtfwwc++CH8/ht/H//td/4b3vQHb8JXb7sNw9HQlzvBf8wBFiCH007bj6uuugp79+wN5WngnIF1BAeD42vruPWrX8Xd93yzitvQjjlfXAd8DDG5Go5GuOmmf8A9994LEIU8+48KEDIU1mHv3r147nOfi/F47PWEv/aMGdu1jsO6sdOk/FKyFs0iZXO9aP3bjncK85QVx6MrrrjCDzmJQtAJ6LDSn/10HEbHleg4qbBoCa/9Yjo2of21rFQ62q+LrC4sSk4MEoMZHy+CmM4yDSLCj/7oj9ZWpfyXiHDnnXfihhtuwCPhFYeslwuP3/hHXqqtxizz1wX37/crmDPPPLMmV/4GgJtvvhlf+MIXkKmXSKChDKRua2trOP300/G4xz0OF154IS644AKcd955OP3003HyySdjZWWlfGb14MGDuO+++3Dbbbfha1/7Gm677TZ8+ctfxpEjR8oXUQwGA1x99dW48MILayvsoigwGo3wrne9y9/oE/TiPBMRTj/9dDzlKU/BWWedVcsnh+NJAsSKWOaFw43HYxw/fhyHDh3CwYMHceedd+Kee+4B4K9x6nSl/L179+LZz342Tj311DKM5Pjx4/j85z+PW265pdyCh2gjcvXqxGqW61jWM0L6xhg897nPxdlnn13LM5G/uWwwGOCee+7B9ddfX27Vc3pSzqy0yWrzl3QJ24V55M4Ttys6rRQbpYfWoUs6Mu4JY2S7oNPVstrS0fElOnwqbAotRzOrXIS4bhOMrBEvq2cjuWfPHqyvr5cDIKmBf21trWZgoeRyPKk7b+9WNxhVcUx44cNoNIJzDseOHautElmG/M3Hll8TGAyLDXfrDodDnHbaaTjppJOwuupfmj8I7wDO8xzHjvnXDz744IM4cOAAbPgUnNTNOYelpSVQ5HV/RIT18KYqzq9Vr3Hk/EqjxHEL8WUgqr21qSoXG7bG19fXa3WUZVlNLqfNshAMoTGm/OIOy+S//JsnHf6ac3WXOOsr8wOhO+vL6UoDzN+y1TLyPC/Liictso4ZnaZGhtdh22S1+Uu6hO3CPHLnidsVnVaKjdJD69AlnVo76Y3sJDpdLWuadEgMxhJ9rNOaFi1HM6tchLhuE4yshMIgOxj47VvZjtiPw2m9pFw5eHJcjs+Drw4vV8BsYDkcG0+OL9PTYfg3n7fik3qcFj97yo+scH5lnjmsTkfmgScO0thBlBdF3golddV5YTg8/2YZeXj3L8vldFkehJ6yLBmpI8MyoMpUwmmyzrKcdLqcJxkXwuizvvL5Xy4XHacJnQcZPuWHKfwlXcJ2YR6588Ttik4rxUbpoXXokk6tTTUZWZ2ARIfVcMONhdPnUul0JdXgu9Cmo/ZPkYqb8ouhw0va4m4Vsh3oNhHLT8y/KX4KGZfUpEEj/Vk+n+O/04TVxHSVemn58pwOy8f6NxsdfV4idYbYQeDfUnedj5TclP5N4VPI8DrsNLJ0+nwuVkbsJ49j6HQXRSrNrmyUjphSTy7btrApf50HF+lj0k+i43ZBy9Jo2bLt6Lg6LDN5294UCafgwunp6UqskcpzMf8UHJ5XmTwYxKCGbVPdlmOdTIbR4TVaBx1e51cf6986P/oYSmd5rH/HkP1Zh5VlIP25rDeTVHoy31uhW89k25mWWeNtJ6JGtqdnOzDPYNgUN3ZeduSYv6QtrDy3GQMEJSYOjNaZDY02kjGI71Zu+DD3TqYt7z09i2B39ZqeXYVegXRBxpUGRd70I2H5bQYLLWFlupvBNEYWSmcuE3m+CReuBbPbbbTlv6dnXsoPBKQam+7EOqz0135taNkSOTBQw12WTWg9eHBpGiD18UYR02sav92Ark+d3y60ydLHEh1Xk4obCy/RcdvCt6HlNZFKp63tyzR0mczS51iGjhujSSd93FYOMrwOq2XNw6Jkt8nR/im6xtXhJTpuKqxGtzNNF1maVP2m0GG1Dtq/C1qWRMrtV7IzwA0p1aB6tjfcQfr6q7ORbZuC8WXX0zMtG9UmN4PeyM7ATq7wntlnxVvJZhoo2b43M92enhgbOfHbDE5II9sPFlvDdin3zdJjEelIGVtl7KZNV/vr46bBUofbKcyj9zxx52EnpjtP3O1A+ZxsCs4kd4xUpttmGl3ipsJKYnq1yWrzT9FlgEilk/LbSlJ6pfy6ciLIkkjjQlMYLclG6dQVF3lWdyNoy2/KP+U3DbKOpqFr+FmYN0/Tkkon5deVRcpK0TUdHV6i4+qwTWU11Up2MxrRPFDHAWteOL3NTLNna+jruKenZx6mMrLYpoZWzyR6ehZBP4nq6elZFFMbWQij5iLXVZhZB6aYLI1MV+oS8+9CV51jekzLrPG2Cl02+ljTpWzaZM3KRslNofMdy/s8xnuWOBuB1GManVLlsUjmSUfHnSZfkq7hGZ1uF+aJOy06X/q4DamjdpqUXxta9jyyUrTJbvKb6jnZNroWfgxOPyWri44pOfOi9eiSlo4r6SJnuxLLH+fLbeA1vK2CNvDZwJ2OLpMuZdElrg6r6RI3FXaRbFW6i0bmQ+dB51HSFlb7p9BxU3SRq9HpaFlN/p1WshsJzTjD7+np2Tx4QqEHlJ4TD9kW+vbQzJYb2b5yenp2Jn3f3Tq2g3HbyrR3EgvZLpa0rUZ1Ojq89Nd+mpSslF8bOm4bs6bbJexOZbPy2JZOql21xd2OLFLnVNlsFV3y1yVsV6jllZSzMo3Oi0pznvrtElfnKUWbrC7odKVs7afResyT36bwC1/J6oS7ME/cnp4m+nY1PX1Z7W7mqd954u5EFpXfhRvZnp6enp7tA/WvxtxSeiPb09PTs4vpDezWMtVrFTWLrKwuS/KNTLeL7K5xXeKajj7eCUiddVno40Xmr6kMdyq0Qdf7NJuVjpTPaW4GOp2u+ZN6LzIPOm5XvaZls9JpQ6cr9dpIHbVsTSotHTcVdlb6lWxPZ3jA1g20p6fnxEWOC/3YUNEb2Z5O9B2pp6cnRj82xOmN7Jx02V7QYfVxT5q+vLY3O7V+dqreO4kTuYzL52S7oGcpsgBTfl2ZR5aOK8/F5MTOMVpWKuxmsVU6bWS6tEnXDjeSVPmk/LYrW6Vzl3R1WE0qbhta9jyytgqdB4R8cH9Lof23Q3vW6XahTUcp26nPOhqTXpNqvThuOlZPT09PT0/PzPRGtqenp6enZ4OIvlaxy5K6jY2U1SVuGxspuwmdJuaoh0WG1aTKoqusaZDbNFvBospKx+1ajilZ89BVbtfwi0CXVVu6OrykS1wdtqvcaWVpP02XsG3E8jCtzFjcaYjJT8mKhU+RktUFnW5KbpewkuhKdtrI2xlSbznRLsVW5b9rutPmR9M1Hc2s6U7LRsmdha5l1VY2TX46HX28UUyTTluetgNSR+1StOU/JUvH1ccp5g3rOtzFq/Og85FiljiI6KyP56WLXrOG1W5Woka2Z3OQHWXRjbCnp2dn0WUsWMTg37M59Ea2p6enZ4uZxrD27Eyi12TRsmWXCpvya0PH1WhZqfBtYbW/RIfVdMlvm/9uR+Z/J+a9a/1tVn61XpJFpesi18Z1utp/kUjZ1tpGv61Cl0UbXcaNLsh6itVZKl19rONuFqQe39N+XdAyusafFZ0u069kezaNpka4W9mq/M6T7jxxFw0PuttJp53ITi/Hnao3s62NLC3ownNPz25jt/cNaRh2+iC71fTluLX0RranZwfS942eWegN7eZTe61iUwXoTtwULoaOm6KL3BgyLS0rpYcO25WU7HnQes2TThdZXcJ2geWyYdDpaLT/ovTowiJ1aJOl/eehS1/Q/hIddreh8z5NfmU7TqFla7rUUQonVqnct2alix7aT8fVxym0rBRabiquLhtN7FwTXdNltvVKdpFwYctC79l4+jLvaWKj2kbf1zeHvpynozeyPRuKMaZ0qZlfz4mHbBuLpO/rm0NfztMx0brn3W7YCej86eMuzBN3q9hMna21pduJHXEzy+pEQ7aNRbIZdTZvGvPG1yxa3m5iq8tm4Z+664qWJWmTq+OmwncJOw86Hc1GpbtIdB666DxPXI2WJekqV4ZPye2KNhApvVJ+iOjVFl4i9aAFTpTn0Wkn0DV/G9WOdiO6fNrKtg2W10VOVx2sta1hpoXlTKxke3p2I24TtrUW1Tl7ti+b0Y56to6N6MO9ke3ZtvCKbN6VmRwYFz04LkK/RbCosupJs5FtqWf7sMj6pSuuuKImqamDxhJsCquRcXWcmNxmBrUjGZMAQMpWcruE1Qxccz4teVeSSBec9pQkdW5hUDg4IlhypX7kOH0Lh+mvg+k6k3mUPuRUWYCUyi5SIpLEnM9ROipl+kxJUxvzuhFAufaqiEdtpN7Wa14T5IZg4GCcLzvA+RIiBwfyeZ6CifqRehABIDiqyjazRRVQEylmmaeBrHHHGgeIJuJuHKmU6uVBzk22RaF7vZjrcR18u/JnHQBbtn/dJHU9NLe7yfrCRNuJh2lis+I25QmRuDpsm38TMp5reYUkn5+WeeOnYNmlkWXBFJkJNyXKYZv8EYk7rewYmW0eSAlU7x+u1v1rEBAGn4AeLBTWTFYEY8ADZJwu+dPUGj8IlNBDU8DBGkJhgDzkzTggc4BxDiSMbFud1Pydq40sxOUJX45FljCUZP0g1YSrT6IkEznX9Zswsk31W7XfZqMzkW4KlU5bmxwPfF0MrK8bgkVBQGEAcgSqz1iS6IGo/A0CyMAJ/8xOlgWjDYdmoKqv1laIpp0XBFzXEi7RbVSi2zNZ59upqVqr45VKi84k9POxHeD8TXxOT7AjyHFV01Rn2q+NzYqrw2p0XB0+lV+NUwa0SbY+L/2mhWXoNDVarg7b5L/tjKw81mFBzYMhOlZil7AuYdyq1WGcNtlJZNxIvaQo4OBMWMk6PxkwLgzmztSm71qu1rnm7+pGFqjnfzxIGDu44JpoNtCEHISq/rWOziTS1WHDXwK334Rxb6lficNkWql2VmSyTvwK1hJQEJDZtDHU1NJBXY+ys4fyH9NS6deVyQmlym+itOoGycE51s1PPlJx6/i4TfjsClnWV6IhCud5uzccJvrVyK5xoCBSvMieaGLypscvOa4aY6q4us4S7aaNzYqrw2p0XB0+lV+N642sh8M2+SMSNyW7Law1KSNb3w7SsjT1Cgf0YCFZLpoLvjBA3mwbWvVIIxpZ/bCV0dg3GM5aRhRWS8A6AeMpGjBT83fKyIqVjwOAlLGbi6K2+tY6IjER0gXn4/ryISI422xk0WJka6ugiZUsaoZD60zlQtf/3wGwRLAEGGdhOjzaUmvPoZoIDgQHE3QyofyOZ81Gttq6jjOx6hPH1BK31k+4LIjqv6dB72IoCHVZFCYrZX3DwfEEhlBb5WuWirXQxk25K2C5C4QyZibrt25kuY74b5exL8VmxdVhNTquDl9roy2y3G40sl3QwlPohFPEwsrZ36pbgrO2bNY1LVoyPIH2T+Qpz+p+MqgJW30lLQNAF5LlrNLhkC7EGw8IsA4uXPMD/EzeOYeCLJzxZRpLQ5edPDbBbDiE7TdjUFgL6yxMZpDVLm+KNGjyGiMFfaoOU/Ou4wjEK13nVxHKe3pUAyK1QyKzPyG29AyTOsN5KAOUQSdWZqpcM1g/cIfpg7UAUQaA4IzzjUuUU1ecc4DzhpbEznWBAmSMnxQ478e0GUqdJUmbgR4PhEGFN3YJcTVIXFP27UocapRQU4TA8nw45ai+U+XUo1AGBnn5WIeftpAxsM6BXNWnZBz5O1Vv/LiI7IdEhKIoQBGjPC06vNRB9jeEsDJ86lEwnRedjib1OEzTeUanVRuDjCmfu4/JIbVrEMsD502no2nzT1HW33YysjG4IKy1WM+GMKFD6MKbJOXXjbxmRVVHsv66mvAVvydXNrqnp0rHTAwsquGJ32z6XNCvMGGbzDkQGTgCclcAxmDJOSzlzY10Ih3ZwIOpc/AGJncWNMiQFwUcgJGbuGgHEO8yEJzepg6TBa9Lc2mQG3hHBOt8viQusZswgR4szHrtWNdmvYR8OYN1Hg58+YRVbK2sWlbB5IpwDdT4knUGVBCMI7gBoTDVCzxi9SSR6ZYhieDIl7kLzQEARrTujUlkoOFJ1Ew4vskoTpFRLd1OJOQ6KH+q58HoPinDmjABDMjBm4iwZofIjG/x5BysLTDITJgiILTp6epI44IR4LdeSaPLOsi/TNd0NotauQak7l301rJicbns+IUmg4HfkbLWJo1sTFYMrUNXOJ1tbWSJqP6w/6hAUfhVB7W9iq0tXZ2HRPjl9Wa/PAPGUhXVwVvT0f4SEdapYz1QkTBYRISV4wUMCM46WGdhM4NiaDAmB4MBMps1NjhdZ/K1d8b50dqGG6tyW4AGGQp4Y5pnx2pxazhC6rpr8pq7NaBwp6dPqn5TkUXiDmGF8xaxJBO7xS6s7hht90Mxl2WNge/MbGQnbpRpbjpwlMORgYMBWYPMZhi5DIM8TCRMpUvbqwdrOsP6qQAZOBqgQIYcGfKwcbyE8JYloomVmOPyaUDNN+tE2pLGOT/zIGGmpiFl+h0ifUXIlkZ24mY0bpb82/k65H5RuAxEQIYCxuYwdowMFgb+noeCQv1zHxTofiT9ebXKRoKNAomJD0VWtYjI1ci24lpWrtp/HmL553Nd00jlQcpFKMvBwE92tQ4p2sJ31VnDsredkZXh5baAMQbPX3dYWVlBlmVh1tc88HgV4w3TeyXyoLZi86FeUVZHAwdkopc6Zyfs6CIgQi2/uuGFk6WRtRnBGG9kC2eRDwyOocCB9aO4/fgYBwdLjY1My5XHgzBkWTgUBCAjHBuPcdIpJ+OU007FkRVhZMOEw4Vy8WvgyTqpBpaEkYWFIT8AWo4nfZPX6+sYqg+0zo7EwWRbkel4Lz+hMETlpYRYffg7uWunaoyzcbmKzdwA2ZjwyL0P4/iBo1gxQ78SDmVTm2y24E2pQ+EMCsqw55QzQEt7YM0QoAzOVkbLhWvTjIO+QamOvrtY4pDetidxzTplNGPU26kr2wDK+qn8dd9PdUjn/ISR8W2DKmM8HgM2B4p1HHn4PgxRwBTrMDb3E9fMT1YxoeNkP5L+vr37ce3UU0+FCe/2zrIMRVEgyzIQEfI8n5Dbhg6v9UihJ3N6+1jSJrfq15PhYuckuqwkXG7OORRFgfF4jPvvvx9ZFh63Sqye2a/JX9KmYxssO/paRS1cKxLzb1K8LS5EmBwWA5ejwAqygpCZB5G7U3D7aoZ3HjuIx5/7GBAZP/sOHcKGrWTfN5oLLLWNBdRvfrDWhSHDkyWMuUbrIDsw+DoeHymVvIppPUtockauKeuDAxJhPF7Hhx4+gDevH8H92TL2HxtiLVvHsVGO1XyIcbaCgVtrrM+xcVguAOMGWDMWq0cO45bvPBUXfesFGK0WsPkSHBzycY7h0C8RKcz2SeoCQK+Z5MCpkbo4Z0GmvrFZb1f1iZDGZ6e5jcpjP2lyQFh5VXeosn+9nLQsibXVqsQ5wJocDgOsjh0OL61jlANHjxoc+ejdOOnTDwGj6gallFyEwbDqR4DJBjDjHOtX/BBWz74Eh7GM08Z34sjqWcjGazp6DVmWE6m26FGrBzVZrY0L/oTwTRMbNyQpnfWuVy1siw6EY8ixF8YNgINfxUNfvB571+/FqHDh0Sgdo8LXc5WWE5PaoiiwZ88eXH755TjllFPK8BxOGztJW1lIuH1W7a7aoo6hZevyqfeNbnog0keaZOgw7LQf/7799tvx2c9+FsvLy41p6fqI0eYv0WXTFDc766yzfkWf1GhhGu2vM9YGh7FwMLBwGMI4gqFjQLYHhwaEf/+os4DCG1PeAnW2KnjnUA6IURdWxE3Oit8E1CfCbXHli87DSqiS2xzXBv3rx83hJ5wVLuLHuwAu5I9nyA+NlvHZYh2HHLCaD2AHQD6wGOQGuTXIwg03jKxDC+fvx3GEghyG6+s49YVXAnsdxvkxOJvB2WqriydB1ha1crK2qr9SR1XO1vkbqqwTLwDg1ZDKr447swvXVdlVdVSv18o/5IX/RcKwQzCGeVH4vKOAdYRBbrFmCmTWYrR0ElYfItivPgyYakt/2n5E5G9GAwgroyGy867C2KwiN0PssYdxBCOYIp/QraandKoz2KLw/SHiJmc29W15iZuiXzXqFHMSPfipdLSfb4vBBXlV+HXkdogit1jCUeDI3cDRhzAE/KWPRLXE0uR6LIoC5557Lk4//XQ/bkTiSFfrNxH/lNNyZVpanj7WfvPoIR1CX2A5WrbWmcNAlCGfy/McKysruPPOO+Ei/UWmOU0/mpZpZcWnM1uIvlkkA8HmOTIHAGEFEAY/KwZiX4jU6Fy4uTXuVFg9WFK4gSTq4G+eCK6AQ+EqV9fD56FKB7WwjtrSEi4YTnZ+MKtkl36hnBAmD9Y6wFoMyQRj6Y2DDdFZyyaICIYMDBmQ8YZ0MBiCQMjCFg7CvSQmy/y1N27gYe0pS6NGvRrKdAz5rbSyowWDVzPCCcEUdjnKzqfDyLgONbm8/c+GXbY56/zqkcL2YrnFGJyD0jEoUw0CUhHf1nw+AVt42VmWYTDwN3ylkAOLc+Gu/DABM1l1J3HTCqaE/N2z7Kx1YYLknSxH7YCQOLc3JStpGFuQctpcyGxzOsqvlg8dNjAcDmGtLW+8LBvLFDTVHYXLALxVLMecmNGZl9qYJspFn9f+jM5HW3ipv/TXedNO51/Kd84hz/Py3hzuH3xpUfYVjqP1npZo+56Blh7XnXmUqQ055Du8LQoMYTByBsb462CG/PVGbpzc1v1g2uQmB4XK1cPWR91J/3RY7ZQOMrTSS8ZHJK1auiqdoEwJnzchTRuMKYUbQbJgl1wwvOw3aHnO1YnOhWAM8tzfdGRMmNmHiZAhnulHBrNQNpLKVPl/5eoQzpcYl4shUDC80X/1KgnjqRgMgjivm0qXxDFxOuHchP6cAW6Ak3mQYdnQ+nbLWarS8YZRhvEDb577lWeKShcAwbg7LnPRmAqrJiQT+akPcCQmVbW73UPcmiyF36ngiYpOVzlG/w5OD8Ta1dLRRaXTSqUrO1koD5BfeWZZhizcJefvMZACJjHiO8r1+vFYazEcDsuJjwwj64TbgTQ22j/lpA7SsRzWM+Z0HO3fFLZJR32e4zXJicXJsqwMxwZ5MBhgPB6XYSUyna5oPWbByIqblqZCMJFZsmwcTizldXyEa6x84wGMuN6RFxiF+YALjd7H8/JMZsQMM87k6lU4FZZVYOfYuMC/FFA6PxlIuBrSbHjTIcOW54mNYj1t6XwZCB1dfUDzRehfxejrJgy2CM/2Fg5UhBlyeIyBgPjMP4JzDmR82VPY/rJh4HHOYcA3p5UGI9yoYG3pdLsr2wm/KEL8A7xx5EmDbjtSlgMihq4qK1DwJ28k6m00CPFePnxZkXWdvCYoDT6UMffp+VCGCJnJavrrlVZhqyv4lfGI35wm4bLgdEs9Q978tW4v2Wdf56AmrZSXStfLV5J0eOWf+seV439H4gqdiCfawsVkSZlN/ybS5ToJjouOy9cWhS/j0HYg2q1Gn5PlyfmQdSzbjgwDYbBjxsKJlZ9Ok/0h5HH8Jr0hdJU6xRzjRDvl81JneZ4p67LBsEpiebDWlitahFWtThuqL2l0frQOsbx2ZdIqbgPY+AH+5iAT3rk7D6GvRF0b0iBHRqVJoy3Dt6DDO9GgJvxa5bKCjQEAhPIMCwuEdBh9M1YMIv8/3/i0Z7gr3MnSrRKYTsMNoDboJmBb4fwK3+ejmfqUqR7WAeVA7Z0eoCrDNE8n1gOBHySq8+Vv628Ya6VSWPu0s1EVXNMprVdonqWbC2KDExt8q0G/a/1JWdIANBmZjaDJkMjzi6ItT1KHtnTlxCS1sNvMskwxqeEWEhvgSRiFeeCuGXNtA4IOr6/JTvhL2S3U9QijQri+q2Wl5HKDmqZhUah4Lu+YvDYoNHYdm8Jg5DuCP+egDUDQsUXPhSIGaa9L2DbWHToY11Lfum83SjsVzHDN4IqBh/WZA18XHgptEuCX4sPnZFpjwHXTsX58FL9rQaRfATEnNZ3Skrla2c2Db6tVUVTtwp/QhmlapKGgyCp2o9DpaL35eCP0mHp86uAf01OW53agNLK68LvQJW4qLL8f1KGAQ+63Y5HBEaHAuN5xJqPXEf6OX5Df4BDeiNPkTFhN82vjyPm3v3gn0oygZUmHiGw4578a0iK3O1SOTZxbawBLFgTnv8zjACveMoRIg89ceL+uATIY5BmhyAhD619sj/JFgdVQaBC29Fo6T7n9F4aw0N1LOUF8cL4hlGmF7FFIT+rgXZU2UblZGH7rsEGODKccK+LfgMU6Uy3/VYMN9apluyUQxv61YW7JP0ds1uDIArwFPQvW3ylrw2sT4BwGyGEIKFpejeUNSn0w5NbgQnmBfAtqs2Cx9p6C2zypmx8xUfbh5kdX7SE0hdVy4ngZ5ZYxfEH4/JN/S5mrJBJlYRIxnfQ2ZHnLcpekxs1UvCY4vFMrPvl3GnlSJ70iTyHzI3VoiifP829ZFrExS+rSJFeTKmeNzkMTpkmBtkw3oTMu5WhZk4oFI+tyWFeEF3EPYAnIaVzrsjqmxpX/8z/IUaMDqu/CxhyV3WvSQLeVjpYlHYRcKZt/d6Mqm+YhzSdKzv+0xqEgB3I2bMf79xqXoSN1Tw4oYFGEb4vmmX+F47DwX/4h5+vVhJdW1IybaldauiyLCQMlsuTC+XJQpkljKCnPOwqTJKmTDp3ulJWsyM6LPMcdPBzKsKX8YgSiPLyhaeTbP60Dxj/MxmGnpZRrC8BaWDIoHIGcw8AVIGdbjSyXd3Q268K1yDKoKoBY3NpxM2VdiuOm+qwTq8EZKRMPP6jaEvDqU3hO3/fS2MAu0WPhvKQGdNmvUuHaiMWR/SHVN2JxFwHL5XRl3uQ5GT6mc5PeTX6Lyk9Lj+vpWRxOjcG6CcvBYZYG7uVPxvXneBAVq5UZcC6Ylkin3C5Ug0b4u0BV/V21TJtgscW7wPIiArKGm4BmI+xB+IoNZ3xedyJtRkVCwijL37F+1IZMr2vc3UxvZHs2D8f/YzfpHfeZkuTgEFa/i7A5aha9fYmVw5w4+Lu/p8i/HOzbws6ECy+ZmSOfbP990wx3hMPncQ6xOwauFzay8yBlxfvgiUnjIzx6RjPt7EZWVGxmlOp4vmH7kZDIP5/HI6IJ10Cqf2mo/B/PU3tKJq67TV8+PrQfieQNTZCDalhB6fqdGLXSTcm3A6+sPxbL4NrAWurQkC7nUZwm1OXVXJJEedUaXVUOfD261nJDHpzjC5ANMqdkIs9AeNc1l2HQKRIujSw01r06lcS5EDi4cC03dh3VI9pTWUzxMUdK7orUwZU3uvnHp6qkfLsr681Uowjr01aW7M/jXopYu5V5J/EsKfvxNVDtWJaWx3KkXhzeqA8UNMnQOulwWk9JqtzYj5Fy9SM+0n8adPlIJ/3RkKd5mSyJ7YTMI0VcCh23Z3G0licPY2HUEsaLB8Z6l/JUZkgY1vBHxvNyKxmlLIKPF+scQo7MwITcNkTbi4bX7Y71ITZ03ovzIIMuDKJasiAu2+4IlWeKHy1cnfkoidQcyvbkB8JE2CZ08uq4JjWUH7crHXUa2gbsNn9tGBDixOLFwm41Upc2vdr8u7BIWbOyvY1sz46j1sGdqz/SoWeJenzgkU2f59OpuD0nDN5mV3ednwjIFzu0XYuWfXA7GBmoCcF20Wmz6I1sz0LxA2A126+97k4ZyolhQq56dUdUBnoibs+JhQuGtmE1t9vgtxbpx2R2Wt5PNAMLiEd4pNPoWdRGQZjUhbWpz8wmN78c/HOaTa4+u6tFbUXLki717c02bJCRh2+zapeC4za5GARvrBwIBQiFo/AJBgNyBOMImRVfMI/hhr60zWH/2+4BaA3IjgB2tWZk9SsorRNfQ+LBQjq5x6naIWkD3dJmU5TXBEXcUheNXhVEgswKZesg4g8eEIABAIOCX3fZAakjWQcTVC0IsIbKdjpYwPSE+Npqy9231bOsvqzBzwoTAeERmNJ5j9LJOmpsC/Ayo/XWRpBJfhD0Y5sYbxhnh0G/43BuDGcHIDcKzxil8w9hVPhvE9qAQrR3+Vu3dddwHVW6su1GqNVBQxhGy2VdmuJq2bG8sZPXXfn6cJMceY5/y7xKdDqaNn+JDptykqksZiyTPT3z02xUNX5QF+1QB0jBA3HpdICejcBXqzdcetwgqC/rpKt/YTjU28OJ0hT0wN+zefRGtmcLCQaPXQrdBtvCC/Qssx9vNgfeb+IJksQhfOeVXYf67OkGG9h+/N4apjKyW0Zje4jNQHfyyLk5updlJpMr7yGiKfUQYfyyoCZXLkyJRdZEi0sAZewGKytXnzFRKYRYPUmURnoamckwU7yZqDyv0m1i3lXHnNFryJpx0Iq3JFRuK0/WL4V8lq7mW6u+WMuYmbZ047hyElDWjSv/NxPz1nEXNjOtRbMbJgWlkdUrVT37Z2iKZ19TrgvldRnVUKIzMir/N+m3weiy60rHYonibdEUejhXlhOVgwwJw9imTCXb8eDj/N/4NXXxj3w64DoqHxGNtI3yA+nhup7OUpuatSFaW36vOxAKn6qPi09UhoxH5YxEIHWb8CwnCHCcYjVpcL7QQn1RWbax+x5kncp6ZlfvY1zIVfxpkaXmIPQPv6sWE81tDef8KlW2uelRW/xbTK1fEVCv92bkuKc/CsD1rM9zPCkjhW4LMQchR59PEZMj/SDyqMPqu6DrbbSOjsvnmmiSgwZZjNShKX4TWq52TUz25h2Kz2S9MdXhYSHmNx/SkGwVfvyfTQ/nXPjAtmu9mcWH9WGajEHltG8dbw+qjq+p15hq0JHwjBcrO5MOsTh8q+OJQLrs5EcS+Ks5XeuqZytYTBvi9qgH5lkG/K1C697ETsnPZjA5Su5gqnqfrOB5ZjBpwttggts65tHD7xlMZxir8nN2MjDbP+fEarEJCiYmluhEfdW/lJTCdTT28yC/1NOGHlgRSl7+3Wp8SYvJzTQZ28UsctyQ8XVb0G4nshvysBFEX6uYKiAdls/F5CyeqvvHNKyrXQ+hP3ouB+zmj6DPQl2Y/JSddvMkS1o2qi/DULj0p/NXlV6Vtq+yYCbIb4em69MByAA3gsMYZNb8oyduBIc8srMqNakgNrDyHP9gKy2E+T91o5umSl2njVha0nVFquJYZpWsC/kt4XxgIBpfrcaqsFMQ668+K93zM6lFXW+Ur0ZU4UKVTOSgrL9JHVOU7XEBTOjaBX5Mx/nHq/xxUWV4g0j3wTqpso35pWTKdHW4lBHVYXV8HR6RPGoZbTSFj6W1CFJyU37lSrap8BDJTJfCXiShv/q+p9RUWkx0JwtXd+KTc/NprBulKquUmyNh/Smw+jduq/xpStMW6q2sr2AUtenT9el4gHEjP+CYdRAykFvyRlb+m5jNVLc5ycG6XrG6BAO6zem8sUFhV2Zzso3qtKSbBaqlI6698u9Qhl5vka7NwvOxfMZOrUVT/5PMsjr2bWDSsV+JLGu4ekjRZupl0wGu4q7xYkzo2oUcAOAc15UNhjbM1jcB3QdjyPYwTdtAQxxN7BzDfm36xWQ0xeHzKZ2QiI9Z29uU6PKaJq1dtV3cs/n4yUU1zNYoDTf7TYRYGLFGT+Hl/AsZqBuQ43ei3/d0pNamNrD+eno2mt7I9syJXx14W1YfDGnC+NW8F4rcTXBhhHb8pZJwk9HGwKuj3sIuFl+mrmEl1NOzUyhfq6gHqdqApYj5T9sRYnFLP74t3vkbcTSpVUOIBpS6TKfPbiJWLlGCAfLGkWoGwkUeyZqsL14p8h3GPoydqM8gObSNJt0o3EA0gQuvX7Sq0nVDcI5Nuqj3hsQakBOCsjHFFBbnq+vY7Hxe5Xl5bbHW3p2fmEBMPtjXiUdlGNm/dJ3EnE/Wp+1Cf/J+NbGTdVT3rk0feLOfEMKzg3q9YakrlwHH9v5SZpKpAlXV7uVGRg6t61zM92GCWhsQ6PrTfbALWlatXYSnAlim9tfpSn11WPZr0lGHTaUj48dkSWR4liXlav0kWg/NtH5t/hB6LnQl21Y408HXsfR5hJPsYjSdn4THhEhZ7XDaM1QOdu1BpyDUeUyWYyNpYW1DvYXVZlEU9dPcaMORjilbgkM10AYL4AN1bI8+NEXTk5R+TeLleV08NcFsgLRJ7Y7u9L4ohNS4Av6Mc3DOhseQ1EAi5ZaFXS9unV3tdNzqRAtsoFsbKqfkomKj+mwhuq52CiS+FRt7fG9etLHdahZVT4svqR0D9/rFFGRPhPLF3wbGpK+N9rWwdfjnd30dGVO9mCP6co5No5oiLGqw65kPFybE7BaJE6vbjaxvuXLeLIN+whrZzS7oExKxLT2xKmKIYEyGQdby9Z+eDcP5ivI7O7bafaje1rT5cL/cyAG3pzsbNW6ykeXfG8W2MrJamTYnkdtN7FduP7XB8hL5J/KfpYrBs63NWhsZB2QJNw9alnSx3BNfhxNxCfVHhSz5lUv4wJ0/F0rLElBEWoSs58IMMHA5MjqM49kSBmv7MMQ6jqwcxlK+VHsVon9cCijgAEP+iQcXPncm5Ds4WBc+gcf+5FdUpvxKi1gJt7Q/hPw43m6matuxlC+OObzX25Ytx4UwkrLtle1M4PxL721ReCeNlHM+VVZVfoIs1Bu3+1hfkX2K/WTeZRk4AiwRAIfM+c/bZSGsVS8q8WURZKi6Lh2H1f081F35m/Uyxr8QRVVLqatIs5FIHhsJEzgChw3lBF/OE64Duhx8fU3qpOuriab86HqV8tpkx9oGgpy2bd1a/iJ6aXRasXR1WETS0XHl5+34d5NcqDJxDavgWH50uvOgZXF6+ny6Bnp6OqI7U82vHATDawXnaeQL7CxdKG+sCYOuRuY75l+DJ0Xlin/n43iQsW6u6p0bYRS1OxGQA/5GcSKW6yz0RrZnA0l0vMgssysk3KbhxN3FehJBYXCPTDBiVGHSN1rtNFzkTvPNhMI62UHUV1lvW6fXZiHb3kYaP3kTVNuKWZOajO82upXMFOgC25hKFncg1/rNlgy7O555S8uJevcrPf7nhfOA5/jaLIePdK7JMwJZ396i6RAlTS2h7ZjPxeJOIh5dcX7l5uM0DR7h7tfgCDWbrdry/JSiFihzEpFHubqfpt9PX9C1qo+5GmLyUkuDMFVisjpQZiU+Eaq1523CZqxiEeQ7cTNUjHg/8MxjZGWcpt+x481Cpht9d/EsSDmxwpPnYv4lLCehkk/L6uF81ssurXDevNO+OxCxPUnEBee9KHK9RLpYvThnYYyBtTasIur/vDEKYcO1zyZZjRXolPl2zg98sfZb5qmS5VCdK+sxlg7T5FeT6dPmQca3yXj6tTjhn1/thedlhW8M3W9SfQsArPPb8c42y5yXULPR38bwFf8UHKtqf404tSKVTsNtO/pvClx4b3bZtuL9nk9Fx7Ep4HhOXFPkY/6rf8fau24L7K/bhZQfkzMNUhY/bytlS+TzuBrZb3zfqecvJTdGW36a/NvS7VpWXC6Sha9ke3pSiGF1Lhzb6Ck74UZB5A1plwGBIXAcjm9giG/y0qF3F25igNMhWlhUQ+rp2WB6I9uzabBRqZwO0YVqFdPVuC0UEqujznrwDDlsN8uVeVejsxNxidVoCgKI/PPX3ukAPT3bh6iRjQ1aqWWzPlefodZdK2HwJRJfcKlNW5tcTcjEufpn5vzjK+zaNpFShmHiQzMdHCb0qjsdXrsUPHYD1eDvD51/lCbkw4nHfCikm8LAwhLBuREG1sJm63A0xHA8gB3kE7XCKXOxdckDD8A+bqSOpIHTiLgTYXilyEZ6Qt92udI4lI8YhXO150sdx6n0LcuCgziUBrYslUYFPLpfyf5VlWu1ImY/IvH1oxBEUqubiA4+OyE97dlCTTa4HhouD2hqYSeVlrK76jUBkZfC7QQAkZTuH3pjtaca12S5cT0lxsT6mFPPrz6OnWuSi4ge09KUhj4/DTqOPk7pGDvXhpbfRCrdNprilka2qUIxRaak4LawKSpzV+ngwM8Rph1qlV5GL6Gac7Vvr0aCT40Lz5fO4jChV93p8DpuGr4Wx4FdcOEXhedW+QSn6+ptQTuDwuuAEQauQGHGcDTAYDyEzfxnwWo4HgErAzTViw5Kr4bMUmgtscpuWQhy+TYhRcbkcEn6bFXP9ZZ+3B+cP8OlLsM1px/KOhGCiXVony6nxSdrQcq68ETSkX4x74jIqeB0nZfA9dBWH1DhCFpWxH8OvHwhLzxo7stT1v7sNNUdNbzxKDU+M9ovJqcr06SLSNrToMeWLjKqsT4eJyZPH/O5adPvEhYifHQlu+txVSOPNfaejUEOT60lTuF/YYE4RYypcS4YPjZ4HTtPDW2sxEPpWmedbgq5dbyd2idRWI1TfNDaCnS72j6lNTsbWfczt/WemTgxjSywy7rkzoCUS8EDua+e7luTrYiZ8DwTLmlQOS6fi8pqmYGXRKJuG2iaGuxZFNF2NCNzTSh7ZqI0srMOMhAVp48XUYm8bWbDG2Sk01SDG2qj1ERY8nL5327F503WqR8cZ6njJrjMy9eiaUdqW9cvgeIDtYhX6kj+fxyaayycDlTXQykkwZSGzx+UjaEsgVKPSp+JfiDzo/XgNhd+U8hbvP1XaaBMmnxxiLQ5aFs/avLz54KWRPVVsQ9QFZLMZwTn/BSH/0Fs8wK+fv3ZKSZCqbpvQerg06vSrHKrSzjQRUeFgx93uB8RT8qCpFj5NyHrUzuEPiT/Sj85PmunKdt8JK5Gy0o5GWcWtDztoPKcQoYriqKUEXscKIUOq+tFOh1Wo8Mz0ZVsTMCWUepadS0xRJbUq8WpsWMyvOyR7VW6QyHOeiT/GwC/93eihqYsYB23lCHjl7/FSXVOxneQhqvuXyLaAlDdGDQhpzxXNRoZrma85O/Sv9KV5fjDjWqEkcGg6WYwyYQBFgUkxfnCFWHSyGJuD62oVUBIU2WtFRlXnKoNnjXfKo4uxpiseZjGsMyCljvRHjrQZFymYdZ4XWFjuJ2IGtmenmnRs7vaTK7jwDFP3LAc9INhpJNJQ9tR8o7E14c+Oz3kTUv5O2YYXQijz/f0bCax1eN2ojeyPXMjZ461LZOOw++8cT2Tq5HyuHwcaHfj6yOYQOc6Lbi4/B1CvJYtMh+s/sainQSBJ2hhm18H6NkxbNc2GH2ERyuq/VKrl65xk5TjprxjM44fD6TcuuyCml3bIzFSz5TKKb8YNqKLdCna4pblVV7vC8fO+c/cWReeEQ7P+oZyiH3qTkIoYJyFsUOQHSEjC0PrIJcjg/7UnUVhLQp+BWZLnnTbmGgnZZ4mt1fLazEhp7V2V5oc/0pHhGuVUHULhPJSbVa7Mu2WNgn4MD5O/T3H2ng58egUEIxXoo9M6KT89Mvbp36Re9CNQhlpJynLGeIZYVHW/nrmlH29DZG2vB4eq4G6Dj5PNV0lZb4q/VWAMEyyy4IzvtN0IFUW9bZQH++ICFmWTbzGkJ18NaGW2fRO4Sa0bOkg9JxFrvyt3Txwm+b863JKkdIjVicpp8Oza+lxPT11qoHTD1490+M7Y/Wmos1Cd/qNgg1a5XSIzaI+mdkuyImOHtDb0Df0SKSB0H4xmuT0bAyb19N7dgVE/DF1/1cvDHqa8QNb+JCA67YSmIdyYjTlIDwrRPzBdnbNq4SNhEjqsH2GOP1C/C5MW35d5XZBr9x6pmP7tMAwGMThuxpJuBjSX4ZpCt+dVNtK+W0nfClT+asLzvm3Nlkb3t4URLiGUqawXe1XOdpXrXjCb4IXFqvJJtrC1v0mFEnjhJuV2nZwStOA3PKfgegibuLEYiiLJ7QN58IbvcANoP1GtlgRl82CS2sKOQDK9Gt6NMKpTl6CWDTzGCi5ktV0WcVC6dFVl1njQei5U1iUvoYLTG4htLkUbWF1BevZnXY+EsLNFc19llR/lv46bBtSbdbB/52tcXXBD46T5bZYqndJNqXkap9wq9eHr7uqYMmYME6pdgT4L8sYP0nS+apk+mtmoaThSkPbUKExkmHFwNC1bJ2rrz67xPeVyQfSo3TeOxyL8mWa2lutnPVd3T5EkF9dX+V4C0O0gXKyROG6p7zTu1YOCTiMlMl1JvPXUCY1WI8W6qq1h5f47KmxSvqrPqPrjGmq4xixsDKNmGuDw8TCap1j+jeFjRFLowsxudOkOyupcpw23W21ku3ZeRARDPlBdWJQcyh3J4gmxzB9fcoYA4TBqOuNFWlcNZBGOks7rHw6rgwVC+lcKI2gg9fJ65booycOFG5S43ISTDug9XSD+9pOKdeYsdvubLmRrc26okNTz3aGwv+aZnsQhqWpfsvBM3w0wC9W4mFnwQ8d1Wy/q6HlKD5ac1ynjIHG21Sphz8vfp6wcBnIMqrBMxHnyrpcBDwhku5Eojb+duwXm0VTf9opzG1kdcXo4zZqFdwt6gTl59pA/nN2kc/HTeWCLP9bNkBx/ZDTRCT+PA6sfz0dTVu6aaqCThW57oDeZXAgOBRwyGFBcDbzkoydGLAIfruv/LqP8GOjBDVsRju8DwyIr6NMiwxLqAZsN+USkof11pChedTDNpc1EWEAQpERBo5QGF93NhIWYrCJDTiTfl1LSSJzoZ34Vf1PzkICHdNmMaHNELeDsN3tPas06hppRNq6HSm8jFB2sbtCXOb/Uu4/cedMOOd7QRvcjmWdTbRtQdkf1Mp9sn6bjU9TeDSkLc+l4s5LSm4q3ZjOEvaXZR2Tw+i0UmE1XcNDGlk5kLYxbdg2/4XiAHKuNDK+s4qhhntkMMTaXzp+Io5/15NRDaBFVlcn007Rlu7UNARurmMDB4KlAo4KOEconIF1gKOiFrLUxaEyZjxQstzwm8R5rqo69TOODSS7FBG5ZWdRQSdQk4ym8gJ8ZuthRXiVbxfOZY5QGMLA+eebjfOPX4avq5V06dSoJdei8wTcQeLOIdQl6xNph1C/p0ZUELdvhLwgJq+hTLQeKbx/FXoyvDeoQBH+GhCfo9i18IrYOSbmp+tYDuY6HT6v48TQcTXTyGDaZDXRJY0muDykDqyH/ivjpI4lKT9E/LUe0l/+1jZk11KrlI4NZNdRzsYax6ka3LjZMVS+GWjSb/GEoZO8PrqB9+x8qomBsHs9SaRx2cl9oU3/Nv/tzAljZGurng01BjuJ7mXhnNpUk0XaTVQnysE36Ntk+Ht2MNyGNrgt7UR0e9eT3Z1shLBL8tBEaWRjlcfMWgAxWbqh6HTr6UyfFlHY7Ck/FDKZ9kagU1mkLW8td2Hc+GrnVOmGHURfXvxKPO8Vq7MaoZxZHyKULx3gVS1T1inXY0z2VApLgual1Z2sAz9It1WEvyvaqHItW52UMStaByXThddPQjxqEyJO5imEb6of3U6c489DilW/8a9b7ILOAoErfbI9+pxM/p4alsv6in9dCCXq0xcym/QGQrgNRvdjPfZpZHh5Jz6F12ZKf/kopGwL9TYxOeZqHWLnJNqfw+j0ZD5j/hr9KKdGxkml71p2uVJ+mKJOUjS9zrFbj5uCWZRrYrIIWigjRHQg5eagPYs8xLQGTKIHOE3oFpGz+lwECpZ2utCCKp44UxkmRv5uKe9p0i9zVSaWHnpba4C4DJqkxA1dV2J61OTy4Ib2cupGSMVVaSDY+e7UczFdF5olpSod/a8bKqMtHWlBw0In5Dg57ZgZMwroEH8jYJ02QwdtvJiNSntRchduZE90/Lg9OZuZBfkShEVVeM+Jh7ctYYZuO7YjORmZsz0nkTpG3DzUZHU22NsD1n/eMUUj5bH8accvHbcnTm9kFwxvpU7TSHt6Np9ug2HfnrcXG1kPsxrZ3sCmMXKG1OQWOavUsmtuig0br4M+q2brrtu+mGv5FF7m6m6A6jepuDk55KicliVdm4oD+OcovavrUC0w/Patn6FX9RiDECI5B4cCgAVRASILkA0lketo9TpyQx/OHAbcEHB74eg4nDkM2FUd1WvlEuuHhL4p5DU33UYBB0OhNcUai0izsT2H67VaN2f5vbgN8SSsA5d90JnLMsvWMcZJWCrGGI/WMVxfwdiMkSGHw1CJqj5fp+tY5581I35sSfRbnZ9JKDwLyi58A5FdAirzGYyz8o/hwucHHRwc6+sbds2x3j4NL5tE+UrKiQF8/XN5+XOxGAlozWvphj51WgPMcfZUgaenphPnTbVLWWd8rF9zGnOaoiiSb3WSXwdqQ+ss0XpoJ4nlM0WTHKjyaSpDRp7TdaCdDK9l6fPaSfntpbrB1JRrHopbmazynY9LX0rqEfjB1zvn/I0UEDcjdMW3SX2WqTpgzxzwIBRep9lTRw70evCXSCPZZihj8bcCaYh2O+ka2QRq1n+eMYtQ/1bnLqg7vvs1tqLqqRObhc6C4wHA+SPdJL38MqDy7ZkWB8BaXmEt8j3VuwPZhqWRjSHvzI2983sR/WLRyAlqm16L6ttbxZYb2e40FXLYQipDqHBOuR2ADY94WLVVMSs1CU1zmq6N2KEqdRk1/K7XSQuifibCB2VJ/K5TpUS8OgLVyy4aT7cNDh+J42T5xIWVeRUiZHv0fr7w63UalzcvVP6PT0yUbA1ZFBsNkSknkKVaafWmolad2rMzLqIUS9XnFwcbEzawKdqMUMqvCzp+lzFJx4WIH/PTLCoPW0H5qTuJXF12KchZqG1zhLf5lOmyWqKhUeNNjuG6Tnm1rq639l00G1FOnNfmPHehvu/sHH/7kweRUL4qVhvO+c/UlW1IKKrbVbt0WXc6rNwzn9w/r9dvqOPymjVfh56MNxE3ePt+YcKqVabr89j+QfCQXlmBVdn4HPo2TuX1JB9Llllb/4v13Tq+D5XXco2ZKNUolTLaZ2FULa4skHCu81XTueDWJl3NP1Qh+7jaucWi65vE87BOXI/VSAPEYRk5nvJ5GVaTelZVomXGSKUjz6dkIPjrlbpMW67e22S1pavzpcuWieWpidQoscvgbj194fTMhx+QZKOdbNSSesONh606xuLqUbaMet+pjN9GQmyENwhZB7GBZQLyhs65MFnZYXA9smvF9Tc+TINsO12MzInOCWNkm2YkPRtIWPhJl0TUizYGtdkn0XSD55TotuGNHn9jpVXrmamluaFWlv+2G1m29w7B+OxAXFe72ckin9i0tZ+eSUyXQpsmrDZgehadmlH71YS/5ZlA5cc/gMmvksyGaxw09afiOO32z8Z5dL6nwYXHeJpcCh1WO4AHGV6NVFuWDv4xCb/Ra6qyBsG4tnmXr6VqKOZHf7jm6kHrhkQhR8LQJsowITy7EiGn5q9kzU1NjtBgIhN1XIiKRFA+72wGh+Nw/Pk0GgMw/hjFTG2qjo/PW9ON69KakRGrap7M7DAjJNsFif4Qy4M/lWij5atKg4/z5zDHxnZs7ANmG0NipOSk/BgO06RnDC1XHyPIa3LzwGk16R1LR4dpIha3KwZTJjhNGEY22hSTMnlg9Z3b/16cgfWF5X9LynSkcwjfstw4HOqPIGrXhg4fi+sHiCq/VBp2b2SdI2/ty0nNpJGtN04OD58Dsr6wHLyBCPlyYLFigI60h1r4kA4Pds4f+HDO/6ZyhVmnpmPNp526DvVjIDQIVLokkcYsFl6Ugy0MLI7DWYJzA4By/xk1Z8JzzPHBqgtOZkS1hTi+ALgfVH2yKoadBsGXu8+7yn9Z6c2TM3869BVQmAjNVxpN9dBU33JM1S5FW1hteHQYHV/7TxumKb9NpGTFiIWLncMMujBteWxickTt2RWUExXyf3ckYeDzfaLeMfyEqXK1DlAL2RE5ueMTGwTXD+bVuQ0WHhkcvI2Rr++see8OCECYZNvOr5X0LYHEAn9eug7SPTub3sjuUryx4cFhZ3bo0ojq1UeA1yXel1eIlXmcBRKD4EZPUFg++QPtvTDq+YmkUy/IXYe13rhy3XahVm4d42pmXUH17Gyij/BoSL3SrQutHXwD0TtAXa6i+KHah5YyeOAvB/OJ/E2bwsZSjpu8kwsACFtmFLYAp6wPGa4tSq2+eZVUbtXXr5uSeNmGfw1ivfy4PFlXQr1SwzSinEz48+LRLwnLb8vAvKTS0bpH2gwPxNPWjYTj8P9Lu8ANwPnpCk9a+DQ/jkQmPLIkCZMc/rdlUPiUIonXMKIqOq2lQ/WMeVnO3Ib4vgQRpnwevZ5qKCS+hiB2T6Z4zEWTqlO9K+NX3e2vUJQ66GN9XsfhcuFz8ndMDiJ6cp5i4fVjNylYltaJ5epjmbZE6yPD8O+muIjowcTyp9HxWN8TYCUrCoeqTtlKLWyQ4XtmeUihIHmm7Lei2itjc5DKCp34Z0MjWzSu/r+JhlgjlHmpMfHebT1skFTVkbqBrJFIkhpvB9WAVHM6RoREOmV0Kv8nfKoympX6wFDzqk7Wzk+Rv6kKdxPwjSLozCf0Dkb13HHZ1oSvl8MZCWdk/ifw58oiCEEWXRxNdT7t4L4o5HsLYnKT/TfBNPlooi1uk3/T+c3mBDCym0HZBbVHj8Chbry02w4QofZ6zkmnY2w/fHnKF8InylZPKrT/DqFuZoOLGANfGtUNjeQrvHIJpEw23hvBVvYFufqcV49aWbWUbYpFyemKzP886fZGdk50x+tpptxGFQPadpue+AWNvBFIOx1je+MaFqe7CjVZM1l4g5zz27oTuGBo1eBNbYazDBP6+gL7uxw75jVu89A2lnWZFLfJ6sIiZXWB8zlPuuWn7qYptEVQa9BK8QEKDJ0DFQOgGMCSRYHjKGABuyQqGKi2hYT+IQs8eff9IFI45ewdXg7RxGfopCtlEECGQIbCfNh/Um0Ag8yR/wRd4WAKFz6J58/N6lKQ+vSddmvGIjcORQZY41CgQOFyFChgycIBGFpgYH0ex5kvviX/5EiNWjnTmn9kx+4BqACZNRD2gNwqHB2qXUcCgMxkYfsp868hFEbWGf96QpB/x3AKCweL8Dm08BRRqOao81eCeRYEFOHaMDh+JI5DkEu+TXBaNpyHITgTdHFefv16XtnoAArtxIj0WF6I64aPwGEVoBEcHQZRAVPsgxsbkPOfHJRlaa1FUfgKkp8v0xgzhDEDkBkjG1j/yEmxBDgDysZleyYePKTOWlgHnNDXuVAW4dzEdTmfeL09cHxM+oEfL3EOhsLn/sCvy6xji+aVGOeZ44JfCxqc3m3h1sSOyIJMAYcC1laPWbV9/QaqbLhMZD3qsUqOkXWd6ui86nRi4y2nr3+3EZPF6HS7wDrINq79ZX4gVt1Zlk2svqWOTfqC239Ed5Yjt821v8xj03lst5WsDd9mteEzls6GTmCxbb/U4RtF7mfM4ToQj1S6sDcSP15UlVx/iUZ141pGBgbkX7hRxfaGAv57uF0p8kJ0DDY2vix046s5vobNI9wc+FTDP+cnXEETAABhY97gpK9hyfxZa2EL69uwCe+hhb+BxzoLW/hys9ayHQERYTAY1AYIiLbEaWRZVv7WgxKnzW0ilWWHsvEgZrC6QFS/icpa6ydPRDBZVg+st6lVX0n5bSW+vC0MGQwSddAGJb4PHIPDtIXrim5XWwWnPY0Ovr9Q2QeKooBTN2JtJ7aXkTVAYaqXKRgAAzIYhMFpoyBMvvFJujRhVhzUKys6DCL163kblwcPW6sqHf8mp/BiDZ0XF/yJAGNgM0KRdW8SRPw/+IYPgrN+4NGDZc0Fg1huv82B/iygY6NhveEwxlsx22J0umKdrZzVeYQ3/0EPawtYZ2GIkBnfJkoDF4wvDzIuMgBy22L5jC47Z1kXb8jnM53T45z4qH1YGTXVqi+ayrhPIvyi/hW++Qkj1JToAuCydrx7McckQNblrDLmRberrSLL/I4X/02h27s8t5V5aGIiN1upZAGHnFx1W4Lzw0NB3k8bEI3vuPpsE0JOGHeb3CSVHkQEk4UBM+DHhVhMTjMYZp0XlXBtjNFOQWp3jV8LSfAG1rlwfcr6wZ9fWGOAcM758scUOwYifSdWc7Kj1ga8WlaryKEEAXhDO5FHmU/+Tb70NPIOb+csTNiK5tVjXQnWsTrlW1qkYMFhyoDiHNdk+KfU8sf+pN+J4cHM68sz8fJrPrz1LIyUpCxT+PbFA6QclPhclhmYLPNts1Q2xGXDz5Fkw1FMVIcuSk2QU+oV2gRvrdbD8l/+IcufH7OR/g2QyoPqzykm8ifmYP6v/z+r4Ms31EVYVXn/Fh0jcF+JjxV1uL6nCTsLXfTfCB1k/trk8zjDk3gEI40N0m0aUuVX9k5WPJZJXQDapcJqtD/vpcs9dQJA1q8CQeRXuAO+DgPANdzQUG4QhgHE/5x0ISzgyhta/Eov7upUQ7wfLP2qwU8I/F/ueD5M/cYZlOPB5KDMmvM/aWVdkF/+U3nywWS5Vx4E/4ZiA7/SswYoMv8XoUxNWA3q3CK0jdoAD1GHtqrD2gw0DHzEPzlmSIDLwJ/TFVTVTT3v3qtq0FVYHl85DWuDbuIuWwoDsLUW4PRdyE9Y8YZUBFzfVZ45P5N6T+LLzU/CfJ36844HiTBJ8Xn08HaY7LiybOWkRlLWfc3wiolOoHbNMvSl0gU9SueEX7gkIrNbO+T2Cl/BHNefq+ta1T/XmyhC5+914JPGqNd1aifaoMxXTZ8UImx5b0BIvspO2O43Bs75a+IIdVHlo8qjrhuG65XbI9el9uf4su3qNjEtLMO31zoynZhsLlNGyqqVd4RUutJPh4npwRBRTSc+lvG1vFj6DPvJ8o2Vv1N1QOIzhDJ8jImV7FZCCKsv67c2M2PgDOCGGY66sc+s6Fxpaiap/m+icgmGTKOrSXUOhbVCC++cTxIuGCsyRgcpnXNh8OdVZTkW1HNVq8CJSkznqb6SDUaWCOQccjisZ0CRGVgZ1uprue34G8F8GfnGH67HgrNDdVdmg290qZxusL6cwoRKlh13ei4X4YiMX8VyeXF+iGvJhYOw8nUWxIaLfJ1Nlmu9jqqq9AatsvC6jtJwx/XGtnqsJMuy+WbmXEYct1Q4HPPuC8uXVRTOyb4h/eWNXn7rXRmzWhE0l4cLEyG/5epPVOWK0McAgi+fWjrK+WqRDUnkp1mFBjgv3Bb9WW4rPLk3ZnJCWi+3SUgsZNiw5nneGB4hziKROsbSlatDximD2mZUNgLWoena93jsb+jbbL2mYcuNrBxYMxAGfFduuHvYGkKeEe47fBDG1K+7TT7DWL/+2egMwZiscqjuNIy6KGFAD+nx9mRZyZGZDxukan1XR+dJDhR+HBey1EjiZ8RVnjJjSuc7tM+Hcw7Hxms4nK+h8NYXBPi7o/3r6TsxGg5x6OBBDIcDOOf8TTshNWMm8+gHxTARQN1G6c4/UX5E5aDneDBUzts6H8inI3dIfPlLA2ZC4mGonqyWCTtuQhtkoyzbib/BqbwDXXX4qg1wG/Tdz9cnYLIM+XiM48eP1+I0IQdDXU4Iqy1rC982stA2nUOWmSqjus15wVV5wueZnb72LQvHhaiVoWrqOx4/YPt2wn1HO6+faijKEer+Pq7K05QQGZDhLW4r5PkdgLW1tSrfjWNDvW7kOc6XMQbHjx9HUfivLenw0tjJle68EDW3JwR/Ts+KHRWOx7+1vgj5k/13kchyi3H06NHWvG0VdMUVVzhWbpbC0RmbRQbj4JA5C0dDkCM4HIGjVTyYObx4fBzfvu80LC8t+cC+Z5Vxieqd2oXB3F8ro/D5MIEcoIDy3tMYznGHF4NIMHP8YQ6Z7bIzAdVAjDAQIMzc4SbHIB4wAvwlFtTVrUh8CaRsiyFeDr+CPZav41OPPIK/cQWOZQPsGQ9QGIsisxgUBhYZQPHZYgkhfO7HwmQO37xggIsuPg92n8H6kr+dHrwNKreahAiotjOZEw7ty4yX286FAVzVP6NP+xWdH3RNuB7qnB88fAT/l+vMV43QdOJuMY7iK925+rRE5kn3BTlYAcDQFsgdMLSE46bAqACOPHQcR7/wAFbvWoPJhoCSo/uqPnbOIQvXQsdFgeLsJ2Hf/vPhhnuwhGM4PFjBwMVlegG+H0b9YiUusiibo+9zvo278EwqwDsFPHhLAVT+JvJbsj6+73fG1PMoSekEpdfUOH9T24DGcLQEYx2OPXAbjt5zC1bcEQxs4b/EEzqa1gmRsivbWDBEw+EQ55xzDvbv348sy0oZ8jciciBkyePY+VjcGByfqLp8YcMk1IVLG0R+cSLjxHSYhrb86XMyLS4/xlqL22+/Hffffz+Gw2Hpr2XMQkrPafNLV1555URIHVkLT6HjarQsni1pfwp77RAyH0MWS6MRCuvv0KxB/knK8pArxvgB1hXxGRAA/uibOikajw2Do/PDT6mvc+Wd0FTO5KsKzrIMLi/KQSBWMjIX2p8odt2ZIT2qSc9y25cAFADG5DDOgKN2HYfWHcZuEKLVB35EGnTNn0L+rfOPp2QGY3Iwq0sYri5jPatWYQgTnAqeYHgmVro6v7JAyIGCkW1pYkDQ24THSMjxtj8B4XElnnwhzBdExHqyxJcGmtCTN3Ug2oquI3IWZDKMyYGQIRsDODIGjqzDWIBocl+B+4KsH32cEQBnkTsCsiGy5b3AYBmFGQAg/7J8cf29XkOTSH8956j1d/LPATdBGIQdCF+mRJVAB54M+YmQv8BBIXUCmeraukaIqU4IdC9qy6/EEHl98+PIjx1G5nJkKGCcv57uQh1N9BNdNgI+75zDaDTC8vLyxHXZZB8U6HagfzfFY9igVnH8eGytxWA4BIKB5T5jzOQEoCmfklgY1i0mQ+vd5O+cQ57nOHLkCJzYhufwWs4i0To1sS2NbJOMtYEfmIuiuuhd4VeuNZzvUSbMjJsghLAJCOElAuIuUSKCdRZFuF6xtrYGFzqOMQaj0civ9sLNErUVFHyaMlldzFJngp/RTwsH5cHHGiAn/4jUMHdY8u86KPMhcYkO7rjcXXjONfMv8liHRUHASev1VXC9huqZ8lvnvlwBtEwqMv9h87DV7OtAh/G4sNVXPqReOOTrOWzYKs2yQfmogLU2vFwkxPUCKmGEsEvSAI3LnxNxuayqplhjbCxslmHdWRBlMBYYWoNR4V9iUQi9uF+w49WOPAbXF/xq3zrAmczvThi/S+GcgynClmcILxXT7cxnp8pTJjx1fh2l26izWRjEfW+11m9nO2fLa2qDwRCDbBDuaWDDY8K3doNwlQbfe8BonZ2czOmVeku/WrOZ3x6HBcFiQA4GDsQ31JG/HKPHMfAuikD78zmOj1AfcpuWz/k2X8WJ/WZk2Da0kSXy95wYQ8jHuR/TAAwGA4yGI2RZNTlnPbW+jNZD+zeh42lkucj0pf+0ac1Dm57MtjSyUHL43KDw22cI8Zr256Hi+4YkG3x9gHYuvP2ihuikyMsboPygVIV1zmJ9fYwXXPsCXHbpZbDW4ujRI3jb29+OteNrGA78tUqEreDJ0pFnlA61Le66H/k7laoTWjB3mnIA8oOJhcOYCtiwJRxrkNx49W/AD1B+0hIGeCJYqv4uJXYMHCq9wPVSbuk6pC6f+Y+ZZ+E6a1hh6CpjxHbo+ngdVz35KXjOs56N5eVlFIXFH//xm3HgwIEqj/LZYLWSBWrVPQmt1w9rbYMl8S5IXfJS7vf112HhDMFZYOAImSNY4x9n0+j+oevJuXADFU9WieDCoAn4esvcuogXy588UdehfkGj3s9CwsK3TrjEGdL2hvWcc87G8573XOzffypWVlbxvvf9Fb74xVuQZQOQ2CWwNq/aqlJYp1jTCbEK1OWq/SvWXbhWXJaxCeLCJDMYyYk0I0YWor7YsMp6TNVtDH2eZejz+ljC4TnMcJRhvD7Gnj178MQnPhFPe/rTYYhw66234n/9r7/FkSNHy3j6ejLr24T2l+lqvzY4LtsAjs/2RE4eusqellS5SqJGto1phcfQGdaytL+E5ADo6n2j2lpqQuksgjpXv2Y7qUJeO1lrmA44euQwXv7yl+Pbn/lM5OMx1tfH+Lf/9t/4RphlYSQDwJ+aa0IN8AQ/a2RkVCI7uXcnkHcJs6HlcwW52ipJo3WcqJOwGnDwxpUnEACQJyY+TTj4zOlkJpHlo3SsNwYA/tGOtbU1XPuCF+DFP/iDGI2WMBwO8X/+n7+Eu+/+pr+RzmQoYMv4PoVwkZ2U3Cht+eWGqk0ssG+NYA2hIAtL/uYrAwrV6uBE/bbVSW3AKm+u86taQngULUw0ram3qyihLep0vNRKH+2fwvH7JQnByK7hkksuwct+8idw+umnY9++ffhv/+138Im//wSGw1GYZHK9hMsuU6TXVlY1dJ9TYQ2/3jLUsw0lynrJ4NOmWxs/QjyKTHbbaEpPn9fE0qnq0/fr1dU9+J7v/m688Lu/G5kxuPGmG/GW//4nOHjwUE0+54X/NqHzJ8M6YSz5WMvSOsv2lwqr/TRNctv8MIU/0zZCbCvWszHG7Abitzw3rZuIuybcet0N81rc9Ww9xPHn1034nfnfdmRxnNYwznKsZ+tYH4yxnoV4Wg8pN8irnNJD6LgeiS9dEfK1PhhjbTjG+jDH+jBHPshhuz6nI3H+fw7hWlcwsCa8M3nPene3dx3YOybsWU+4scWefIy9we0Z59gzHlcuF26ce5f7MKvjdSyvHcfS8aNYHR/H6ngde/K18Hcde8LfVfG7Oq9kaxfJT91R+XevcuuZwdgAhfG7ANY45MZinBUozOQqqAtcw2wQHIV7BgAUNGh1Of9F/fzYDDGmAcYhDP/mYy1HOksj/xsDFDSENSO4wRKQLaPAMLgBCjNCQUMRdwhrhiiMPFe5mB7yWIfXcWvHKr/emPqJJE9ZyvKdtFVTMY0RmQY2XNqAzQLLcOHaK29xlMZs8q6VMs1p0+Z8x/Le5Mdo/0XkuY0mXbqyo4zs6vqg0a2MDVbHaHaROKUbG6yMqdmtD+pubYCV8QCr4wH2jIdYzYdYHQ+xuh7+jodYXR9geT3zYaXTsoRb1ee0HsKtrpuJ+FrW6niA5fEAo3yAbN2UzhRzNE7nV+8kO1l4/WRmAYNidhd5pWXprIGxg6ldJn4P3BBDGgW3hMwNJ8LI48xmE/IandazgyuMN3vkgMw5DJzFwOXIXB4Z0rrB8R0IljIUGCCnIXLyN7M0ucqUVMeN/nKlLOI0Ov+phRCW14QuXIsv4FwOZwvAFaV878Izvw1uQgd9HIkj46aOucwKZLCUwfEKdob60YZiu8N9fBHGTOY9lv8u/juN/z+LsjE105oLgAAAAABJRU5ErkJggg==;" parent="1" vertex="1">
            <mxGeometry x="551.89" y="485" width="186.22" height="100" as="geometry" />
          </mxCell>
        </object>
        <mxCell id="_ihUUyF4QGS6WQR9YeVK-58" style="edgeStyle=orthogonalEdgeStyle;rounded=0;orthogonalLoop=1;jettySize=auto;html=1;" parent="1" source="_ihUUyF4QGS6WQR9YeVK-31" edge="1">
          <mxGeometry relative="1" as="geometry">
            <mxPoint x="665" y="819.9999999999998" as="targetPoint" />
          </mxGeometry>
        </mxCell>
        <UserObject label="R = ROJO G = VERDE B= AZUL A = PIXEL TRANSPARENTE, SIN COLOR, PERO EXISTE PARA RELLENAR LA IMAGEN" tooltip="" id="_ihUUyF4QGS6WQR9YeVK-31">
          <mxCell style="rounded=0;whiteSpace=wrap;html=1;fontFamily=Comic Sans MS;" parent="1" vertex="1">
            <mxGeometry x="490" y="640" width="350" height="70" as="geometry" />
          </mxCell>
        </UserObject>
        <mxCell id="_ihUUyF4QGS6WQR9YeVK-33" style="edgeStyle=orthogonalEdgeStyle;rounded=0;orthogonalLoop=1;jettySize=auto;html=1;" parent="1" source="_ihUUyF4QGS6WQR9YeVK-32" target="_ihUUyF4QGS6WQR9YeVK-35" edge="1">
          <mxGeometry relative="1" as="geometry">
            <mxPoint x="1145" y="210" as="targetPoint" />
          </mxGeometry>
        </mxCell>
        <mxCell id="_ihUUyF4QGS6WQR9YeVK-32" value="DATOS NECESARIOS PARA TRABAJAR CON CUALQUIER FUNCION DE LA LIBRERIA PIL" style="rounded=0;whiteSpace=wrap;html=1;fillColor=#60a917;fontColor=#ffffff;strokeColor=#2D7600;fontFamily=Comic Sans MS;fontStyle=0;fontSize=17;" parent="1" vertex="1">
          <mxGeometry x="940" y="30" width="410" height="80" as="geometry" />
        </mxCell>
        <mxCell id="_ihUUyF4QGS6WQR9YeVK-37" style="edgeStyle=orthogonalEdgeStyle;rounded=0;orthogonalLoop=1;jettySize=auto;html=1;" parent="1" source="_ihUUyF4QGS6WQR9YeVK-34" edge="1">
          <mxGeometry relative="1" as="geometry">
            <mxPoint x="1140" y="320" as="targetPoint" />
          </mxGeometry>
        </mxCell>
        <mxCell id="_ihUUyF4QGS6WQR9YeVK-34" value="REQUERIMIENTOS&amp;nbsp;" style="rounded=0;whiteSpace=wrap;html=1;fontFamily=Comic Sans MS;fillColor=#60a917;fontColor=#ffffff;strokeColor=#2D7600;" parent="1" vertex="1">
          <mxGeometry x="1060" y="220" width="160" height="60" as="geometry" />
        </mxCell>
        <mxCell id="_ihUUyF4QGS6WQR9YeVK-36" style="edgeStyle=orthogonalEdgeStyle;rounded=0;orthogonalLoop=1;jettySize=auto;html=1;" parent="1" source="_ihUUyF4QGS6WQR9YeVK-35" target="_ihUUyF4QGS6WQR9YeVK-34" edge="1">
          <mxGeometry relative="1" as="geometry" />
        </mxCell>
        <mxCell id="_ihUUyF4QGS6WQR9YeVK-35" value="Especificamente con el metodo show&amp;nbsp;" style="text;html=1;align=center;verticalAlign=middle;whiteSpace=wrap;rounded=0;fontFamily=Comic Sans MS;" parent="1" vertex="1">
          <mxGeometry x="1090" y="150" width="165" height="30" as="geometry" />
        </mxCell>
        <mxCell id="_ihUUyF4QGS6WQR9YeVK-39" style="edgeStyle=orthogonalEdgeStyle;rounded=0;orthogonalLoop=1;jettySize=auto;html=1;" parent="1" source="_ihUUyF4QGS6WQR9YeVK-38" edge="1">
          <mxGeometry relative="1" as="geometry">
            <mxPoint x="1160" y="469.9999999999998" as="targetPoint" />
          </mxGeometry>
        </mxCell>
        <mxCell id="_ihUUyF4QGS6WQR9YeVK-38" value="Alto y Ancho, canales convertido a un array bidimensional" style="rounded=0;whiteSpace=wrap;html=1;fontFamily=Comic Sans MS;" parent="1" vertex="1">
          <mxGeometry x="1085" y="320" width="120" height="60" as="geometry" />
        </mxCell>
        <mxCell id="_ihUUyF4QGS6WQR9YeVK-41" value="Como lo entiende una maquina, con un ejemplo de una imagen 2 x 2&amp;nbsp;" style="text;html=1;align=center;verticalAlign=middle;whiteSpace=wrap;rounded=0;fontFamily=Comic Sans MS;" parent="1" vertex="1">
          <mxGeometry x="1097.5" y="480" width="150" height="30" as="geometry" />
        </mxCell>
        <mxCell id="_ihUUyF4QGS6WQR9YeVK-61" style="edgeStyle=orthogonalEdgeStyle;rounded=0;orthogonalLoop=1;jettySize=auto;html=1;" parent="1" source="_ihUUyF4QGS6WQR9YeVK-42" edge="1">
          <mxGeometry relative="1" as="geometry">
            <mxPoint x="1510" y="589.9999999999998" as="targetPoint" />
          </mxGeometry>
        </mxCell>
        <mxCell id="_ihUUyF4QGS6WQR9YeVK-42" value="" style="shape=image;verticalLabelPosition=bottom;labelBackgroundColor=default;verticalAlign=top;aspect=fixed;imageAspect=0;image=data:image/png,iVBORw0KGgoAAAANSUhEUgAAAawAAAA8CAYAAAA62Y5bAAAAAXNSR0IArs4c6QAAAARnQU1BAACxjwv8YQUAAAAJcEhZcwAADsMAAA7DAcdvqGQAAA5SSURBVHhe7d0/aNvoGwfw7/2wB3nw4T+ERthDl1DswcTDDSFDAvJ6QwrO1C0lQ4zJ6EmloYPnkBYOZ8t0gXq4NYZ2MB1uKGSwW7I6yKbELudBgYvhfotfISmy/dp+ZUnt84EOld5ET97n1fvK7yvJv2xubv4HQgghxOf+Z99ACCGE+BENWIQQQgKBBixCCCGBQAMWIYSQQKABixBCSCDQgEUIISQQaMAihBASCDRgEUIICQQasAghhAQCDViEEEICgQYsQgghgfALz7sEs9ksDg8PIUmSse3q6gqXl5eWcqVSCblczvh/v9/H6ekpNE2zlFNVFel02vh/p9PBycmJpQwhTnjbomi8bZsQJzx9nldtO0jmGrBubm5wdnZm320olUrY2NjAH3/8gVarZd9tUFUVkUiETniyFEVRsLe3h48fP7p+UvO2bUKmkWUZ5XIZuq4/GrDMVtm2g8S3A9asKxKW+EQiYWxjrq+vjTiLxSIKhYK9CO7v72fGuQz71dLDwwPq9ToajYa9qDCskYfDYWAFfyM48mSvBzPz1eMieVrlSc3Ttu1/6ypyPuuTH+95Yo/dzM2rfPtxf/Q6owFrOb4csFRVBQAjoSx5vV7P2Mab+GKxiJ2dHddPAjOneFVVxZMnT1yLg3X47IRi9ROJRGbmY1E8eeJtO4vkaZUn9ay27fS3u53zUqmEVCplnEesrnVdN7bxnie8eRLpZ6wz3t+9yrYdJL686eLk5MSSzEajgV6vh2QyiWw2aynrR1tbWxgOhzg/Pze2nZ+fYzgcYmtry1JWBFmWkc/n0el0jBNH0zRcXFwAAHZ3d20/IUbQ8yTSqnMOAGdnZ6hUKsZFX6vVws3NDaLRKDKZjL2471CdkXn5csAKsmw2i2QyidvbW8unx+3tbSQSCVc680wmg2g0iq9fv1q27+7uQpIkpFIpyLJs2UfE8SLnQUd1RhYRiAFLlmVEIhHouo7v379b9qXTadRqNeNfqVSy7AeAcDiM/f19o8zp6alrJ8P6+jpCoRC+fftmbCuVStje3sbff/+NUCiE9fV1y88sKx6PAwAGg4GxTVVVpFIpfPnyBZFIBLFYzPQT7piWp1wuZ8lTsVi07MeK8ySSFzmfJB6PYzQaodvtWrbznCfgzJMIVGdkEYEYsPb29pBIJCxXY5qmoVKp4OXLl8a/q6sr5HI5Y20FAC4vLy1lXr16BV3XcXR0BEVRTEcRT5ZlVKtVxONxlMtl/PPPP/YiwmWzWZyenmIwGKBSqeDff/+1F3GNU55arRbK5bIlB9fX1ygUCpYOwMs8ieRFzplisYh0Oo27uztjnY33POHNkxuozggv3w9Y7I4e8/rMJJeXl+h0OlOnEzRNMxZznz17Zt8tzK+//opKpYLb29upi6siPX36FEdHR2g2mzPrSrR58lSv19Hv96dOVa4qTyJ5kXOG3XTT7/cta0JOeM4TcOZpWVRnZB6+HrCKxSJyuRxXg2IGg8HM6YRut4vRaGRMpYnEfvdvv/32aOBYW1tznHpYFpsK3NzcRL1et9xVFI/HHafoRJo3T5qmQdf1mVOVbuZJJC9ybqYoCnZ2dnB/f4+LiwvLmtAkPOcJb54WQXVGFuHbAct89TPp9nc7WZaRSqUwHA7Rbrftuw3ZbBaSJD26SQHj49ZqNVSr1YWukFqtFu7u7tDv99FsNo3tLDbz1AOjqurUOfJZ2u02hsMher2e5VbgSQvbEHBMZpE8sbic6sJsWp54sKkmt9cVFsn5su2MYbc/j0ajibfc281znkzK07Lx/4x1JpKiKHj37l1g1nlF8eWAtUgnCAAHBweIRqNoNBoTf4ZdWXU6HcfnG9bW1gAAiUQC29vb9t1cPn36hGg0ir29PWPbwcEBIpEI3r9/bykrj29UAICNjY2FGp+mafj8+TPS6bTRMcuyjBcvXkDXddTrdUt5EcfEgnlicQF4VBdms/LEIxaLGX9nPp9fqpObZZ6cQ1A7W6TjBed5MitPIuL/2epMpHg8jnA4DEmSXHtsxY9C9g1ek8fPFGHcMF+/fm3Zz96kkHV4yrzf7+PNmzeWBsXWVswmPYUOAB8+fMDGxobj0+u82Kecvb091Go1YMobG9hg4/SWh3mwv6dQKBi/a9JAIuKYvHliHQR7+wbbV6lULOXnzROP1vgZG/vvdcM8OYegdra1tYVwOIxwOIzj42PLPpb7WCzGdZ7w5okREf/PVmciNZtN5PN5x7dx/Mh8+aYLr7n9tL0dq1/z0/Zu8+KYovG8DYCVMb9NYRG8bXseq25nonkRvxfHFEkW+KYLdpG37IVdkPhyStBL7DbXdru9shPi+fPnCIVCU6cbRPPimKsmyzIURcFoNHJ9imZeXrQzkbyI34tj+pWiKMhkMktNmQcRDVhj2fHzS4VCAVdXV1M/SYrCFpGTySTevn27kpPQi2N6oVQqGdOU1WpV2KeiZXnRzkTyIn4vjulX8vhGov39fbTb7amf0n5Ec00Jmud0nT6G2tchJq2hqDPe8E3IJLxtUTTetk2IE54+z6u2HSRcAxYhhBDiNZoSJIQQEgg0YBFCCAkEGrAIIYQEAg1YhBBCAoEGLEIIIYFAAxYhhJBAoAGLEEJIIAh9Dov34Uqeh+gIceLVw5W8bZuQILG/wPfh4cHxPY08ffYqzk3hAxbPC0L9/vJbEgw8LwgVhbdtExJUxWIROzs7jgMWI/LlvYvw7YBlH/mnfe2AKKs+Js8ViVMZxlzW/gmAcfuTwKwrL9742Xdr2U3LgVsnhROetm3PgVPd28sw5rK8dSaavf07XW3zxM86Naevvri+vnbtXYA88fO0M6/id8q7Pd9uxh+EAct334cFU1JY5bJKOjw8nNphLGPVx2SNs9lsWgYd1hjtSZ7W0JhpnbsbVFUFALx8+RIwNVJVVR81Zp74nTqYoCiVSkilUnj16pVl0CmXy48GLd488dSZKIqi4Pfff7fUv6qq2Bt/uaI5J7zx2y9e3DRP/LztbJXxz9Mf+DH+VfHdTRfsiwE7nY5xsmqahouLCwBw5ds1vThmq9VCuVy2NMQPHz7g/v4ez549s5T1q5OTE8sJ0Wg00Ov1kEwmkV3wW4yD6uzsDJVKxRiYWuMvj4xGo8hkMvbivtNoNFAuly2d4KdPnwAgEO0x6PH/CP3BKvhuwMpkMohGo/j69atl++7uLiRJQiqVgiz4q869OCYhhJD5+G7AisfjAIDBYGBsU1UVqVQKX758QSQSQSwWM/3E8rw4ppP19XWEQiFLHEwul0OtVjP+FYtFexFIkoTj42OjTLVaXelAK8syIpEIdF3H9+/fLft44g+Hw9jf3zfKnJ6eBvqTWjwex2g0QrfbtWznzRNPnbkpHo8jHA7j27dvlu288afTaUv8pVLJXsRVk+LnbWdexz+pPwhK/G7w3U0X5oW/breLw8ND3Nzc4OzsjPv3z8uLY9qxNbNoNDpzfpotfE9b42Bz4gBcj53hiQuc5Xjqw62FXSfztgO2JjprHYE3Tzx1JhJvXLzleOtDFN64eNoZPIifNy7ecjzxB+GmC999wmKePn2Ko6MjNJvNlZyg8OiYMDWCRCKBjx8/TmwsTL1eR7/fnzpV2Wq10Gw2IUmS49WXaKxDNa8DTsITv6ZpRj0EbQ6fdQ79fh/n5+f23Ra8eeKpM1FYZx8KhfDXX39N7OwxR/yXl5fodDorWd+cJ37edrbK+OfpD/wYv5t8N2Cxj7+bm5uo1+uW0TkejztONy3Li2OaHRwcIJFI4Pr6mutqRNM06Lo+c6pyMBjg4eEBa2tr9l1CFYtF5HI5rg4ac8Tf7XYxGo2MKdsgUBQFOzs7uL+/x8XFxaMZBCc8eeKts2XJsowXL15AkqSZnSXDEz/G5UKhENbX1+27hFkkft52tor4sUB/4Lf43eS7AavdbmM4HKLX61kaWzabRTKZxO3t7aNOQFXVpeZo5z2mLMuoVquoCVhXYM8xzTPVw+K6u7ubevXIrrjsN5NAQJ0x5k8TTlO8Tnjjz2azkCTJMX4eIvPEg02DjEajqdNQdtPyxEyrM0VR8O7du4lrGbzMV/b253+m4YlflmWkUikMh0O0223LPq/j52ln0+IX2c4W7Q+WiT9IfDdgaZqGz58/I51OG8lnV026rqNer1vKy+OFfgDY2NhYqMHPe8xYLGYcM5/PLzxFs0jjZHEBwPv37+27DexTT7vdfnSVKaLOsOBgxRs/+6TS6XS4Ox47UXnisehgNS1PzKw6YzcXSJK08CMYi3b2PPFj/KkhGo2i0Wg8aidexs/bzqbFL6qdLdIfiIg/SHz54DCr+EKhYDw4N6lTZION09Pf85jnmK3xMzZOT/zzUhQFT548AUx3g5mxk87+9D7GDwRWKhVLefsbJx4eHvDnn386diIi6kweP7sGAIlEAq9fv7bsZ4u7vPGzNTCzeToeJyLyxGtrawvhcBjhcBjHx8eWfeZ2xJMn3jpjms0m8vm845sNeG1vbxs/bz4HYHtQlSd+toZkfmNDv9/HmzdvHp1LWHH8PO1s3vhFtDPe/sCN+IPEd3cJLoIlSNd1Yb9zFtap9Hq9qXfL+JUXdSYaz51IovLE27a9wjoye+cVFEGPX1Q78xLdJbgiz58/RygUWtnHXVmWoSgKRqOR4xRNEKy6zrzwI+SJh6IoyGQyM6eF/Cro8f8s7cwPAj1gFYtF1Go1JJNJvH37duJVgUilUsmY/qpWq7682p7GizrzQtDzxEMeL/bv7++j3W5PveL1o6DHj5+knfmJ8ClB8/zqpDUg+zz4tIfZCDFzmp9fxTQSb9smJEjs66WTXqzL02ev4twUOmARQgghbgn0lCAhhJCfBw1YhBBCAoEGLEIIIYFAAxYhhJBAoAGLEEJIIPwfmmoBx1cqMWcAAAAASUVORK5CYII=;" parent="1" vertex="1">
          <mxGeometry x="970" y="560" width="428" height="60" as="geometry" />
        </mxCell>
        <mxCell id="_ihUUyF4QGS6WQR9YeVK-43" style="edgeStyle=orthogonalEdgeStyle;rounded=0;orthogonalLoop=1;jettySize=auto;html=1;entryX=0.428;entryY=-0.008;entryDx=0;entryDy=0;entryPerimeter=0;" parent="1" source="_ihUUyF4QGS6WQR9YeVK-41" target="_ihUUyF4QGS6WQR9YeVK-42" edge="1">
          <mxGeometry relative="1" as="geometry" />
        </mxCell>
        <mxCell id="_ihUUyF4QGS6WQR9YeVK-45" value="ALTO" style="rounded=0;whiteSpace=wrap;html=1;fillColor=#1ba1e2;fontColor=#ffffff;strokeColor=#006EAF;" parent="1" vertex="1">
          <mxGeometry x="940" y="690" width="120" height="60" as="geometry" />
        </mxCell>
        <mxCell id="_ihUUyF4QGS6WQR9YeVK-46" value="ANCHO" style="rounded=0;whiteSpace=wrap;html=1;fillColor=#1ba1e2;fontColor=#ffffff;strokeColor=#006EAF;" parent="1" vertex="1">
          <mxGeometry x="1135" y="720" width="120" height="60" as="geometry" />
        </mxCell>
        <mxCell id="_ihUUyF4QGS6WQR9YeVK-57" style="edgeStyle=orthogonalEdgeStyle;rounded=0;orthogonalLoop=1;jettySize=auto;html=1;entryX=0.5;entryY=0;entryDx=0;entryDy=0;" parent="1" source="_ihUUyF4QGS6WQR9YeVK-47" target="_ihUUyF4QGS6WQR9YeVK-53" edge="1">
          <mxGeometry relative="1" as="geometry" />
        </mxCell>
        <mxCell id="_ihUUyF4QGS6WQR9YeVK-47" value="CANALES" style="rounded=0;whiteSpace=wrap;html=1;fillColor=#1ba1e2;fontColor=#ffffff;strokeColor=#006EAF;" parent="1" vertex="1">
          <mxGeometry x="1310" y="690" width="120" height="60" as="geometry" />
        </mxCell>
        <mxCell id="_ihUUyF4QGS6WQR9YeVK-48" style="edgeStyle=orthogonalEdgeStyle;rounded=0;orthogonalLoop=1;jettySize=auto;html=1;entryX=0.402;entryY=-0.057;entryDx=0;entryDy=0;entryPerimeter=0;" parent="1" source="_ihUUyF4QGS6WQR9YeVK-42" target="_ihUUyF4QGS6WQR9YeVK-45" edge="1">
          <mxGeometry relative="1" as="geometry" />
        </mxCell>
        <mxCell id="_ihUUyF4QGS6WQR9YeVK-49" style="edgeStyle=orthogonalEdgeStyle;rounded=0;orthogonalLoop=1;jettySize=auto;html=1;entryX=0.434;entryY=-0.047;entryDx=0;entryDy=0;entryPerimeter=0;" parent="1" source="_ihUUyF4QGS6WQR9YeVK-42" target="_ihUUyF4QGS6WQR9YeVK-46" edge="1">
          <mxGeometry relative="1" as="geometry" />
        </mxCell>
        <mxCell id="_ihUUyF4QGS6WQR9YeVK-50" value="" style="endArrow=classic;html=1;rounded=0;" parent="1" edge="1">
          <mxGeometry width="50" height="50" relative="1" as="geometry">
            <mxPoint x="1190" y="650" as="sourcePoint" />
            <mxPoint x="1410" y="680" as="targetPoint" />
            <Array as="points">
              <mxPoint x="1250" y="650" />
              <mxPoint x="1390" y="650" />
              <mxPoint x="1410" y="650" />
            </Array>
          </mxGeometry>
        </mxCell>
        <mxCell id="_ihUUyF4QGS6WQR9YeVK-52" value="&lt;span style=&quot;font-size: 13px; text-align: left;&quot;&gt;&lt;font style=&quot;color: light-dark(rgb(204, 204, 204), rgb(255, 255, 255));&quot;&gt;El ancho es el número de elementos en cada fila principal. Aquí cada fila tiene 2 elementos (píxeles)&lt;/font&gt;&lt;/span&gt;" style="rounded=0;whiteSpace=wrap;html=1;fontFamily=Comic Sans MS;" parent="1" vertex="1">
          <mxGeometry x="1060" y="820" width="232.5" height="60" as="geometry" />
        </mxCell>
        <mxCell id="_ihUUyF4QGS6WQR9YeVK-53" value="&lt;span style=&quot;font-size: 13px; text-align: left;&quot;&gt;&lt;font style=&quot;color: light-dark(rgb(204, 204, 204), rgb(255, 255, 255));&quot;&gt;&amp;nbsp;Cada píxel tiene 4 valores (Rojo, Verde, Azul, Alpha).&lt;/font&gt;&lt;/span&gt;" style="rounded=0;whiteSpace=wrap;html=1;fontFamily=Comic Sans MS;" parent="1" vertex="1">
          <mxGeometry x="1340" y="810" width="150" height="60" as="geometry" />
        </mxCell>
        <mxCell id="_ihUUyF4QGS6WQR9YeVK-54" style="edgeStyle=orthogonalEdgeStyle;rounded=0;orthogonalLoop=1;jettySize=auto;html=1;entryX=0.584;entryY=0.071;entryDx=0;entryDy=0;entryPerimeter=0;" parent="1" source="_ihUUyF4QGS6WQR9YeVK-45" edge="1">
          <mxGeometry relative="1" as="geometry">
            <mxPoint x="915.1199999999999" y="824.26" as="targetPoint" />
          </mxGeometry>
        </mxCell>
        <mxCell id="_ihUUyF4QGS6WQR9YeVK-55" value="&lt;span style=&quot;font-size: 13px; text-align: left;&quot;&gt;&lt;font style=&quot;color: light-dark(rgb(204, 204, 204), rgb(255, 255, 255));&quot;&gt;El alto es el número de filas &quot;principales&quot;. Aquí hay 2 filas principales&lt;/font&gt;&lt;/span&gt;" style="rounded=0;whiteSpace=wrap;html=1;fontFamily=Comic Sans MS;" parent="1" vertex="1">
          <mxGeometry x="827" y="820" width="200" height="60" as="geometry" />
        </mxCell>
        <mxCell id="_ihUUyF4QGS6WQR9YeVK-56" style="edgeStyle=orthogonalEdgeStyle;rounded=0;orthogonalLoop=1;jettySize=auto;html=1;entryX=0.577;entryY=-0.027;entryDx=0;entryDy=0;entryPerimeter=0;" parent="1" source="_ihUUyF4QGS6WQR9YeVK-46" target="_ihUUyF4QGS6WQR9YeVK-52" edge="1">
          <mxGeometry relative="1" as="geometry" />
        </mxCell>
        <mxCell id="_ihUUyF4QGS6WQR9YeVK-64" style="edgeStyle=orthogonalEdgeStyle;rounded=0;orthogonalLoop=1;jettySize=auto;html=1;" parent="1" source="_ihUUyF4QGS6WQR9YeVK-63" edge="1">
          <mxGeometry relative="1" as="geometry">
            <mxPoint x="1810" y="599.9999999999998" as="targetPoint" />
          </mxGeometry>
        </mxCell>
        <mxCell id="_ihUUyF4QGS6WQR9YeVK-63" value="" style="shape=image;verticalLabelPosition=bottom;labelBackgroundColor=default;verticalAlign=top;aspect=fixed;imageAspect=0;image=data:image/png,iVBORw0KGgoAAAANSUhEUgAABYAAAAJdCAYAAACLVtNRAAAAAXNSR0IArs4c6QAAAARnQU1BAACxjwv8YQUAAAAJcEhZcwAADsMAAA7DAcdvqGQAABLKSURBVHhe7dyxbYRAFEXRwZUMNZj+K2BroBQcWHIwkgM74+45iOSVcPU125zzHgAAAAAA5HysAwAAAAAADQIwAAAAAECUAAwAAAAAECUAAwAAAABECcAAAAAAAFECMAAAAABAlAAMAAAAABAlAAMAAAAARAnAAAAAAABRAjAAAAAAQJQADAAAAAAQJQADAAAAAEQJwAAAAAAAUQIwAAAAAECUAAwAAAAAECUAAwAAAABECcAAAAAAAFECMAAAAABAlAAMAAAAABAlAAMAAAAARAnAAAAAAABRAjAAAAAAQJQADAAAAAAQJQADAAAAAEQJwAAAAAAAUQIwAAAAAECUAAwAAAAAECUAAwAAAABECcAAAAAAAFECMAAAAABAlAAMAAAAABAlAAMAAAAARAnAAAAAAABRAjAAAAAAQJQADAAAAAAQJQADAAAAAEQJwAAAAAAAUQIwAAAAAECUAAwAAAAAECUAAwAAAABECcAAAAAAAFECMAAAAABAlAAMAAAAABAlAAMAAAAARAnAAAAAAABRAjAAAAAAQJQADAAAAAAQJQADAAAAAEQJwAAAAAAAUQIwAAAAAECUAAwAAAAAECUAAwAAAABECcAAAAAAAFECMAAAAABAlAAMAAAAABAlAAMAAAAARAnAAAAAAABRAjAAAAAAQJQADAAAAAAQJQADAAAAAEQJwAAAAAAAUQIwAAAAAECUAAwAAAAAECUAAwAAAABECcAAAAAAAFECMAAAAABAlAAMAAAAABAlAAMAAAAARAnAAAAAAABRAjAAAAAAQJQADAAAAAAQJQADAAAAAEQJwAAAAAAAUQIwAAAAAECUAAwAAAAAECUAAwAAAABECcAAAAAAAFECMAAAAABAlAAMAAAAABAlAAMAAAAARAnAAAAAAABRAjAAAAAAQJQADAAAAAAQJQADAAAAAEQJwAAAAAAAUQIwAAAAAECUAAwAAAAAECUAAwAAAABECcAAAAAAAFECMAAAAABAlAAMAAAAABAlAAMAAAAARAnAAAAAAABRAjAAAAAAQJQADAAAAAAQJQADAAAAAEQJwAAAAAAAUQIwAAAAAECUAAwAAAAAECUAAwAAAABECcAAAAAAAFECMAAAAABAlAAMAAAAABAlAAMAAAAARAnAAAAAAABRAjAAAAAAQJQADAAAAAAQJQADAAAAAEQJwAAAAAAAUQIwAAAAAECUAAwAAAAAECUAAwAAAABECcAAAAAAAFECMAAAAABAlAAMAAAAABAlAAMAAAAARAnAAAAAAABRAjAAAAAAQJQADAAAAAAQJQADAAAAAEQJwAAAAAAAUQIwAAAAAECUAAwAAAAAECUAAwAAAABECcAAAAAAAFECMAAAAABAlAAMAAAAABAlAAMAAAAARAnAAAAAAABRAjAAAAAAQJQADAAAAAAQJQADAAAAAEQJwAAAAAAAUQIwAAAAAECUAAwAAAAAECUAAwAAAABECcAAAAAAAFECMAAAAABAlAAMAAAAABAlAAMAAAAARAnAAAAAAABRAjAAAAAAQJQADAAAAAAQJQADAAAAAEQJwAAAAAAAUQIwAAAAAECUAAwAAAAAECUAAwAAAABECcAAAAAAAFECMAAAAABAlAAMAAAAABAlAAMAAAAARAnAAAAAAABRAjAAAAAAQJQADAAAAAAQJQADAAAAAEQJwAAAAAAAUQIwAAAAAECUAAwAAAAAECUAAwAAAABECcAAAAAAAFECMAAAAABAlAAMAAAAABAlAAMAAAAARAnAAAAAAABRAjAAAAAAQJQADAAAAAAQJQADAAAAAEQJwAAAAAAAUQIwAAAAAECUAAwAAAAAECUAAwAAAABECcAAAAAAAFECMAAAAABAlAAMAAAAABAlAAMAAAAARAnAAAAAAABRAjAAAAAAQJQADAAAAAAQJQADAAAAAEQJwAAAAAAAUQIwAAAAAECUAAwAAAAAECUAAwAAAABECcAAAAAAAFECMAAAAABAlAAMAAAAABAlAAMAAAAARAnAAAAAAABRAjAAAAAAQJQADAAAAAAQJQADAAAAAEQJwAAAAAAAUQIwAAAAAECUAAwAAAAAECUAAwAAAABECcAAAAAAAFECMAAAAABAlAAMAAAAABAlAAMAAAAARAnAAAAAAABRAjAAAAAAQJQADAAAAAAQJQADAAAAAEQJwAAAAAAAUQIwAAAAAECUAAwAAAAAECUAAwAAAABECcAAAAAAAFECMAAAAABAlAAMAAAAABAlAAMAAAAARAnAAAAAAABRAjAAAAAAQJQADAAAAAAQJQADAAAAAEQJwAAAAAAAUQIwAAAAAECUAAwAAAAAECUAAwAAAABECcAAAAAAAFECMAAAAABAlAAMAAAAABAlAAMAAAAARAnAAAAAAABRAjAAAAAAQJQADAAAAAAQJQADAAAAAEQJwAAAAAAAUQIwAAAAAECUAAwAAAAAECUAAwAAAABECcAAAAAAAFECMAAAAABAlAAMAAAAABAlAAMAAAAARAnAAAAAAABRAjAAAAAAQJQADAAAAAAQJQADAAAAAEQJwAAAAAAAUQIwAAAAAECUAAwAAAAAECUAAwAAAABECcAAAAAAAFECMAAAAABAlAAMAAAAABAlAAMAAAAARAnAAAAAAABRAjAAAAAAQJQADAAAAAAQJQADAAAAAEQJwAAAAAAAUQIwAAAAAECUAAwAAAAAECUAAwAAAABECcAAAAAAAFECMAAAAABAlAAMAAAAABAlAAMAAAAARAnAAAAAAABRAjAAAAAAQJQADAAAAAAQJQADAAAAAEQJwAAAAAAAUQIwAAAAAECUAAwAAAAAECUAAwAAAABECcAAAAAAAFECMAAAAABAlAAMAAAAABAlAAMAAAAARAnAAAAAAABRAjAAAAAAQJQADAAAAAAQJQADAAAAAEQJwAAAAAAAUQIwAAAAAECUAAwAAAAAECUAAwAAAABECcAAAAAAAFECMAAAAABAlAAMAAAAABAlAAMAAAAARAnAAAAAAABRAjAAAAAAQJQADAAAAAAQJQADAAAAAEQJwAAAAAAAUQIwAAAAAECUAAwAAAAAECUAAwAAAABEbXPOex0BAOAprutap3/Z932dAADg8VwAAwAAAABECcAAAAAAAFECMAAAAABAlAAMAAAAABAlAAMAAAAARAnAAAAAAABR25zzXkcAAHiK67rWaYwxxnEc6zTO81ynH/u+rxMAADyeC2AAALLO12u8zu8fAADekQAMAEDWNu6fDwAA3pEADABA1ufnMY7j+wcAgHfkDWAAAB7ttzeA/8obwAAAFLkABgAAAACIEoABAAAAAKIEYAAAAACAKAEYAAAAACBKAAYAAAAAiBKAAQAAAACiBGAAAAAAgKhtznmvIwAAAAAAz+cCGAAAAAAgSgAGAAAAAIgSgAEAAAAAogRgAAAAAIAoARgAAAAAIEoABgAAAACIEoABAAAAAKIEYAAAAACAKAEYAAAAACBKAAYAAAAAiBKAAQAAAACiBGAAAAAAgCgBGAAAAAAgSgAGAAAAAIgSgAEAAAAAogRgAAAAAIAoARgAAAAAIEoABgAAAACIEoABAAAAAKIEYAAAAACAKAEYAAAAACBKAAYAAAAAiBKAAQAAAACiBGAAAAAAgCgBGAAAAAAgSgAGAAAAAIgSgAEAAAAAogRgAAAAAIAoARgAAAAAIEoABgAAAACIEoABAAAAAKIEYAAAAACAKAEYAAAAACBKAAYAAAAAiBKAAQAAAACiBGAAAAAAgCgBGAAAAAAgSgAGAAAAAIgSgAEAAAAAogRgAAAAAIAoARgAAAAAIEoABgAAAACIEoABAAAAAKIEYAAAAACAKAEYAAAAACBKAAYAAAAAiBKAAQAAAACiBGAAAAAAgCgBGAAAAAAgSgAGAAAAAIgSgAEAAAAAogRgAAAAAIAoARgAAAAAIEoABgAAAACIEoABAAAAAKIEYAAAAACAKAEYAAAAACBKAAYAAAAAiBKAAQAAAACiBGAAAAAAgCgBGAAAAAAgSgAGAAAAAIgSgAEAAAAAogRgAAAAAIAoARgAAAAAIEoABgAAAACIEoABAAAAAKIEYAAAAACAKAEYAAAAACBKAAYAAAAAiBKAAQAAAACiBGAAAAAAgCgBGAAAAAAgSgAGAAAAAIgSgAEAAAAAogRgAAAAAIAoARgAAAAAIEoABgAAAACIEoABAAAAAKIEYAAAAACAKAEYAAAAACBKAAYAAAAAiBKAAQAAAACiBGAAAAAAgCgBGAAAAAAgSgAGAAAAAIgSgAEAAAAAogRgAAAAAIAoARgAAAAAIEoABgAAAACIEoABAAAAAKIEYAAAAACAKAEYAAAAACBKAAYAAAAAiBKAAQAAAACiBGAAAAAAgCgBGAAAAAAgSgAGAAAAAIgSgAEAAAAAogRgAAAAAIAoARgAAAAAIEoABgAAAACIEoABAAAAAKIEYAAAAACAKAEYAAAAACBKAAYAAAAAiBKAAQAAAACiBGAAAAAAgCgBGAAAAAAgSgAGAAAAAIgSgAEAAAAAogRgAAAAAIAoARgAAAAAIEoABgAAAACIEoABAAAAAKIEYAAAAACAKAEYAAAAACBKAAYAAAAAiBKAAQAAAACiBGAAAAAAgCgBGAAAAAAgSgAGAAAAAIgSgAEAAAAAogRgAAAAAIAoARgAAAAAIEoABgAAAACIEoABAAAAAKIEYAAAAACAKAEYAAAAACBKAAYAAAAAiBKAAQAAAACiBGAAAAAAgCgBGAAAAAAgSgAGAAAAAIgSgAEAAAAAogRgAAAAAIAoARgAAAAAIEoABgAAAACIEoABAAAAAKIEYAAAAACAKAEYAAAAACBKAAYAAAAAiBKAAQAAAACiBGAAAAAAgCgBGAAAAAAgSgAGAAAAAIgSgAEAAAAAogRgAAAAAIAoARgAAAAAIEoABgAAAACIEoABAAAAAKIEYAAAAACAKAEYAAAAACBKAAYAAAAAiBKAAQAAAACiBGAAAAAAgCgBGAAAAAAgSgAGAAAAAIgSgAEAAAAAogRgAAAAAIAoARgAAAAAIEoABgAAAACIEoABAAAAAKIEYAAAAACAKAEYAAAAACBKAAYAAAAAiBKAAQAAAACiBGAAAAAAgCgBGAAAAAAgSgAGAAAAAIgSgAEAAAAAogRgAAAAAIAoARgAAAAAIEoABgAAAACIEoABAAAAAKIEYAAAAACAKAEYAAAAACBKAAYAAAAAiBKAAQAAAACiBGAAAAAAgCgBGAAAAAAgSgAGAAAAAIgSgAEAAAAAogRgAAAAAIAoARgAAAAAIEoABgAAAACIEoABAAAAAKIEYAAAAACAKAEYAAAAACBKAAYAAAAAiBKAAQAAAACiBGAAAAAAgCgBGAAAAAAgSgAGAAAAAIgSgAEAAAAAogRgAAAAAIAoARgAAAAAIEoABgAAAACIEoABAAAAAKIEYAAAAACAKAEYAAAAACBKAAYAAAAAiBKAAQAAAACiBGAAAAAAgCgBGAAAAAAgSgAGAAAAAIgSgAEAAAAAogRgAAAAAIAoARgAAAAAIEoABgAAAACIEoABAAAAAKIEYAAAAACAKAEYAAAAACBKAAYAAAAAiBKAAQAAAACiBGAAAAAAgCgBGAAAAAAgSgAGAAAAAIgSgAEAAAAAogRgAAAAAIAoARgAAAAAIEoABgAAAACIEoABAAAAAKIEYAAAAACAKAEYAAAAACBKAAYAAAAAiBKAAQAAAACiBGAAAAAAgCgBGAAAAAAgSgAGAAAAAIgSgAEAAAAAogRgAAAAAIAoARgAAAAAIEoABgAAAACIEoABAAAAAKIEYAAAAACAKAEYAAAAACBKAAYAAAAAiBKAAQAAAACiBGAAAAAAgCgBGAAAAAAgSgAGAAAAAIgSgAEAAAAAogRgAAAAAIAoARgAAAAAIEoABgAAAACIEoABAAAAAKIEYAAAAACAKAEYAAAAACBKAAYAAAAAiBKAAQAAAACiBGAAAAAAgCgBGAAAAAAgSgAGAAAAAIgSgAEAAAAAogRgAAAAAIAoARgAAAAAIEoABgAAAACIEoABAAAAAKIEYAAAAACAKAEYAAAAACBKAAYAAAAAiBKAAQAAAACiBGAAAAAAgCgBGAAAAAAgSgAGAAAAAIgSgAEAAAAAogRgAAAAAIAoARgAAAAAIEoABgAAAACIEoABAAAAAKIEYAAAAACAKAEYAAAAACBKAAYAAAAAiBKAAQAAAACiBGAAAAAAgCgBGAAAAAAgSgAGAAAAAIgSgAEAAAAAogRgAAAAAIAoARgAAAAAIEoABgAAAACIEoABAAAAAKIEYAAAAACAKAEYAAAAACBKAAYAAAAAiBKAAQAAAACiBGAAAAAAgCgBGAAAAAAgSgAGAAAAAIgSgAEAAAAAogRgAAAAAICoLyucJZGVi+CAAAAAAElFTkSuQmCC;clipPath=inset(44.57% 49.33% 45.35% 48.33%);" parent="1" vertex="1">
          <mxGeometry x="1520" y="540" width="51.9" height="96.38" as="geometry" />
        </mxCell>
        <mxCell id="_ihUUyF4QGS6WQR9YeVK-68" style="edgeStyle=orthogonalEdgeStyle;rounded=0;orthogonalLoop=1;jettySize=auto;html=1;" parent="1" source="_ihUUyF4QGS6WQR9YeVK-65" edge="1">
          <mxGeometry relative="1" as="geometry">
            <mxPoint x="1960" y="599.9999999999998" as="targetPoint" />
          </mxGeometry>
        </mxCell>
        <mxCell id="_ihUUyF4QGS6WQR9YeVK-65" value="Agrandada" style="text;html=1;align=center;verticalAlign=middle;whiteSpace=wrap;rounded=0;rotation=-15;" parent="1" vertex="1">
          <mxGeometry x="1820" y="585" width="60" height="30" as="geometry" />
        </mxCell>
        <mxCell id="_ihUUyF4QGS6WQR9YeVK-67" value="" style="shape=image;verticalLabelPosition=bottom;labelBackgroundColor=default;verticalAlign=top;aspect=fixed;imageAspect=0;image=data:image/png,iVBORw0KGgoAAAANSUhEUgAAAMEAAADECAYAAAAmj0UvAAAAAXNSR0IArs4c6QAAAARnQU1BAACxjwv8YQUAAAAJcEhZcwAAEnQAABJ0Ad5mH3gAAANsSURBVHhe7dexilZHGIDh7yzZQmMv6TZgEwghlRcRTOEFCPabO8k9BAKJjQsWSxSUTWVjlcY+kCpgY+Ov4G4mhdj8WLrbvM8zTDPfVAfewznbWmsNhB3sH0CNCMgTAXkiIE8E5G1rrfXu7dv59/XruTjQxFVY28y1tzNfnO9PuBRrZr6cufnVzf3JzMcIHj97Nr/evz/fbtucb9v+HT6zw/czj3+Y+ftrIVyFi+1ijv46mucnz+fg8BMv+rXWenR2th5cv77WjH1F+87pLOvq1u3j2+u/3X/rUz6RBbSIgDwRkCcC8kRAngjIEwF5IiBPBOSJgDwRkCcC8kRAngjIEwF5IiBPBOSJgDwRkCcC8kRAngjIEwF5IiBPBOSJgDwRkCcC8kRAngjIEwF5IiBPBOSJgDwRkCcC8kRAngjIEwF5IiBPBOSJgDwRkCcC8kRAngjIEwF5IiBPBOSJgDwRkCcC8kRAngjIEwF5IiBPBOSJgDwRkCcC8kRAngjIEwF5IiBPBOSJgDwRkCcC8kRAngjIEwF5IiBPBOSJgDwRkCcC8kRAngjIEwF5IiBPBOSJgDwRkCcC8kRAngjIEwF5IiBPBOSJgLxtrbWe/Plkfv/xl/lu982cz8X+HS7Bu9OZizv7p1yGbbZ5+dPLefjzwzm8drg/nllrrbOzR+v69QdrZtlXtE9PF1fo+Ph47Xa7/eO11lo+h8gTAXkiIE8E5ImAPBGQJwLyRECeCMgTAXkiIE8E5ImAPBGQJwLyRECeCMgTAXkiIE8E5ImAPBGQJwLyRECeCMgTAXkiIE8E5ImAPBGQJwLyRECeCMgTAXkiIE8E5ImAPBGQJwLyRECeCMgTAXkiIE8E5ImAPBGQJwLyRECeCMgTAXkiIE8E5ImAPBGQJwLyRECeCMgTAXkiIE8E5ImAPBGQJwLyRECeCMgTAXkiIE8E5ImAPBGQJwLyRECeCMgTAXkiIE8E5ImAPBGQJwLyRECeCMgTAXkiIE8E5ImAPBGQJwLyRECeCMgTAXnbWms9ffrH3Lv322zb97Nt5/t3+Mzev5+5e3fm1q2Zc4/70m3bNi9evJiTk5M5PDzcH3+I4M2b3bx69c8cHJzPzLZ/h89s22Z2uw8xbB73pVtrzY0bN+bo6Gh/NPMxgv1DKPFPQJ4IyPsf3YQ17Npf3dMAAAAASUVORK5CYII=;" parent="1" vertex="1">
          <mxGeometry x="1971" y="524" width="193" height="196" as="geometry" />
        </mxCell>
        <mxCell id="_ihUUyF4QGS6WQR9YeVK-72" style="edgeStyle=orthogonalEdgeStyle;rounded=0;orthogonalLoop=1;jettySize=auto;html=1;" parent="1" source="_ihUUyF4QGS6WQR9YeVK-69" edge="1">
          <mxGeometry relative="1" as="geometry">
            <mxPoint x="410" y="889.9999999999998" as="targetPoint" />
          </mxGeometry>
        </mxCell>
        <mxCell id="_ihUUyF4QGS6WQR9YeVK-69" value="Codigos&lt;div&gt;&lt;br&gt;&lt;/div&gt;" style="text;html=1;align=center;verticalAlign=middle;whiteSpace=wrap;rounded=0;" parent="1" vertex="1">
          <mxGeometry x="635" y="825" width="60" height="30" as="geometry" />
        </mxCell>
        <mxCell id="_ihUUyF4QGS6WQR9YeVK-71" value="" style="shape=image;verticalLabelPosition=bottom;labelBackgroundColor=default;verticalAlign=top;aspect=fixed;imageAspect=0;image=data:image/png,iVBORw0KGgoAAAANSUhEUgAAA6cAAAENCAYAAADzBBPRAAAAAXNSR0IArs4c6QAAAARnQU1BAACxjwv8YQUAAAAJcEhZcwAADsMAAA7DAcdvqGQAAKbKSURBVHhe7N13VBRXG8DhH+xSF8UCgqgggkIEBStgF8WKYouKDRV7NxpjEj97YjTGFmM3xsTYjd3E2LvYC3YUsUSxIyyd5fsD2LALtkRdo+9zzp6j996Z3R1m9t535p07RrYO7ukIIYQQQgghhBAGZKxfIIQQQgghhBBCvG1G//TKacmPKpK/gB2mpmYYGQEY6TcRQgghhBBCCPFc6aSnQ3JyEo8fRXPlwjH9Bh+MVw5O7RyccXIuTbz6KQ/v3yX26WOSkhNJT3+l1Qjxj/hVa8Ch/X/oFwshhBDiPSD9vPgQGRkZYWZqTp68+Sloa4+lKi9RkeeJ/itSv+l775XSel3dylOkmAsRl89w8fwJ7t//i8SkBAlMhRBCCCGEEOIfSE9PJzEpgfv3/+Li+RNEXD5DkWIuuLqV12/63nvp4NTVrTzmFirOnjrM05hH+tVCCCGEEEIIIf6lpzGPOHvqMOYWqg8uQH2p4NTOwZm8+Qpw6cJJuUoqhBBCCCGEEG9Qeno6ly6cJG++Atg5OOtXv7deKjh1ci7N9WuXJDAVQgghhBBCiLcgPT2d69cu4eRcWr/qvfXC4NTVvRzx6qeSyiuEEEIIIYQQb9HTmEfEq59S8qOK+lXvpRcGpwUK2PPw/l39YiGEEEIIIYQQb9jD+3fJX8BOv/i99MLg1MTMgtinj/WLhRBCCCGEEEK8YbFPH2NqaqZf/F56YXBqbARJyYn6xUIIIYQQQggh3rCk5ESMjPRL308vDE7BSCZCEkIIIYQQQggDyIjFPozo9CWCUyGEEEIIIYQQ4s2S4FQIIYQQQgghhMFJcCqEEEIIIYQQwuAkOBVCCCGEEEIIYXASnAohhBBCCCGEMDgJToUQQgghhBBCGJwEp0IIIYQQQgghDM7I1sH9uQ8xre7fkkP7/9Avfu2KOzlRs1ZN8lpbo0nTcP7COQ4fCiMhIUG/qfiA+VVr8Eb3x/z58+HnVwUXVxcArl29xrFjx4iOjta2cXJ0JDg4mJTUZJb+uow7d+9mW8Ob0bxZEJUqV2bPnj1s3fqnTl3LVi1o1LAhtoUKkRCfyO49u5g9a85zl3nT7Ozs6NevLzY2BUhJSWX16jXs3btPv5kQQgih4031826l3MhrnUe/WCs1LY3rkZE8fvyEsmXL0rZtG6JuRPHz4l/e+bGoWyk3evbsjoWlOQnxicydO59Lly/pNxP/cX7VGrBv5xr94veOwYPThg0bEdK5E7Y2BTEy0n24bEpKMocOhTFl6lSexjzVqROvT9aJAVs7W35ZvEQnEHvXvKlOS6FQ0L1HN4KaBmFmZqpTl5aWxvkLF5gyeQpRN24wadI3VKxYEYB9+/YxatQYnfavW61aNRky9BNUlipiY2MZPWYsJ0+cBKBPn940b94MhUKhbX81IoJfly7TLvPkyRNGjx7LmTNnsq31zSru5MSEb77Gzs6OlJRk5s2bz5o1a/WbCSGEEDreVD8/f94cXFxd9Yu1svqq/fsP8u3kSRQtUoS0NA1Lly1j0Y+L9Ju/UypVqsj/Rv4PK5WKOLWacWPHcfToMf1m4j/uQwlODZrW269/PwZ/MoBCtjY5AlMAExNT3NxKUSBffv0q8ZpUqlSRGTNnEBLSiQrlymNhbq7f5IPQLrgtLZo3yxGYkhm4uruVomKlCvpVKBRK/aI3ysjICFMTE8i8Ounr54tCoSA9PZ379+5z6dJFbt66jZmZGcZGGYe3QqFAofw7eBVCCCGEEOJdZLDgtEXzZjRu1Ahl5uA+LS2NqxERbNiwkbXr1rNr524ePXrMcy/rCvGaVK5cGaUyI+i7d/8B06dN57PPhjN//gIuXbpISkqqtu0PM2dx+NBhDh86zPx587Ot5c3YvXsPy5ct51z4OVasWEFY2BEAHB2LkS9fPgAePXrMqNFj6N27H2PHjmPr1j9ZunQp58LPsXLlSu2VViGEEOJDd+rkKdauW6/z2rB+E+cvXCQ6OprZs2dz8sRJNmzcyPJly/UXF0K8QQZJ681rnZepU77D2dkZgKcxMcz4fiY7d+7SaadQKKhdqxZnw8O1qaYeHh60atWS0qU9MDNVcuPmTfbs2cO6dRtIS0vTrr95s2bktbYmKTGRffv306pFS7zLleXJkxi2/P47a1b/Rm3/WnzcqhUOhQtz+/ZfLFn6K4cOHgagsL09TZo2wczcnKcxMezft59mzYOoXNkXgCNHDud6v2H+/PloG9yWypUqUdDGhocPHnDi5ClWr1ylbZvb52verBleXt4AhIUdYtGin3j8+InOuitVqkjLlq1wdnbWfvfNm7fo3E/YqEFDXEplpK0cO3YUVxdX/P1rkz9fPq5evcbin3/hzJkzfFT6I/xr1SavdV5q1KiBmZlpxvc8cICE+ER27t7FhfMXAKhfvx6NGjWkaNEiAFy9eo1Vq1YbJGXkbaT7/LZ2HTO/n6lTX6FCBVLTUjl96rTONr56OYItf/wOmftrq5YtqVPHn0KFbLX7lGNRRwrZ26FJTdNuVx+fylT28dGuI93IiObNmlKokC1/3bnDqtWr2bVzN+jti0mJiWzcsJEaNWpQwqVEjr9dUnIK9+5Gs3fvXp39d+26dTqp8ZUqVaRJYCAuJV2xUqm4f/8+p8+c1e6nWftxhfLlsbW1JTExmfPnz7F69RrOnTunXQ+Z37tdu2Dtfnb5yhXWrPmNQYMGPjOtt2rVKgQFNcXFpQQA1yOj2LxlS47fACGEEB+Wt9HPr1q9mtmz5ug30WrTunWOfjvLi8ZiuY3xXnUMqr+OrX9spUGjBlSrXg1Lc3POhZ/n51+WEBERof1Mz0rrtbCwoHmzIGrVqoWdvR1xajVnT59l9Zo12uXFf8OHktZrkODUx6cyX375BVZWVqSlaVixciUL5i/Qb5ZDz149aNG8GSYmuqmX6enpXLp4kS9H/I/Hj5/o3O8WHx/Po8ePKVokI7ACSE1N4dChw1Su7KOTxvk0Jobvpkxj3759Ogf6/fsPUatjKV68uLYtwJ27dxkzegyXL18BwNfPlyGffELBggV02gE8efKEqVOns2/fPp3Pl5iQyMMnjyhS2EGn/cULFxj+xZc8jXmKQqFg8JBB1AsI0F5pzqLRaDh44CBjxo4jLS2N8ePHUaWKHwCRkZE4Ojrq3I8YExPDxEnfUsShMD16dM+xLcl238XOnbsYNuwzKlWqgLGx7kX21LRUNmzYlCOIe9PeVKf1/YzpeHh6ABCnVrN+/QZ+W7MmxwkCQGcbHzx4iBEj/odCoWDMmNH4+fnqpKjHxMSQnJSMbSFbnSCtd59efNyqFQA3b92ikG0hnX0xKSmZ+fPm8dvadbl2Oj26d3vmvTNXIyKYN3+Bdpno6Gg+H/4F16Oinrsvkdlhb964ma8mjKeIw9/HTJbEhEQWLvqRNat/g8yTMV+NH4ebu7vO905ISCA9PR1LS0ud761QKPjii8+pUaO6zn5JLvuyEEKID8+b6udfJTjNaqvffz2r/8zefxUrWvRfj0GzjxPV8WquX7tOaY/SOv3ss8as2YPTUqVKMvzz4RR3ctIul0W/Pxfvvg8lODVIWm/RokW0B2Rs7FOOZKYpPk+jRo0IatIUExNT0tPTeRoTw73oe6SlpWFkZISbuzuDBw3SXwxLS0vs7e24eesWiQmJACiVJlSvXp10jYabt26RmpaRspnX2pr69evprQFsbQvi5OREYkIi8fHxaDQayLyi1a1bqPbfvXv30gamSUnJ3L7zF0lJyQDky5ePnr165PiBMLcwp7CdPdHR0RlpzOkZ5wqcnUtQza8qAM2aNSWgTh2UCiUpKckcOXKMXTt38zQmBmNjYypVrkyDBg101puxDmfi4+O5dfu2drBvbW1NHX9/kpNTiYtT63yftLQ01PFq4uLUJCen0r5DBypWzAhM4+Pj2b17D4cPhxEfH49SoaSOf23KlS+n967/Tbt27dL+raxUKtq3C2bFyuXMnTM7131CX0jnEHx8KmNkZIQmc7+6GhGBubkFtoVs9ZvrKFa0KOkaDVE3bpKSkvEZzMxMqV27tn5TrfiEhNz/dmo18c+ZVTCkcwj1A+ppO9bk5KSMZbKty9jYGKVCSVJSMtevX+dqRIT22DG3MKf1x20oVaokAO07dKBkKTeMjIxIT0/n0aPH3I2OxtTUFEtLy2zvnCGkc4g2MNVoNDx8+IiHDx+h0WgwNjbGr4ofPXv20F9MCCGEeG0+btWKnTu367zmz3t2sMo/HIu9jjGoylKFh6cHyUnJqOPV2bIErencuRN5rfPqLwKZWU19+/XVjjtT01K5fecv1PFqyOzPO7Rvj69fRkagEO8KgwSnJiam2rM/SUlJPI2J0W+SQx3/2phbZEzWc+rUaYLbdaBtcDsWzF9ISkoyRkZGlClbJkewlJamYeXK1YR06swPs2ZrA5D4+Hgmf/cdIZ068/uW37VBoV0ugURamobNmzfTpGkQgYFN2bh5C2lpGQN5Z+cSuLu7U6eOP4UL2wPw8OEjhn/+OR3bd2LgwIHci74HgF0hO+rWC9BZd3p6On/88QfBwe3p3r07N27eAsDM3AynEhk/KLVq1sLExJS0NA1b/viT4cOHM278eGbOnEViQiJmZqZ4e3vprBfgelQUnTt3oVPHELZt264tL+7kyMaNG2nZ8mPGjBmrDWYePHhA/74DaNnyY44cOULlypVQKIxJSUnml5+XMHbsOL744ktWr1pNaloqVlZ58PbOSEX+r/tt7Tpmz57N48ePtWVKhZKSpUry6adDmfLdZPLnz7i/M7us6eUrVaqgvRJ4JOwIXbuE0r1HL7799lvi4+P1ltL14MEjPh32GV06d2HZ0uXajsrG1ibHyYzUlBSSkpIZOHBwrn+7pk2CGDhwsM4yWezs7KhVq6Z2AqVjx44RHNyepk0y9uv+AwZy8uQpNBoN2/7cRosWLenatRvde/Ti8y+/5OHDRwDky5eHMmU8sbOz0+4j6enpHDp0mDZt2tIuuD1Lf11KamqKzvvntc5L9WpVte//55/baNs2mI8/bq09phQKBX5V/Shsn3EsCSGEEO+CfzIWex1jUICwsKO0aNmKJoFB2nEvmf16hfLl9ZsDUKNGdVxKZNw6Ex8fz5TJU+nYvhOdOoZwJTPjz9ramoC6dfWWFMKwDBKcpqQkaw9ElUqFnb2dfhMdjsWKYe9QGDKXPXzosDYo+H3rH/z11x0ALC0tKOGsm3qbmJRAeHg4APfuRZOSOWCOjY3l2tVrANy4cSPHQDq72NinbN++U3u2auvvf/DkSUa6p4WFOYUL21OyVEnt1agrV65w+tRpAC5fvsKx4xl5/wqFcY5gIyEhgePHTwDw+PETbt/KCE6zFHdywsbWRvt/by8vZs+eyezZM2kb3AalSUZAZGFhkW2pDOfPndOmpV69GqH9MXsZ2SfbMTIyIqBeXe371qxdGyOMUSiMMTc301/0P2vDho106NCJqVOnc/HiRe32MjY2xsvbi759++ovwqPHjyju5EQ+64xtlZKSzPETx7X7yrHjx7l//77eUrpu3ojS3sd57vx5EhOT9JtovezJnNw4FHHAOm/GGVa1Ws2aNb/ppC1fOH+Bw4cOc+PmTXbs2Mnw4cNYs2Yl69auoVXLlty8cQMyTy4VsrPTWV98QjybNm/Wfu+9e/fx+JFuSrSLiwsFCmRkFsQnxLN3375cjynrvNYULVZUZ1khhBDidcltQqTt23fqN9P6p2Ox1zEGTUpMYt+evbmOe03NTCnioHtbWJaSJUtqP8/du3fZtj3jIsXjx0/Yt2+f9kS4o/S34h1jkOD01q3b2rNHKpWK6tWr6TfRYWxsjHHmldaUlFQePHygrXsa85TUlIyD2sjIKMc9lOnpkJb690yr/4R+QJCYkKD9IVEqFeTNk0fnkSKPHj3U/htAne3KmalpxoywWTTp6cTFxemUPYtCYYyTYzHc3Nxxc3OnRIkS2hlmc5P9ff8NpdKEEiVKaN/XybEYCoVBdp03LiEhgY0bN9KnTz/69h3Ardu3IXPfKuVWCju7559I0WdhboFCmfPezuwSEjNSfd40pUKBUea9w0lJycQ849nBxZ2c+GrCV1SvXp18+fJjampGxQoVKFO2rE677OtLTEjiSbZANy0tDU16RnZBlue1z35MGRsZYW6e82SLEEII8TpcuRrB9zO+13mtWLlSv1muXmUs9jrGoClpqdx/+PdJ7uzjXoWxAkuVKlvrvymUCm2WYsyTGJ25HBISE0jPvJVHoVTmCKqFMCSDRBjHjh3nRlTGVRgjIyPq1KlLl65d9JthYWFBl84hFChYkMTMAbyZmbnORDDu7u7ky59xNUaj0ZDwmgKy7PLkyYNziYyZhQGKOxfHKo8VZA7yb9y6xZMnf6eDFncqrjPZi2sJF+2/s858vaxHTx5rv3tqagqLflyEv3/dHK8RI/6nv+i/EhsbR1LmFbz4+HjGj/8qx3v6+9d97oQC/yWfDhuKXxXd+y4iIiK4lZlmDWCiVOb6HNibt25pZ8I1MTGlYsXK2h/6unX9n5mm87Zl/5taW+ehUsWcz20FqFatKoUyP3PY4TCaNA2iXfv2XLt6Vadd9vVZWVnh4vL3fp6/YAHM9bbV89o7l3AmT548kBnYxqlf7oSNEEII8aYZaiwGYG5uhlupUtr/lypVkrzW+SEzWyta76kRWWJjnmqvjhYqbKdzu4yzs7P2Yk5SctIrj02FeJMMEpympaWx5fc/tDeHm5mZ0qF9O1avXsWkSd8wdOgnzJo1kzWrV9G8ZQsUCmPOnDlDeno6CoUxTQIb06Z1a6pXr07/fn0pUCDjIL3/8CFHjhzVe7d/z9LSkpDOITRq0JBGDRrSuUtnVJYZZ6oePHjA1atXOXbsuPYmczd3N4YP/4xKlSoydNgQPMtkzAKblJRxA/2reBrzVPvdlUoTPm7Tmq6hXbXBT6lSJRn+2WcEBOjey/pvXbx4kcjIjJQTS0tL+vTpQ9OmTbRBd7ny5Rg9ehQeHhnf7b+ulKsr48aOZcmvvzD8s8/oP6A/I0f+j7Jly2jbPLj/gOtRUTrLkbk/hx09qj0r6eNTid/WrGbTpg107txF56q6IWX/myqVJrRp24Zhwz7F18+XgLp1+frrr/jii8/JY51Xm6KekJhIWloaT5/GolZn7N9Zrly5ou0UzcxM6dipI0FNm9CoQUMGDhyAtbW1Tvvs729mZkrHDu21x1RI5xDtBEo3b9zkzOkzOssKIYQQr0vVqlW1ablZrxkzplGjRnX9pmDAsRiZ8180a96cli2bU716dQYOGICNTcZFmZiYOC5cvKi/CABHjh7l8aOMrD8H+8IMGfIJvn6+dOvejRo1a0LmPbHHj8tz0MW7xSDBKcCWLVtYtWaNNr3XyMiIAgXyU7FiRRo1aoS7u7t2AiSAzZu3cDfzWad58uShZ68ejBkzio9Kf4SRkRFJSclsXLcxx3NHXweNRkOxokUZOmwIQ4cNwbFYMcgMNjdv2szTmKfs27ef06eyAmgFder4M3HiNzRq0FA7w/Dx48f5449Xnx597W/ruP3XX5A5k2yH9u3YvHkjO3duZ86c2dT2r0nevBlXcl+n39au004QVKBAfgYNGsi2bVvZuXM7303+lvIVymNp+f6kghgbG+NQuDD16gdkPhOspjZgSkpKZteuZz+Dc/FPi9m79+97KM3MzbC0tCQi4jJRuQS0hpL9b2ppaUmDBvX5+qvxfP7FcHx9fbC0tOTC+QvaEy3Va1Tjx0UL+XHRQsp66ab1pqWlsXPnTu0xXMjWhoGDBjJ02BAcCttrTz5lt3HjZm2KfCG7QjmOqacxMaxYuUon/UgIIYR4nRwKF9am5f79KoVttvtK9RlqLJaenk6+fNb07dtXZ9yblpbGnj27tY8z1Hf58hX2H9hPWuZTLcpXKM/XX42nXXBbrDJTgSMiLrNm9Wr9RYUwKIMFpwCLflzE2HFjuXzlco7BaHp6Ok+ePGHz5s2cOHGSy5ev8MXwLzgbHp6j7YMHj5gxYyYrV63SKX9dHtx/QNjhMG16BJk3sy9btozf1q6DzIH6qFGj2bBpc45BeVJSMps3b+arr77O8dlfxvWoKD779DOOHj2WY1IjjUbD7dt/EZF5Y/3rdPjQYUb8byQXL17M8bnT0tKIjIzUSXv9L5s4aTKnTp7KsX0BHj16rH3m6LOkpaUxbtx4Ro8ew9p169myZQs//PADk7+dgnnmmdWUlFQePfo7/dsQDh86zNdff8P1qCjto2OyJCYkci0ykt2797B16zZS01JRKpQUd3LC0sKSSxcv6bQnM9hduWKFzj6fmpbKn9u3c/t2zn1j3759jBv/dY73T09PJ+rGDSZ++y379u3TWUYIIYQwNEONxdTx8ezYvkN7IpjMceWmLb8zd+48nbb6vp/xPb/8soQYvYkUU9NSOXjwEGPHjM/1ee5CGJKRrYN7xrS5z1Ddv+UbeRiyvvz581Hc2RllZtro/Xv3c02hJHPqbEfHrCstsVy6nHPQ/G9lf6BxdHQ0nw//goTERBwdi5GSmsqli5eemaNvYWGBm7sbJkrlC9u+quzrBrhx4ybRmVeU36Tsf5/UtDSuR0Ya5AftTT2cO4tCoaD0Rx9pr9q/7P5lZ2dHGU9Pdu3erRPIt2ndmq6hnTExMeX+/Yf8738jnnmW823LfhwlJiRy/sIFnc+eVf8y+3D2/eNl98niTk7aZ8A+73gXQgjx4XjT/fyLKBQK5s6dTYkSJUhJSWbevPmsWbNWp82bHosVd3JiwjdfY2dnR5xazbix44iIiKC4c8b8J686Bss+tjHkGE78O37VGrBv5xr94vfOOxOcvmtyC05l8Gx4hu60nqW4kxNff/M1piamXLx4keh79yjl6orbR24oFUrS09PZtWs348d/pb+oEEIIITIZqp/38PAgOLgtmrQ0fHwrY2JiSnJyErNnzWH9ho36zd+o3ILTo0dfbc4S8f75UIJTg6b1CvE+Mcq8N7dKFT+aNwvCw9NDG5heuniRH374QX8RIYQQQrwDLC0tKOtVlmrVq2lnso2MjGSv3GoixFslwekzPI2JJeLyFS5dukhExNW39ixK8d90PSqKKVOmcuzYMR4/fkScWk1sbCwRVyKYN3c+/QcMkhQaIYQQ4h116+Ytrly6TGxsLE9jYjhw4CDfTJhkkL47ITGRiIirGWPQy1d4GhOr30SI95ak9Yr/FEOl+wghhBDizZN+XojcSVqvEEIIIYQQQgjxlkhwKoQQQgghhBDC4CQ4FUIIIYQQQghhcBKcCiGEEEIIIYQwOAlOhRBCCCGEEEIYnASnQgghhBBCCCEMToJTIYQQQgghhBAGJ8GpEEIIIYQQQgiDk+BUCCGEEEIIIYTBSXAqhBBCCCGEEMLgJDgVQgghhBBCCGFwEpwKIYQQQgghhDA4CU6FEEIIIYQQQhicBKdCCCGEEEIIIQzOyNbBPV2/MLvq/i31i4QQQgghhBBCvEX7dq7RL3rvvFRwuvP3X/SLhTAI/4YdZX8UQggh3lPSzwuRO/+GHT+I4FTSeoUQQgghhBBCGJwEp0IIIYQQQgghDE6CUyGEEEIIIYQQBifBqRBCCCGEEEIIg5PgVAghhBBCCCGEwUlwKoQQQgghhBDC4CQ4FUIIIYQQQghhcBKcCiGEEEIIIYQwOAlOhRBCCCGEEEIYnASnQgghhBBCCCEMToJTIYQQQgghhBAGJ8GpEEIIIYQQQgiDk+BUCCGEEEIIIYTBSXAqhBBCCCGEEMLgJDgVQgghhBBCCGFwEpwKIYQQQgghhDA4gwWnPr5+NA1qluNVo1Zt/aavTKVSMXLMOBYtXkLToGb61ULkoFKpqFevPg0bB2Jnb69f/d6rUas2S5evZsGPi/EsU1a/+h/xLFOWBT8uZuny1f/4uB41djxr12+iT78B+lVCCCGEEOI9Y2Tr4J6uX5hddf+W7Pz9F/3if23hop/x9auiXwxAWloaVyOu8P2MaezcsV2/+oVG/G80bYLbYWxszO3bt/lkUH/Cz57Rbyb+g/wbdnwj+6OPrx/fTJyMysqK8WNHsWH9Ov0mL0WlUuH+UWmOHzuqX/VWqVQqFv70Cx4enmzetJHhw4boN9HRNKgZI0aOQR0Xx/DPhhJ2+JB+k1f2OrZp1u/EmjWrGPnl5/rVBtGi5cd8Omw4AN9O+obf1qzSbyKEEOIfelP9fCUfH9oGt6ecd3lUKhXR0dHs2LGNBfPmoFarAfCvUxf/OnVRKJT6i5OWlsrOHdvZuWM7Ts7OBAe3x9o6n34zAK5EXObH+fP0i99pffsPILR7Tx4/fMQXnw97LeMA8Xr5N+zIvp1r9IvfOwa7cvo8CoWCUm7ujPjfaKrXqKlfLcQ7qWHjQLbt2MOo0eP0q946m0KFUFmqMDIywsLCUr9a/At5rfNiamaK0kSJqZmZfrUQQoh3TPsOnZg5cw4NGjTCzt4eqzx5cHF1pXuPXsxfuBgnZ2cAPDw9CQwMypHV1zSoGYGBQXh4egJgb2dP/foNc7TJelWtUk3vE7yYnb09g4d8yoSJk+ndtz8qlUq/yRuVJ09elAolSlMTTE1N9auFeGveieD02rVrbFi/jg3r13Fg/z5SklMAKGRnR9Og5vrNX2j+/Dls2rCeUydPMHf2TLlqKt4KE6USpYmJfrFBREVGMmhgXwb0680Xw4fqV4t/4acfF9KnVw/69enF8qVL9KuFEEK8YwoULEBcXBw/zJyBf61q+NeqxsqVy0lOScbDw5MWLVrptD954jiffzZU5/Xll8PYsnmTTrv7D+4z4atxOdrOmztbp93LiL57l9OnTlKpUmV69+nHd9NmvNXbjL75ejz9+vaib68e7Nu7R79aiLfmnUjrPXzoIKFdOmnrfl22Eu9y5QE4dfIE7YNbQ+ZZpQ4dQ6hZszZ2dnao1WrOnj3LyhXLOLB/r3b57GkZd+/eYfrU77R1L7sO8W56U+k+uaWglvX2pnmLVjx5/Jhdu3bQsVNnXF1cSUxMZOvW3/npx4UANGveEh9fP1QqFdVq1ODpkxgOHTqokwIE0Kp1GwKbNMU6rzWpaWmcPnmS+fPnEH33LsBLv1+WqtVq0DEkBLtCdmjS07ly+TJr1qzkaFgYAF2796CkaynCDh9i3dq/00DKensTHNyBUm5uaDQa9u/bS9T163wxYmSOtN66AQG0at1W+x6XL11i2bIlnDl1Srs+Mo+r7t174VWuHMbGxoSHn2X7n1sZO+7rl07r7dAxhPoNG2KlsiL6XjS/LF5M19Buuab1uri6EtIlFA8PT4yNjLh//z6bNq5/4XsMHDyEfPnzs2XzRgKbBOHq4sqWzZv4dcnPoPc9lApFruvN+jslJSaybNmvREVGauuaBjUjsEkQtra2uf6NhRBCPN+b6OfLla9AUlIi58+d0ynPGose2L+PHt260H/gIEJDe3L8+FGdcam+rDED8NpuhclS1tub0WPGUbKkG+fOhfP1V2Nz9LnZZR87HDt6lI4hIQAsXDBPOx6oWq0GrdsE4+hY7Jl9edbY+f79+zrjZpVKRddu3alSpRrm5ubEqePY+vvvLPllsbbNs2T1uWt/W0358hWoX78h5ubm2j4++7h74OAh2Nra6oybyDbGyj6W6dq9ByWcS7B39y4+8vDE19ePQwcPMGP6VHjJvvy/6ENJ61Wo8tiM1i/Mzsm5NJERr//KY1Cz5hQtVgyAW7dusmH9Wm1dk6ZBFClaFIAbN6JYv+43qteoyeQp06lduw4FChTA1MwMKysrSri4UK9+fczMzAgLOwxAYNOmtG3bntIeHuTLl59lmVc3XmUd4t3kXNLrjeyPRYsWo25APUxNTdm7ZzeXLl3Ex8eXbt17UszRkcaNAilXrjwFbWyws7fH17cKjo5O7Ni+jXYdO9G8eUtKlHBBqVCiUqlwc3fH1aUkt27f5Fz4WWbMnEXHTp0pWrQYBW1ssLUtRJmyZalV258bN6K4ERX10u8H0Dq4HaNHj6VkKTes8lhhY2PLRx+Vxs+vKuHhZ7nz11/06z+QOnUDeBLzhF07d0DmsTVu3ATKV6iAjY0ttraFKF+hIoUdHMifPx/Jycls3/4nt2/d4rMvvmTop8Nxdi5BQRsbbGxscXN3p3q1Gly7dpUbUVGQeR/Pd1NmUKNmLWxtC2FjY0vp0h54limLmYU5JkoT7TbNjUqlYtJ30+jYKYQiRYpS0MYGJ6fi1KpVm7S0VAra2HDhwnntd2jR8mO++fY7KlSoiI2NLQVtbHB0dKJmzdoULlKE3ZntcvPliFGUL1+B0qU9MtoXdsDExIQN69dSvUZNps+YTZWqVbG1LaRdb63a/jgWc2THjoxtn/V3cnR04vChg9y+dQuArydMomfvvhQv7qzzNw4IaMD169e020sIIcSzvYl+/u6dO9y/f1+/GF9fP9w/+oibN26wccN6fHx9KV++Infu/KUzLtWXNWYAtH3m6xJ99y67d+/Czc2d8hUqUtnHlzt//UVk5DX9ppCtTyparBh16wTg4eGJQ+Ei3L8fzZGwwwwYOJgvRvyPUqXcdPrygLr1iFXHcS78LGQbOxcsWFA7bnZxdWX2vAXUr98Ie/vCFLSxoXBhB6pVr4F3ufLs3LGdlJSMbMfcZPW5RYsW5ePWwRR2cNDp45/GxWrf/8sRo6hUyYdbt29yJNtYPGuMlX0s06//QGrV8sehSBEaNGxM4cIO5M9fgGVLl7x0X/5f5FzSixuRF/SL3zvvRFqvmZmZNk9/5OixeHiWAe3ESBGoVCr6DRiEk1NxAFJTU/nr9l/Ex2fcwG5mZk5wuw60aPmxznqzex3rEB8mh8IO3Lp9k+C2rahcwYsVK5ahSdPg61cFH18/Vi5fxuefDWXm99OJj1cTFXVdJwWoR68+VKlSnXi1mm8nTcDD3ZXOIe25cvkyjo5OtPq47Su9H0DdOgGorKzYtHED5b088fJ0Z9zY0URGXkOpzDmRA4CTszNdQrthY2tLePhZOoe0p3IFLxbMn4ujo1OOe1PNTEw5ffokA/v3xsPdlR7dunLt2rWMM5I9e2nbde/eC+cSJbhxI4qhQwbh4e7KxAlfkSdvXgrkL6Czztx07hpKzVq1SExMZP68OVSu4EXnkPZE3YjCxbWkTlsnZ2e6dutBgfwFOBJ2mKaBDahcwYufFi1Ag4a6dQKoGxCgs4w+CwsLihYpyvx5cxgzZiRhhw/j5OzM4CFDKexQmJMnjmu3za9LfiYpKYkGjRrRrcff31lf3/4DaNC4MYkJCfwwcwaVK3jRo1tXLl68QGGHwvQbMOit3z8khBDi2VQqFaXc3dFoNDlOHnp5e3M6/CLnLkYQfuEKu/ceJLR7T502APnzF2D23PmcuxjBuYsRHD1xmm+nTHtuOm7WLPTPe82ZuwAbGxuexsTg6OjE6HFfvbBvK2xfmLi4OMaMGcnMmdOJun6dFi0/JrhdBzAyYuXK5fjXqkZw21aEHT6EVZ48hHbrQVlvb/1VaX02/EtKlXInMjJSOxaY8t23PIl5jK9fFQZ/8qn+IjmYm5tTrnxFfvttNf61qtE5pD3h4Wdf6v2fR6FUULKUG2vXruF/X37Oju1b/3VfLt4N70RwWq58BSZMnMyEiZNp07YdKpWK9PR0zp8LZ9myJQQ1b4GLiwsACQnxTJv2HQF1atC2dUsirlwBIK+1NQH1Ms5i5eZ1rEN8mOJiY1mxfClnTp1CrVazeeMGHj16iMrKCjs7O8LPnmHD+nXcvnWT9HRITUllw/p1bN64kasREVSpWg1jhTFbtmzSpuYeDQtj5cplJCYmUMLFRSdwedH7PcvypUsI7dLpmelFdeoGULy4M/fv3WPK5EkcDQtDrVYzbcpkdmz7k/R03Qz/uXNn07tHN7ZvyzjLeGD/XpYt/YWEhHiKFilGhYqVqNegIZ6eZYiLjWXhgnn8nnk/zs+LF7FqxTLSUtN01pmbWrXrYKI0YfufW5k2ZTJqtZqjYWFMmTyJhw8e6LStUzcAB4fC3PnrDlOnTuZqRARqtZpvJ37DhXPnUKms8PDImLDiebZu/Z3pU79j5bKlzJs7S7tt7vx1h0mTJmi3zdfjx7Jv3x5MTc2oXdtffzVaWd9h8+aNzJo5A7VazYH9e5n9wwwePX6Ei4sLQc1b6C8mhBDCQLr16IWrS0nuRUezbdtWbXlKajJ37txl965dbN+2jei7d7GxtaVv/wH07f/3Y83S09N5/PgRJ44fZ/OmjVy6dAETpSkNGzZm3PgJ2nb6HIs5UsrN/YWvkqXcsM6XMRuwuZk5lpbPP8EZr1Yzb94sVi5byoJ5c9iwfh3+deqS19qasEMHGTNyBNF373Lm1Cm+Gj+GW7duZk7s1EB/VQDa/j326VPmzP5eOxZYOH8uG9atJV2TTtXq1bWTST2LsbEx+/fv1b7/0bAwvho/hjt/3cHO1o6aNWvpL/JSjI2NOX7sCKNGfMFva1YxfdrUf92Xi3fDOxGcPnn8mLS0jEGsRqMh4soV5s75gdAunbgaEUHJUm6Ym1sAcOfOXVYuWwrA1YgI9u/fQ2pqKgBFimSkCefmdaxDfJgePHzI7p07tf8/fuwocXFxOm2excfXD5uCNmg0Gir7+OmcGQ1u1xETpSlWKpXOs0Vf5v2279iGOi6OxoFNCDt2iqXLVxPSJfS5V+eKFXPE1NSM69cjcwSwx44dJTExQacsLjaWfgMGsmffQY4cP82efQfx8iqHRpOOkZERSqUSFxdXLFSW3H/wQBuYZjl27BgxMY91yvRVqFiJggUKkpiYwDG9x++EHT7E9et/388JULy4M2Zm5lhaWjBmjO7ZZ8fixTExNaGgbSGdZfQlJSUSEZFxQipL1ra5detGjnt7jmdum8KFHahQsZJOHXrfIfxsRnpSlu3btnEzKgpzcwtKlnLTqRNCCGEYHTqGEBzcHg0a1m9Yq+0T1/22hhZBgTRpVI+B/XszsH9vmgY24PChg5iamFKvXkNUKhXhZ8/Qq2c3atesSreuIQwbOpgWQU34cdF8klOS8fIuR7PmLfXfFoB5c2fnmEApt9esH2bw5PHjjIs158M5dy5cf1U6nsQ8ITxct03RokVJSU7h4oXzOuVXIyI4f/4cSqWSkiVz75uy+nf9MQnAkSNhxMTGUCB/ATwzZzB+lsTEhByP1ztz6hQ3blzHxNQE20LPPun+PKmpqVy7dlWn7N/05eLd8U4Ep1ciLnM1c7BobGyMRpPGls2btM+dUigUGBkZAfA05om2HCAxMZF0TcYVH4VS8cxUitexDvFhStdodPaXfyQ94yxrdqkpyVy7FsHVqxlX/7RNX+L9Vi5bypBPBnH40EGMjY3w8vbm02HDWbjoZ1xcXfWbQ7ZjQKPR6FeRmpqC3sdj+BcjaN8hBAtLFSdOHOPcuXBq1KipEwArlQqM0o1y/cyatDQ0mcfVsyiVSoyMjDKuOKfmvG8lt88KoCHneh/cu8flSxe5e+eOfpUOjSaduNhYnbLnbZu42FidgFzfi75DYmIiRkZGKBQK/SohhBBvWdfuPeg/YBCm5mYs+XkxM6ZO0dbdvHmTmzdv6rRXq9Vs2byJhIR48ubNi2eZsqjVai7nMo/CwnlzuX3rNmamZhRzzP1iR9jhQ9onVDzrlTevNe3bd8IqTx42bdxA3149uBoRob8qHSnJKToT9AEYG2f0Oxr9Dh6Ij4+HzP4vN8/r3xPiE0hLScXI2BhF5ns8S2597uuQrkknMTFRp+zf9OXi3fFOBKdpqWn88vNinsbEQOZVzs+/+J92EBz7NEZ7ZbNQIXud/HSn4s6YmGY8viMlOfmZs2K+jnUI8aruRt8lMSmR9PR0/ty6heZBgTle3bqG/KPHHR3Yv5duXUOoVN6LcWNH8+D+fT76yOOZj19KTkxCo9GQ19pavwqn4sUxNfn7uWaeZcri41uFlJRkZs6YRq/uofTp1YPZs2bqXGFVx8ejSU/D3MJC5+ovQOHCDlg+50oumZ1+SmoqSqUCm0K6VzxVKhU2NrY6ZVnH8aMHD+nQrk2Obdk8KJBZM2foLPMystb7vG2TmJTI3eicvw1Zf+PnfYfU1FRin2b8vgkhhDCMPv0G0KtXX0xMTfhp4QKmTJ6k38TgBg/5lE+Gfoq5hTk/LVrI8GFDcgSHLys29ikKpQLrvBnpwdkVcSgCwOMnuWc4PXz4kNS0lOf274lJiTyNfapTp8/UxBSn4hnzvWRnbm6ORqMhOTFJv0qHvd3LXzD6N325eHe8E8EpwG9rVrF27WpSU1IxMjKifMWKhPbIuPn88KFDPIl5AkBhh8IMG/Y5LVp+zMjRY6lRIyNXXaPRcOLEcZ11Zvc61iHEq4qKjOTypcsoTZT4+9fNcVVTpVJRo1ZtnbKX0b1nb50r/MuXLuHq1QiUJkryF8h9EqLw8LPEx8fjWMyRNsHtteV29vbUqFlbe4KGzEnKlAoFGo1GJ6U4Li5O54zkubNniXkSQyHbQtSp+/dkDSqVivoNGjw3zRgg/OwZbt6IwszMnGpVq+u079S5a44zzydPHCcuNpZiTo7a34fsKvn45NjGL+P8+XPEq9U5to1KpcLHxw+liZLLly7nOCtN5t/4euS1XL9D8xatKFK0CHGxsZyU3xYhhDCYPv0G0LlLKOkaDTNnztA+diS71sHtaNlKd2JMlUpFo8aBWFhY8vDRQ8LPnsHH14+evfvm6ONCe/SkSNEiJCTE50g5fRGVSsU3k76jc5dQ4tRqJn4zganffavf7JVkzZJfqbJu31g3IICSbm6Zt6PkfnI8PPwsjx89ydG/A1SvmZFF9dft2zlSfvWZmJrg45PxuL0sbYLb4+paMqNvPJXRNyYlJ6FQKsifbSLFst7eODtnzBfzMv5NXy7eHe9McArww/czOH48Iy/dzNSMdsEdaB3cjn1793Bw3z7S0tIwMjKiXPkKjPtqgnbyJICIK5e1zyrMzetYhxD/xOpVy7kXHU0pN3cWL1nK9O9nM2HiZGbNmce2HXsICemiv8gLNWkSxJp1G5g6fSbde/Zm6vSZlCnrRXy8Osdz3LJs+/MPzp45jcrKik8+Gcr3P8xh0uSpLF6yDIfCDiQl/3328vixo9y6fRMLC0vad+xE6+B2tA5uR/uOnXRm9Q07fCgjtVhhTEiXrsxbsIgJEyfz67KVVKhYGfVL3Ju79c8/iH36lMo+vvy6bCUTJk5m3oJFdOveg6d6qUDbt21j757dKBVKQkN7sOq39UyYOJlJk6eydv0mpk//4aUmRNK3eeNGdu/aiYWlpc62WbF6Hd7lynMvOprVq5brL6a19NclRN+9q/Md5sxfyKBPhmBqasbePbu1k0kIIYR4u0K6hNKlaygWFhY8fRpLk8CmOnMWTP9+NgCenmUYNWY8m//YxuSp05n+/Ww2bfkTX78qJCcn8cfvW1Cr1djZ2dE1tDtbd+xi1px52j4oNLQHpiamnDhxnM0bN+p/jOdSq9UMHzYEL093alTxYcWyX/WbvLJfl/xMxJXLuLi68sOc+UyaPJXp389m7LgJFMhfgJMnTrBqRe5925lTp9i4aR0aNDr9+6rf1hMQUJ+42Fh++221/mI5pKWlUdrTU9s3fv/DHD75ZCgqKyud7XT2zGkAApsE8e130/j0s+FMmjwVC5W53hqf7d/25eLd8E4Fp2q1mkU/LtCm1ebJm5d2we0p6+3N58M/5ddff9am/mZJTU3l0MEDjBo14oX5+K9jHUK8qn179/C/EV9w/vw58lnnp25AAE2DmlGzlj9GRkacP597MPk8Bw7uQ2GkoF79BgwaPIR69RugNFGyadNGlmc+n0yfWq1mwtfjOHM6I0D1r1OXxoFNsLS0ZOWKpaSmZKS9Z5k/dw7Xr1/Hzc2dUaPGMnLkGFJTU0lIyLhPJcv4caPZv28PCmMFVatVp2lQMxyKFGX1quXae1qeZ+Wypfz880+o4+IoWcqNpkHN8PWrwpGww1zL5XgcP240y5f9SmJCAqVLe9A0qBmNA5vg4lqSm7ducj3quv4iL2X8uNH8vmUzJmam2m1TvHhxbt26ydQp37Jv7x79RbT27d3D1CnfcuvWTVxLlqJpUDOqV6+JsULB71s2M37ccx8nLYQQ4g3KmzcPJkpTjI2NcSjikGNmXOfMGWePhh3m1q2bODkVp2HDxtQNCKCQnR2PHj9i+rSpLJg3B4Bz58I5feokVpZ5qFnLn8aBTSjl5k6aJo3NmzYybOhgvU9gGFcjIvj663FcuHCeokWK0jiwCXUDMh5Fd/jQQSZ8Pe65KcMzpk5hxfKlpCQla/v30qU9eBLzhNmzf9BOLvo8iYmJbNywnsKFHWga1Az/OnUxt7Bg//69jB0zUtvu1yU/c/bMGSwtLWnUOJCQzqGkpqRyJCxMZ30v8m/6cvFuMLJ1cM95l3Q21f1bsvP3X/SLDUalUlG1ajXMLSxI06Rx8cKFHAHlwEGD6dK1ByamJlyNiKBpoO402S+zDvFu8m/Y8Z3aH1+VZ5mylChRAoAnMTHs3b1Lv8krqVGrNvmsrV95P/bx9cPOzo6U1FROHD/23Puss94jOjo6xyy/2WV9t1f9LFns7O0pX6EiJkrlC9+LN3gcu7i64v7RRyiMFbl+jqZBzRgxcgzquDiGfzY0R33W9nqZbSuEEELXu9DPv2xfnb3fetd/87P6/Wf1l/0HDiI0tCc3bkTlGDdn/57P2x76Nmz6A/vChRk/dhRhYYe167h27doz04mz+tDEhAQOHNj/3OD5eV7Ul/8X+TfsyL6da/SL3zv/ueD0eb6aMBFr63yUcnOnSJGMG72vXL5Es6aN9ZuK/6h3odMSHyY7e3viYmOp36ARn385grjY3INTIYQQ/5z082+Xk7MzUZGR2gs7uQWn/1T24HTD+nX61eIVfSjB6TuV1vtv2dsXprZ/HW1gmpScxM5dO/SbCSHEK+vTbwB7DxxmxMhRWFqquHnrhgSmQggh/tO+/HIkx06eoXNod5QmSu0kSkIYynsVnJ45c5oH9++hVqu5dfsWPy1coPP8KiGE+Keioq4TFxtLSnIKx48fZfK3E/WbCCGEEP8p169HkpiUSGJ8Ajt3bGfyt9/oN/nHIiMjibhyhSd6c70I8TzvVVqveP9Juo8QQgjx/pJ+XojcSVqvEEIIIYQQQgjxlkhwKoQQQgghhBDC4CQ4FUIIIYQQQghhcBKcCiGEEEIIIYQwOAlOhRBCCCGEEEIYnASnQgghhBBCCCEMToJTIYQQQgghhBAGJ8GpEEIIIYQQQgiDk+BUCCGEEEIIIYTBSXAqhBBCCCGEEMLgJDgVQgghhBBCCGFwEpwKIYQQQgghhDA4CU6FEEIIIYQQQhicBKdCCCGEEEIIIQzOyNbBPV2/MLvq/i31i4QQQgghhBBCvEX7dq7RL3rvvFRwuvP3X/SLhTAI/4YdZX8UQggh3lPSzwuRO/+GHT+I4FTSeoUQQgghhBBCGJwEp0IIIYQQQgghDE6CUyGEEEIIIYQQBifBqRBCCCGEEEIIg5PgVAghhBBCCCGEwUlwKoQQQgghhBDC4CQ4FUIIIYQQQghhcBKcCiGEEEIIIYQwOAlOhRBCCCGEEEIYnASnQgghhBBCCCEMToJTIYQQQgghhBAGJ8GpEEIIIYQQQgiDk+BUCCGEEEIIIYTBSXAqhBBCCCGEEMLgJDgVQgghhBBCCGFwEpwKIYQQQgghhDC4tx6cqlQq6tWrT9OgZjQNaoaPr59+EwBcXF1p3KQJTYOa0bBxIHb29vpNXrvp389m7fpNrF2/iT79BuhXi/dY1n75tva1d02NWrVZunw1C35cjGeZsvrV/4hnmbIs+HExS5evpkat2vrVL2XU2PHv1fH4OraJEEII8S55E2MI8eF668GpWq2mQ0hnJkyczISJk/n0s89RqVT6zRj8yadM+nYqEyZO5pNPhr2VgMHZ2ZlSbu6UcnPHvnBh/WrxHvMsU5bPvxzJmLFf4ePjq1/90lQqFRUqVtIvfutUKhXLV/3G2fOX+WbSd/rVOeSztsa1ZElcXFxzPR7/CZVKhYuLK64lS5LP2lq/+qU4FnN8r47H17FNhBBCvLpKPj58N20GO3fvJ+zoSTZs+oOBg4fo9Hn+deoy/utvtGPU7K/xX3+Df526ADg5OzP8ixE52mS9unbvke2d339vYgwhPlxvPTgFOHokjJTkFACKOBShlr+/Tr1nmbKUcnPX/v/SpQucOXVKp40Q75qGjQPZtmMPo0aP069662wKFUJlqcLIyAgLC0v9aiGEEOKD0b5DJ2bOnEODBo2ws7fHKk8eXFxd6d6jF/MXLsbJ2RkAD09PAgODtNl92V+BgUF4eHoCYG9nT/36DXO0yXpVrVJN7xO8mJ29PYOHfMqEiZPp3be/BHnig2WQ4PRIWBiPHz8CwCpPHipU0L3SVNbLiwIF8gOQkBDPwYP7deqFeBeZKJUoTUz0iw0iKjKSQQP7MqBfb74YPlS/WgghhPhgFChYgLi4OH6YOQP/WtXwr1WNlSuXk5ySjIeHJy1atNJpf/LEcT7/bKjO68svh7Fl8yaddvcf3GfCV+NytJ03d7ZOu5cRffcup0+dpFKlyvTu04/vps14K1mDQrxrjGwd3NP1C7Or7t+Snb//ol/8r82eO58aNTPuubpw4TwhHYJRq9UATJ46nYYNGwMQGRlJ3z49iIqMxM7enj79BlC+fEUK2dqiVqs5fuIYv/z8k/bKallvb5q3aIW5mTkxMU84ePAA7dp3oGBBGzZt3MDiRQsBCO3ek6Cg5tja2nL7r9ss+/UXQjqH4uLqCsCaNasY+eXnmZ8WmgY1o0Wrj3Eu4YKp0oSbt26yZfNGfvoxY33i7fBv2PGN7I8+vn58M3EyKisrxo8dxYb167T70pPHj9m1awcdO3XG1cWVxMREtm79Xfu3b9a8JT6+fqhUKqrVqMHTJzEcOnSQtLRUdu7Yzs4d2wFo1boNgU2aYp3XmtS0NE6fPMn8+XOIvnsXsu27L3q/LFWr1aBjSAh2hezQpKdz5fJl1qxZydGwMAC6du9BSddShB0+xLq1a7TLlfX2Jji4A6Xc3NBoNOzft5eo69f5YsRI1HFxDP9sKGGHDwFQNyCAVq3bat/j8qVLLFu2JEcmg529Pd2798KrXDmMjY0JDz/L9j+3Mnbc1zrb9Hk6dAyhfsOGWKmsiL4XzS+LF9M1tBu+flVyHI8urq6EdAnFw8MTYyMj7t+/z6aN65/5HtVr1CSgfgPi1WqWLfuVqMhIbV3Wdk9KTNTW2dnb06FjCL5+VVAqFMSp49j6++8s+WWxdjn/OnXxr1OXa5HXeHDvHi1afcz9+/eZM2smVyMiXnmbvOy2FkKI99mb6OfLla9AUlIi58+d0ylfuOhnfP2qcGD/Pnp060L/gYMIDe3J8eNHCe3SSadtdlljBkCnz3wdynp7M3rMOEqWdOPcuXC+/mrsM/uBJk2D8POrSvS9aKZP1b2FJ6uPun//vrbuZfrOrt17UMK5BHt37+IjD098ff04dPAAM6ZPhVccQ/ASY5/cZB8PLV/2K336DcDTswwA4eFnmTVzhnZ5J2dngoPbY2ZuztrfVutsq6zvkjUWy77eY0eP0jEkBICFC+Zpx05Vq9WgdZtgHB2LvXN9sX/Djuzb+fd47n2lUOWxGa1fmJ2Tc2kiI87oF/9rDkWKUq5CBZQKJaYmJlyLvMbViAicnJ3p2rUb1tb5SE9P59DBA6xasZwmTYOY/N10Klf2IX/+/JiamWFlZUXJkqUIqFuPWHUc58LP4uPjS7fuPSlTpiwORYrg4+NL2bLe2NoWQqFQsGP7n/wwex6t27SlQMGCmJmbY2trS5Vq1bGwsMTU1BQyA+ZdO3egUqmYOHkKod16UqyYI5aWlpiZm1OoUCGqVKmGd7ny7NyxnZSUjDRl8WY5l/R6I/tj0aLFqBtQD1NTU/bu2c2lSxe1+1IxR0caNwqkXLnyFLSxwc7eHl/fKjg6OrFj+zbadexE8+YtKVHCBaVCiUqlws3dHVeXkty6fZNz4WeZMXMWHTt1pmjRYhS0scHWthBlypalVm1/btyI4kZU1Eu/H0Dr4HaMHj2WkqXcsMpjhY2NLR99VBo/v6qEh5/lzl9/0a//QOrUDeBJzBN27dwBmR3ZuHETKF+hAjY2ttjaFqJ8hYoUdnAgf/58JCcns337n9y+dYvPvviSoZ8Ox9m5BAVtbLCxscXN3Z3q1Wpw7dpVbkRFQdZ9PFNmUKNmLWxtC2FjY0vp0h54limLmYU5JkoT7TbNjUqlYtJ30+jYKYQiRYpS0MYGJ6fi1KpVm7S0VAra2GiPR4AWLT/mm2+/o0KFitjY2FLQxgZHRydq1qxN4SJF2J3ZLrt8+fMTGtqTSpUr8eDBA06eOK6t69mrDx9/3Ia0tFR+WriA6jVqMnnKdGrXroOtbSEK2thQuLADVapWo6yXF7t37SQlJYXApk1p27Y9Nra2NGoUSIkSLjg4FOHihfPkzWf9SttkzPivGTDgE5xL6G7r2v51iHkSw4UL57N9GyGEeH+9iX7+7p073L9/X78YX18/3D/6iJs3brBxw3p8fH0pX74id+78xYb1a/Wba2WNGQBtn/m6RN+9y+7du3Bzc6d8hYpU9vHlzl9/ERl5Tb8pJUuVIiSkKx4enty8dZOrERHaumHDP6d+g0bci45m259/vHTf2a//QGrV8sehSBEaNGxM4cIO5M9fgGVLl7zSGEKlUr3U2Cc3WeMhe/vCNGzUiOrVa2Jra6vtS/38qnDs2BEeP3qEu/tH9OrVFw/PMpw5fUpnrJH1XW7dvsmRsMPa9RYtVoy6dQLw8PDEoXAR7t+P5kjYYQYMHMwXI/5HqVJuOn1x9jjDkJxLenEj8oJ+8XvHIGm9AIcOHuDB/QcA5Mmbl8qVfACoWrUatra2kJnSe/z4MZycnQnt1kOb3hB99y5/bv2DK5cvkZaWhnW+fLRu3TZHfn7+fPkpVsxRp6xrt+5UruyLkZERAHGxsdy6fQuFsQIrKyudtlnt/WvXRalUkpKcwrFjR9izeydPY2IwMjKiYuXKtOvw7LNr4r/PobADt27fJLhtKypX8GLFimVo0jT4+lXBx9ePlcuX8flnQ5n5/XTi49VERV3XSQHq0asPVapUJ16t5ttJE/Bwd6VzSHuuXL6Mo6MTrT5u+0rvB1C3TgAqKys2bdxAeS9PvDzdGTd2NJGR11AqlTrry+Lk7EyX0G7Y2NoSHn6WziHtqVzBiwXz5+Lo6JTj3lQzE1NOnz7JwP698XB3pUe3rly7di3jimDPXtp23bv3wrlECW7ciGLokEF4uLsyccJX5MmblwL5C+isMzedu4ZSs1YtEhMTmT9vDpUreNE5pD1RN6JwcS2p09bJ2Zmu3XpQIH8BjoQdpmlgAypX8OKnRQvQoKFunQDqBgToLANw5tQpTp06gampGZWyTVilUqmoUKESKakp7Nu7F4DuPXvh5FScK5cv0zmkPR7urnw7aQLxajWVfXz5uI3u38u5RAmuXo3gf19+zpKffyI6OvqVtknbdh1o1KgxGjT8tGgBlSt40TSwAUfCDlMgfwFatw3WaS+EEOLfU6lUlHJ3R6PR5AiSvLy9OR1+kXMXIwi/cIXdew8S2r2nThuA/PkLMHvufM5djODcxQiOnjjNt1OmPTcdN2sW+ue95sxdgI2NDU9jYnB0dGL0uK9y7ds2b9zIlYjL5MmbF99sT7/w8fXD3b00sU+fsnv3jlfuOxVKBSVLubF27Rr+9+Xn7Ni+9ZXHEK869slN0SJFsc6bj/Hjxmj70YePHlKylBufDBmm3/ylFbYvTFxcHGPGjGTmzOlEXb9Oi5YfE9yuAxgZsXLlcvxrVSO4bSvCDh/CKk8eQrv1oKy3t/6qxBtgsOA0/OwZzpzJuERubGyMV7lyAJQrVwFzcwsA/rr9FxvXr6VO3QAcnZwAuH/vHqNGfsnggf1oH9ya8LMZZzEcCjtQtXoN7foBlEolVyOuENy2FU0DG7BixTJq1KyNiWnGfYGXL12kXfDH1K9Ti2nTviMhIV5neUDbXqPRsHXr74R0aEefXj2YPWsmiYkJmJma4eUlO+v7LC42lhXLl3Lm1CnUajWbN27g0aOHqKyssLOzI/zsGTasX8ftWzdJT4fUlFQ2rF/H5o0buRoRQZWq1TBWGLNlyyZtau7RsDBWrlxGYmICJVxcdE6svOj9nmX50iWEdun0zPSiOnUDKF7cmfv37jFl8iSOhoWhVquZNmUyO7b9SXq6bob/3Lmz6d2jG9u3ZVytPbB/L8uW/kJCQjxFixSjQsVK1GvQEE/PMsTFxrJwwTx+z7wf5+fFi1i1YhlpqWk668xNrdp1MFGasP3PrUybMhm1Ws3RsDCmTJ7EwwcZJ7Cy1KkbgINDYe78dYepUydzNSICtVrNtxO/4cK5c6hUVnh4ZExYoW/37h3EPn2Ku3tpbZDfJKg5DkUceHD/AYcOHqBeg4a4upTkaUwM8+fP1qb5/PTjQvYf2Ie5uQWlSrrprPfh/YdMmjSB39asYsb0qVjny/dK26RatepYWqoIO3SQbyd+g1qt5mpEBIsX/8ijx48obG+PX9VXn1xDCCHEs3Xr0QtXl5IZVxa3bdWWp6Qmc+fOXXbv2sX2bduIvnsXG1tb+vYfQN/+fz/WLD09ncePH3Hi+HE2b9rIpUsXMFGa0rBhY8aNn6Btpy9rFvoXvUqWcsM6Xz4AzM3MsbTMfYKkfXv3kpKaQoUKlbRjiSpVq1GgQEFu3b7F5o0bX7nvNDY25vixI4wa8QW/rVnF9GlTX3kM8apjn9ykpqWw6McFLF+6BDL70V8W/0RySjKlS3s883GULxKvVjNv3ixWLlvKgnlz2LB+Hf516pLX2pqwQwcZM3IE0XfvcubUKb4aP4Zbt25mToLVQH9V4g0wWHAKcOL4MW1AWMShCE2DmvFRaQ+MjIzQaDQcP34UtVpN8eLOmJmZA2BhacknQz5l7fpNLFm6gmJOGVdGlSYmmJuZ6aw/ISGelSuXc+bUKa5GRPDwwQMKFigIQEpyCrt37dCmQKxctpQ7d3Tz3318/bApaKP9v5e3t/as1sdtglEqMoJcC4uMYFq8nx48fMjunTu1/z9+7ChxcXE6bZ4lax/SaDRU9vHTOTMa3K4jJkpTrFQqneeCvcz7bd+xDXVcHI0DmxB27BRLl68mpEvoc3/oixVzxNTUjOvXI3MEsMeOHSUxMUGnLC42ln4DBrJn30GOHD/Nnn0H8fIqh0aTjpGREUqlEhcXVyxUltx/8EAbhGU5duwYMTGPdcr0VahYiYIFCpKYmMCxY0d16sIOH+L69b/vDQW0vwWWlhaMGaN79tmxeHFMTE0oaFtIZ5ksu3fu5PZftylQoCBVMoO9ipUqYWFhyelTJwk/ewY3NzcsLVUolEq6d++ls/5y3uUh8/7a7O7dy+jAsrzqNnF0dEKj0VDCtaTO+w0e/ClWKhUWlipsbf7+HRJCCPHvdOgYQnBwezRoWL9hrbZPXPfbGloEBdKkUT0G9u/NwP69aRrYgMOHDmJqYkq9eg1RqVSEnz1Dr57dqF2zKt26hjBs6GBaBDXhx0XzSU5Jxsu7HM2at9R/WwDmzZ2dYwKl3F6zfpjBk8ePSU9P5/z5cM6dC9dfFQBhYYd4eP8hDkUcaBLUHICKmRlCBw9kTCj6qn1namoq165d1f6fVxxD/JOxT27u37/Pvv0ZWU1Zzpw+RczjJy88Yf88T2KeEB6uuz2LFi1KSnIKF/Vuo7kaEcH58+dQKpWU1Ds5Ld4MgwanBw7s5+7daMhM7a3tX1eb0hsXG8vx47qDVQArKyudM0v6KXLZxT6N1cm/VyqV2nTe1LQU7me7KqNWq0nXaLT/12dsbEyxbGe7SpQogdIk9/RJ8X5J12i0k3X9Y+kZZ1mzS01J5tq1CK5ezTiDqW36Eu+3ctlShnwyiMOHDmJsbISXtzefDhvOwkU/ayf10qdQKLQnfvSlpqag9/EY/sUI2ncIwcJSxYkTxzh3LpwaNWrqBMBKpQKjdKNcP7MmLQ2N5rnzrWmPyfT0jM+gL7fPCqAh53of3LvH5UsXuXvnjn4VZB7jB/bvg8yO27NMWcqW9damPWWXnp6e4+/19GkMly9d5MbNGzrliYmJOv//p9tE//dHo0kj6vp1Iq5c4UlMjE6dEEKIf6Zr9x70HzAIU3Mzlvy8mBlTp2jrbt68yc2bN3Xaq9VqtmzeREJCPHnz5sWzTFnUajWXc5lHYeG8udy+dRszUzOKORbTr4bME68b1q977itvXmvat++EVZ48bNq4gb69euiMZ7PLum3FwsKSipUyMpqcnUtw7949duzIyHzK8rJ9Z7omPUff9qpjCHi1sU9uUpJTdCYwfF1yW6+xsQIATS5fJD4+40KaQpHRRrxZBg1OoyIjuXD+HOnp6RgbG1OzVi3twDcrFQEg9mkMqampGctEXadpYAM83F11XpUreD1zps4sd6PvkpiUcbCZmZnjmu1+trLe3jny5bO3T01JZfFPC3O8r4e763NndBMftqx9KD09nT+3bqF5UGCOV7euIYSfffXJHw7s30u3riFUKu/FuLGjeXD/Ph995EHTzDOn+pITk9BoNOS1ttavwql4cUxNMiYDI/NZwz6+VUhJSWbmjGn06h6qk86eRR0fjyY9DXMLixxnQAsXdsDyOVdyyez0U1JTUSoV2BTSveKpUqmwsck4WZUl67fg0YOHdGjXJse2bB4UyKyZM3SWyW7Hjm3cu3ePEiVcaNasBTa2Njq/NQ8fPiQ1LYV4tZpvJnyVY93NgwIZM3KE/mp1vOo2iY19ipGREUePhOV4r+ZBgbRr24q9u3fpLCOEEOLV9ek3gF69+mJiasJPCxcwZfIk/SYGN3jIp3wy9FPMLcz5adFChg8b8sIgLuu2Fa+y5ahVszZ58ubl0qUL2qyef9t38opjiNc19smTJ0+O1F0LSwsUJkpSU1JITErSqdNXsGBGtuTLiI19ikKpwDpvRip1dkUcigDw+Mnzs8HE62HQ4BTgwP592oPOzMxce1bm9MmT2jaHDx3iScwTyEyBmzR5qvbG7azHy3z/wxxt+2eJiozkeuZsZ8bGxjRu3IThX4ygdXA7Ro0eR2GHwjnah589S3p6OkoTJa0+bsuI/43WpvVVr1GT6d/PJqRLqM5yQmSJiozk8qXLKE2U+PvXzXFVU6VSUaNWxiOVXkX3nr110kuXL13C1asRKE2U5C+QezZBePhZ4uPjcSzmSJvg9tpyO3t7nXuxAczMzFAqFGg0Gp2U4ri4OJ2zpufOniXmSQyFbAtRp+7fkymoVCrqN2jw3DRjMu89v3kjCjMzc6pVra7TvlPnrjnOPJ88cZy42FiKOTkS2iPn5BSVfHxybOPszpw6xaVLF7DKk4eAevVQGCm0aU8AZ06f5sGDBxS0saFZsxY6ywKU9vCgXPkK+sU6XnWbnD17Bo1GQ9Wq1aleo6ZOHZmPAxBCCPHv9Ok3gM5dQknXaJg5c4b20SjZtQ5uR8tWH+uUqVQqGjUOxMLCkoePHhJ+9gw+vn707N03x+95aI+eFClahISE+BxpsS+iUqn4ZtJ3dO4SSpxazcRvJjD1u2/1m+Vq88aN3Lp9i4K2BalZqzaJiQnsz8wU4jX0nbziGOJ1jX0KFChIzVq1dMoaNgwkf778/HXnLw7s2/v3SW4TJXb2f4/jGzdpgp3dsyem0pc1y2+lyrrbom5AACXd3EhMTHhhMC1eD4MHp9v+/IObemlyj588Zv+Bv3PM9+3dw57du0hNTcXIyAh394+Y/v1szl2MYOfu/fTtNwAnp+I663iWbX/+ydPMFDmrPHno2Kkzo0aNxc3NPdczU6tXreCvv/6CzIMpuH0Hdu7ez7mLEcyZt5CaNWuRN28e/cWE0Fq9ajn3oqMp5ebO4iVLmf79bCZMnMysOfPYtmMPISFd9Bd5oSZNglizbgNTp8+ke8/eTJ0+kzJlvYiPV+d4jluWbX/+wdkzp1FZWfHJJ0P5/oc5TJo8lcVLluFQ2IGk5L/PQB4/dpRbt29iYWFJ+46daB3cjtbB7WjfsZNOhkHY4UMZqcUKY0K6dGXegkVMmDiZX5etpELFyqhf4t7crX/+QezTp1T28eXXZSuZMHEy8xYsolv3HjyNjdVpu33bNvbu2Y1SoSQ0tAerflvPhImTmTR5KmvXb2L69B+eOSFSlv3795GYmICNbaEcaU/hZ8+wZcsmUtNSaRLUjI2btzJp8lQmTJzM0uWrWbT4V6pVr66zPn2vuk1WrVzO1Ygr2Nnb893UGcyZv5AJEycz/fvZ7NpzgIGDhui0F0II8WpCuoTSpWsoFhYWPH0aS5PApjr3QU7/fjYAnp5lGDVmPJv/2MbkqdOZ/v1sNm35E1+/KiQnJ/HH71tQq9XY2dnRNbQ7W3fsYtacedo+KDS0B6Ymppw4cVybkfOy1Go1w4cNwcvTnRpVfFix7Ff9Js918MB+FEYK8uXPT1RUFBuzPQrndfSdrzKG4DWNfdLT02nTtp1OP9qgYSNSUpK1f4vws2e4GnEZM1MzQrp0YeTosYwcPZZhw/5+NvrL+HXJz0RcuYyLqys/zJnPpMlTmf79bMaOm0CB/AU4eeIEq1Ys119MvAEGD07VajVnTp/SuRpzPfKazoQwACO//Jx5c2fx8NHDHPnriYkJz7xRXN9va1Yxf8FcbYBK5s5/7NgRLlzIOagPO3yIoUMGcvz4UVKSde+JS09P5/Zft7h8+bJOuRDZ7du7h/+N+ILz58+Rzzo/dQMCaBrUjJq1/DEyMuL8+Zz73YscOLgPhZGCevUbMGjwEOrVb4DSRMmmTRu1s9rpU6vVTPh6HGdOZ3Qu/nXq0jiwCZaWlqxcsZTUlIzU+Szz587h+vXruLm5M2rUWEaOHENqamqOWa3HjxvN/n17UBgrqFqtOk2DmuFQpCirVy3X3qfxPCuXLeXnn39CHRdHyVJuNA1qhq9fFY6EHeZaLvfYjB83muXLfiUxIYHSpT1oGtSMxoFNcHEtyc1bN7kedV1/ER0b168lKvOxAafPnMzxYO0ZU6fww/czePT4ESVcXGgc2ISmQc0o6+XFgwf3X+p4f5VtcjUiglGjRnDo4AHMzMyoXr0mTYOaUTcggLzWef/R/iGEEOJvefPmwURpirGxMQ5FHHLMjOvs7AzA0bDD3Lp1Eyen4jRs2Ji6AQEUsrPj0eNHTJ82lQXzMrL0zp0L5/Spk1hZ5qFmLX8aBzahlJs7aZo0Nm/ayLChg/U+wZuXddtKamoqYYcP5rjg8m/7zlcdQ7yOsc/NmzcIO3wIH18/mgY1w7tceRITEli8aKH2bwGw9NclREZGks86P23atqN1m2Bu3/6LS5dz3hf8LFcjIvj663FcuHCeokWK0jiwCXUDMh7bd/jQQSZ8PS7HNhVvhpGtg3vOO3+zqe7fkp2//6JfbFA+vn7aGboSExI4cGD/K+8wdvb2lK9QEROlkujo6Bwzj+Um+zIA165dk0v8b5l/w47v3P74KjzLlKVEiRIAPImJ+df3EtaoVZt81takadK4eOHCMydM0Jd1DKWkpnLi+DGi7+rOVJ1d1nu86DjJ+m6v+lmyvOoxqVKpqFq1GuYWFv/4PV8k67vzD4/3V90mLq6uuH/0EQpjxT/+bRNCiP+yd6Gff9m+Onu/9TL96bvgdfSdrzKG4BW2Z5amQc0YMXIMd+/coWlgA+3yz3u/7N/rZd7jebK+3z/dPm+Kf8OO7Nu5Rr/4vfOfDE7Fh+td6LSEEEII8WZIPy/0g1OR4UMJTg2e1iuEEEIIIYQQQkhwKoQQQgghhHgnPImJIeLKFSLfwDNOxbtPglMhhBBCCCHEO2Hv7l20a9uKgf1761eJD4AEp0IIIYQQQgghDE6CUyGEEEIIIYQQBifBqRBCCCGEEEIIg5PgVAghhBBCCCGEwUlwKoQQQgghhBDC4CQ4FUIIIYQQQghhcBKcCiGEEEIIIYQwOAlOhRBCCCGEEEIYnASnQgghhBBCCCEMToJTIYQQQgghhBAGJ8GpEEIIIYQQQgiDk+BUCCGEEEIIIYTBSXAqhBBCCCGEEMLgJDgVQgghhBBCCGFwRrYO7un6hdlV92+pXySEEEIIIYQQ4i3at3ONftF756WC052//6JfLIRB+DfsKPujEEII8Z6Sfl6I3Pk37PhBBKeS1iuEEEIIIYQQwuAkOBVCCCGEEEIIYXASnAohhBBCCCGEMDgJToUQQgghhBBCGJwEp0IIIYQQQgghDE6CUyGEEEIIIYQQBifBqRBCCCGEEEIIg5PgVAghhBBCCCGEwUlwKoQQQgghhBDC4CQ4FUIIIYQQQghhcBKcCiGEEEIIIYQwOAlOhRBCCCGEEEIYnASnQgghhBBCCCEMToJTIYQQQgghhBAGJ8GpEEIIIYQQQgiDk+BUCCGEEEIIIYTBvRPBqY+vH02DmmlfPr5++k3eiBq1arN0+WrWrt/E0uWrqVGrtn4T8YFQqVTUq1efho0DsbO3169+72UdCwt+XIxnmbL61f+IZ5myLPhx8b86tkaNHc/a9Zvo02+AftV/xvvwHYQQQojspn8/m5Vr1tEmuL1+lRD/isGDUydnZ0aPHc+EiZO1r3FfffPaBsjPk8/aGteSJSnl5o5ryZLks7bWbyI+EJ5lyvL5lyMZM/YrfHx89atfmkqlokLFSvrFb51KpWL5qt84e/4y30z6Tr86h6xjwcXFFZVKpV/9j6hUKlxcXP/VseVYzJFSbu7YFy6sX/Wf8T58ByGE+K+r5OPDd9NmsHP3fsKOnmTDpj8YOHiITp/nX6cu47/+RmdMmvUa//U3+NepC5lj1+FfjMjRJuvVtXuPbO/8fnJ2dqZUSTcKFbLVrxLiXzF4cOrnVxUbGxudMhubglT2/ecBghCG0LBxINt27GHU6HH6VW+dTaFCqCxVGBkZYWFhqV8thBBCfDDad+jEzJlzaNCgEXb29ljlyYOLqyvde/Ri/sLFODk7A+Dh6UlgYJBONl/WKzAwCA9PTwDs7eypX79hjjZZr6pVqul9ghezs7dn8JBPmTBxMr379n9tJ4qF+K8xeHBaoUJF7eA5KSkRADMzc0qX9tBrKcS7zUSpRGliol9sEFGRkQwa2JcB/XrzxfCh+tVCCCHEB6NAwQLExcXxw8wZ+Neqhn+taqxcuZzklGQ8PDxp0aKVTvuTJ47z+WdDdV5ffjmMLZs36bS7/+A+E74al6PtvLmzddq9jOi7dzl96iSVKlWmd59+fDdtxgd5m5EQRrYO7un6hdlV92/Jzt9/0S9+LVQqFUuXr8a1ZElSklM4HHYQP9+qKE2U3LgRRa+e3YiKjITMVAv/OnVRKJT6qwEg7PAh1q1dQ9fuPSjpWkqnDKBZ85bae1mvRFzmx/nzaBrUjBEjx6BSqVCr1YwfO4oN69fprFe8W/wbdnwj+6OPrx/fTJyMyspKux+U9fameYtWPHn8mF27dtCxU2dcXVxJTExk69bf+enHhZBt31KpVFSrUYOnT2I4dOggaWmp7NyxnZ07tgPQqnUbAps0xTqvNalpaZw+eZL58+cQffcuwEu/X5aq1WrQMSQEu0J2aNLTuXL5MmvWrORoWBiA9ljIfhyQ+T7BwR0o5eaGRqNh/769RF2/zhcjRqKOi2P4Z0MJO3wIgLoBAbRq3Vb7HpcvXWLZsiWcOXVKuz4yz/h2794Lr3LlMDY2Jjz8LNv/3MrYcV/rbNPn6dAxhPoNG2KlsiL6XjS/LF5M19Bu+PpVYc2aVYz88nNtWxdXV0K6hOLh4YmxkRH3799n08b1L3wPO3t7OnQMwdevCkqFgjh1HFt//50lvyzWthk4eAj29jlTcLP/PbP+5lm/JVmy/w2nT81Ip1646Odcv4MQQoic3kQ/X658BZKSEjl/7pxOedbv84H9++jRrQv9Bw4iNLQnx48fJbRLJ5222WWNGQCdPvN1KOvtzegx4yhZ0o1z58L5+quxOfpcfZV8fGgb3J4SziUAuHHjJitXLOPA/r2QmYYcHNwea+t8ektCYlIia39bzZlTpxg4eAi2trY6YxeyjXOyjyc2bPoDR0cnFi6cy/fTp2Vb49+y94nLl/1Kn34D8PQsA0B4+FlmzZyhHQNlfUYzc3Pt58nStXsPSjiX0PlcAwcPIV/+/GzZvJHAJkG4uriyZfMmfl3yM2SOkVq3CcbRsdhzxy//Jf4NO7Jv59/jufeVQa+cBtRroL0P62ncU/bu2U1MbAwAtra2VK36d1rE81ItmgY1o3zFigBUrVItRxlA+YoV/1W6hfjwFHcqTuPGTWgU2IRp02bSqFEgpdzcKevlzSdDhjHhm28h275Vp24AZqZm2BYqRNNsKUAqlYrZc+czctRYKlXyoZSbO6VLexDcvgOLFi+heo2ar/R+AK2D2/HdlGlUr14Tp+LFcXUtSZOmQUyc+J32ntesYyH7cdCkaRAzZsyiaVAz3N0/onRpD7r36EX7jp0wMtI2A+CzL77ku6nfU716TUq5uePu/hFNg5oxbdpM7Wcms1NcsHAxwe07ULq0B+7uH9GqVWuGfzECY6VCZ525UalUTJ3xA8OGf0H58hUp5eZO9eo1+W7KNAoUKKDfnBYtP2bRz7/SsuXHuLt/RCk3d6pWq87YcRMYM/5r/eZanmXKsmjxErqGdqd0aQ9KublTvnxFhg3/Qmfb1qkTkOP3Jfvfk2x/c/3fkqy/YZ06ATrlQgghDOfkieM5AlMyr1a+a86cOkXvnt0JO3wIT88yTJz0nfZe19yEdAll1ux5NGjQiFJu7pRyc6duQADfTZlG6+B28II05MaNm1DcqThk9n/Z+7osWX1e9vHEy8jqEwPqNWD23PnafjtrnDBn7gJcXF0h22fM/nmyVK1SLcfnqlMngMaNmzD00+G0bPkx3uXKa7fTgIGD+f6HWdQNCNAZv8yZs0C7TcS7y6DBaVkvLywtM1J6b0ZFsXTJL9ofCnNzC8qVq6Btm5SYjFodh1qtRq1Wk5iYQHp6xkXf9PR00tLStG2FeJ0cCjtw6/ZNgtu2onIFL1asWIYmTYOvXxV8fP1YuXwZn382lJnfTyc+Xk1U1HWdFKAevfpQpUp14tVqvp00AQ93VzqHtOfK5cs4OjrR6uO2r/R+AHXrBKCysmLTxg2U9/LEy9OdcWNHExl5DaUy9+wCJ2dnuoR2w8bWlvDws3QOaU/lCl4smD8XR0enHPemmpmYcvr0SQb2742Huys9unXl2rVrGVdJe/bStuvevRfOJUpw40YUQ4cMwsPdlYkTviJP3rwUyJ8zuNTXuWsoNWvVIjExkfnz5lC5ghedQ9oTdSMKF9eSOm2dnJ3p2q0HBfIX4EjYYZoGNqByBS9+WrQADRrq1gmgbkDugWFWhsSPC+fjX6taxrZd9iupaanUrVePtu06ADB58kSd9Kzf1qwiNSWVR48ecurkSf3VCiGE+A9SqVSUcndHo9FwIypKp87L25vT4Rc5dzGC8AtX2L33IKHde+q0AcifvwCz587n3MUIzl2M4OiJ03w7Zdpz03GzZnB/3mvO3AXY2NjwNCYGR0cnRo/76pl9m5WViqsREYwa+SUe7q4Et23FiRPHsMqTh06duuDk7Ez42TNM+GqsTt+2d88uNBoNt2/d5Ny5cP3VvlZFixTFOm8+xo8box0jPHz0kJKl3PhkyDD95i/NwsKCokWKMn/eHMaMGUnY4cO0aPkxwe06gJERK1cux79WNYLbtiLs8CGs8uQhtFsPynp7669KvEMMFpyqVCrKenljbGyMRqPhwvnzAJw+eRKNRoORkREflfbQ3qQ+b+4sqvpVonIFL4LbtORGVBRGmZd6rly+xJKff9JZvxCvS1xsLCuWL+XMqVOo1Wo2b9zAo0cPUVlZYWdnR/jZM2xYv47bt26Sng6pKalsWL+OzRs3cjUigipVq2GsMGbLlk3a1NyjYWGsXLmMxMQESri46Ex88KL3e5blS5cQ2qXTM9OL6tQNoHhxZ+7fu8eUyZM4GhaGWq1m2pTJ7Nj2p/ZkT5a5c2fTu0c3tm/bBsCB/XtZtvQXEhLiKVqkGBUqVqJeg4Z4epYhLjaWhQvm8Xvm/Tg/L17EqhXLSEt98UmjWrXrYKI0YfufW5k2ZTJqtZqjYWFMmTyJhw8e6LStUzcAB4fC3PnrDlOnTuZqRARqtZpvJ37DhXPnUKms8PDQPeObJfzsGfr16cl3304k+u5d1Go1Y8eM4sK5c1hYWOLm7g7A3t272LB+HRvWr8Pc0pKAgPokJMQzZ+4s9u3do79aIYQQ/0HdevTC1aUk96Kj2bZtq7Y8JTWZO3fusnvXLrZv20b03bvY2NrSt/8A+vb/+5Fg6enpPH78iBPHj7N500YuXbqAidKUhg0bM278BG07fVkzuL/oVbKUG9b5MtJwzc3MsbTMfYKk1atWEtqlE6tXroDMK68LF8zj0eNH2NrY4OnpiVqt5s8/t2r7tuIlSuDjVyVjPPDdt1yNiNBf7WuVmpbCoh8XsHzpEsgcI/yy+CeSU5IpXdrjXz1CcuvW35k+9TtWLlvKvLmz8K9Tl7zW1oQdOsiYkSOIvnuXM6dO8dX4Mdy6dTPzCm0D/dWId4jBgtOq1WvgUNgBgPj4eMLDz0JmDnp8fDxkpvaW8y6vs5xKpeLzL/5HyVJuAFy+dJGhQwa98QNLfLgePHzI7p07tf8/fuwocXFxOm2excfXD5uCNmg0Gir7+OmcGQ1u1xETpSlWKpXOo5Ne5v2279iGOi6OxoFNCDt2iqXLVxPSJfS5s/sVK+aIqakZ169H5ghgjx07SmJigk5ZXGws/QYMZM++gxw5fpo9+w7i5VUOjSYdIyMjlEolLi6uWKgsuf/ggTYwzXLs2DFiYh7rlOmrULESBQsUJDExgWPHjurUhR0+xPXrGfecZyle3BkzM3MsLS0YM0b37LNj8eKYmJpQ0LaQzjJZ1Go1rq6lWLp8NWFHTxJ29CRLl68mPT3j+ygUuinILq6udO7cFUuVil07d7By2VKdeiGEEP9NHTqGEBzcHg0a1m9Yq+0T1/22hhZBgTRpVI+B/XszsH9vmgY24PChg5iamFKvXkNUKhXhZ8/Qq2c3atesSreuIQwbOpgWQU34cdF8klOS8fIuR7PmLfXfFoB5c2fnmEApt9esH2bw5PFj0tPTOX8+/JlXN6Pv3qVtuw5s3bGbI8dPs//wEZo1a4UmNQ0jY2MUxrp9W92AAFp93AaAdet/eysnXe/fv8++zPtfs5w5fYqYx09eeOL9eZKSEomIuKJTVrRoUVKSU7h4IeOiV5arERGcP38OpVJJyZIZMYR4NxksOK1cyYc8efMCYGVlxVcTJnLuYgRfTZiIlZUVaJ8ZqZvfPuJ/o6ns44uRkRHRd+++lTM+4sOWrtGgVqv1i19NesZZ1uxSU5K5di2Cq1czrv5pm77E+61ctpQhnwzi8KGDGBsb4eXtzafDhrNw0c/a+zf0KRQKjIyM0Gg0+lWkpqag9/EY/sUI2ncIwcJSxYkTxzh3LpwaNWrqBMBKpQKjdKNcP7MmLQ2N5rnzraFUKjEyMsq44pyaol+d62cF0JBzvQ/u3ePypYvcvXNHvwoyTxSMHfcVZb28uHfvHvv278XS0oKyXjnTe7JOghUr5siRsMOMHzdav4kQQoj/oK7de9B/wCBMzc1Y8vNiZkydoq27efMmN2/e1GmvVqvZsnkTCQnx5M2bF88yZVGr1Vy+dFGnHcDCeXO5fes2ZqZmFHMspl8NmSdes65gPuuVN6817dt3wipPHjZt3EDfXj2eOdbNuqJra2vL+fPhHD96HG9vb2wL5TxR6+LqSt9+A8lnnY+tW7bofPc3KSU5RTvB6euk0aQTFxurU2acGYxr9Ac1mRfDyBwPiXeXwYLTrFk9n8fIyIiyZb21g+EBgz+hfqNGKBQKYp8+fWGanTLb2SJbvWepCvE23I2+S2JSIunp6fy5dQvNgwJzvLp1DSH87Bn9RV/owP69dOsaQqXyXowbO5oH9+/z0UceNA1qrt8UgOTEJDQaDXmtrfWrcCpeHFMTU+3/PcuUxce3CikpycycMY1e3UPp06sHs2fN1LnCqo6PR5OehrmFhc7VX4DChR2wfM6VXDI7/ZTUVJRKBTZ6HalKpcLGRvfh3rFPY0hNTeXRg4d0aNcmx7ZsHhTIrJkzdJbJEhBQn0J2dpw5fZq2rVswdPBA2ge3JvxsRtZGdlknwSKuXGbC1+NyBN7PUqRoMUxM343HCQkhhNDVp98AevXqi4mpCT8tXMCUyZP0mxjc4CGf8snQTzG3MOenRQsZPmzIc/ugWrXroDBWsGrFcjp3bM/A/r35evwYHj1+pNMu66Sra8lSr3zS1d7u2ffQvow8efLkSN21sLRAYaIkNSWFxKQknTp9BQsW1C96ptjYpyiUCqzz5pyZuIhDEQAeP3l+VpcwrOdHh29ILX9/7c3iSclJLP5poU4qw+KfFpKUnLGjFipUiFr+/rQObke74A6YmZqh0Wi4ejWCct7lmTBxMhMmTmbg4CEAOhMj+fpVoXGTJoR276kzuZIQb0tUZCSXL11GaaLE379ujquaKpWKGrVq65S9jO49e+tMuLB86RKuXo1AaaIkfy4z3JItZd6xmCNtgttry+3s7alRs7ZOUGVmZoZSoUCj0eikFMfFxelczTx39iwxT2IoZFuIOnX/nqxBpVJRv0GD56YZk3kf6M0bUZiZmVOtanWd9p06d81x5vnkiePExcZSzMmR0B45J6eo5OOTYxtnUZhkXKVNSkrUdvRqtVr7fOUsWSfBHty//8zMjKxA3zpfPp3PXLZsWZ0gXwghxLuhT78BdO4SSrpGw8yZM5gxfap+E1oHt6Nlq491ylQqFY0aB2JhYcnDRw8JP3sGH18/evbum6OPC+3RkyJFi5CQEM+1a1d16l5EpVLxzaTv6NwllDi1monfTGDqd3/PJP8sJkol6Zp04tV/99WxajWa1FSddi9z0jUpOQmFUkH+bJMZlvX2xtnZRafdqypQoCA1a9XSKWvYMJD8+fLz152/OLBv798nq02U2GV7nFvjJk2we4Xg+FLmFe1KlXXHA3UDAijp5kZiYsI/uiAg3h6DBKeVKlXGOm/G1ZuYx0/Ys3u3TjrDls2beXA/YyIUqzx5qFChEp6eZbRpwMbGxniXK68zFXbWoxsuXDhPakrGAWlnb8+kb6fyyZBPMbMw176/EG/T6lXLuRcdTSk3dxYvWcr072czYeJkZs2Zx7YdewgJ6aK/yAs1aRLEmnUbmDp9Jt179mbq9JmUKetFfLw61+nyAbb9+Qdnz5xGZWXFJ58M5fsf5jBp8lQWL1mGQ2EH7QkhMu9zvXX7JhYWlrTv2InWwe1oHdyO9h076czqG3b4UEZqscKYkC5dmbdgERMmTubXZSupULEy6pe4N3frn38Q+/QplX18+XXZSiZMnMy8BYvo1r0HT/XSdbZv28bePbtRKpSEhvZg1W/rmTBxMpMmT2Xt+k1Mn/7DMydEunTxIgkJ8Xh4lmHk6LE0DWrGyNFj8ch85hqZV4wDA4MwUZqQkpbKJ0M+1bmvddTY8QCcPJURJJcq5cbc+T/Sb8BAflm6HG/v8qQk50xPFkIIYTghXULp0jUUCwsLnj6NpUlgU53f9unfzwbA07MMo8aMZ/Mf25g8dTrTv5/Npi1/4utXheTkJP74fQtqtRo7Ozu6hnZn645dzJozT9sHhYb2wNTElBMnjrN540b9j/FcarWa4cOG4OXpTo0qPqxY9qt+k1xduXIFpYmShoFN6dq9By1afkz37j3JX+Dvq431GjSkZq3apKenY2JqxuTvpul8/z79MiZ6OnvmNACBTYL49rtpfPrZcCZNnoqF6t+NodPT02nTtp3OGKFBw0akpCRrt2n42TNcjbiMmakZIV26MHL0WEaOHsuwYa/2fPBfl/xMxJXLuLi68sOc+UyaPJXp389m7LgJFMhfgJMnTrBqxXL9xcQ7xCDBaZmyXtrHXVy7djXH5CxZV1PIDETLenlj8ozHY+ibN2cWBw/u07mCev/BfQ4fPKDTToi3Zd/ePfxvxBecP3+OfNb5qRuQ8RzNmrX8MTIy4vz53IPJ5zlwcB8KIwX16jdg0OAh1KvfAKWJkk2bNmpnw9OnVquZ8PU4zpzOCFD969SlcWATLC0tWbliqfakTpb5c+dw/fp13NzcGTVqLCNHjiE1NZWEhIx7NrKMHzea/fv2oDBWULVadZoGNcOhSFFWr1quvb/jeVYuW8rPP/+EOi6OkqXcaBrUDF+/KhwJO8y1XK5ajh83muXLfiUxIYHSpT0yntMW2AQX15LcvHWT61HX9ReBzKvLmzZtRGmipE3bdkyYOJkGDRpx+9bf9xepVCpMlEqMjY0pWqRojtkTHYs5ArB540b+2Po7qWmplCtfgd59+lOqpBt/bttKckpytncVQghhaHnz5sFEaYqxsTEORRxy/LY7Zz4Z4mjYYW7duomTU3EaNmxM3YAACtnZ8ejxI6ZPm8qCeXMAOHcunNOnTmJlmYeatfxpHNiEUm7upGnS2LxpI8OGDtb7BG/OnNkzOXP6NEWLFGXIkGGMHf81toXsdFJXzc3MUJqYoFQqcXZ2zvH97QtnXKn8dcnPnD1zBktLSxo1DiSkcyipKakcCQvL9o6v7ubNG4QdPoSPrx9Ng5rhXa48iQkJLF60ULtNAZb+uoTIyEjyWeenTdt2tG4TzO3bf3Hpcs77e5/lakQEX389jgsXzlO0SFEaBzahbkDG4/cOHzr4zKvG4t1hZOvgnvOO4Wyq+7dk5++/6Be/83x8/bCzsyMlNZUTx4+9kw9aFq/Ov2HH/+T+mMWzTFlKlCgBwJOYGPbu3qXf5JXUqFWbfNbWpGnSuHjhQq4pqLl5leMj6z2io6NznEjKLuu7vepnyWJnb0/5ChUxUSpf+F5kBpJVq1bD3MLild7TxdUV948+QqNJf+F3f5F/+52FEELoehf6+Zftq7P3Wy/Tn75JWf368z7vy8rq9xMTEjhwYP8/DuaaBjVjxMgx3L1zh6aBDbTb9XnbKnvf/m+/S9Y2eV/6aP+GHdm3c41+8XvnvQ1OxfvpXei0hBBCCPFmSD///tAPTsW/86EEpwZJ6xVCCCGEEEIIIbKT4FQIIYQQQgjxWj2JiSHiyhUi38AzTsX7S4JTIYQQQgghxGu1d/cu2rVtxcD+vfWrhHgmCU6FEEIIIYQQQhicBKdCCCGEEEIIIQxOglMhhBBCCCGEEAYnwakQQgghhBBCCIOT4FQIIYQQQgghhMFJcCqEEEIIIYQQwuAkOBVCCCGEEEIIYXASnAohhBBCCCGEMDgJToUQQgghhBBCGJwEp0IIIYQQQgghDE6CUyGEEEIIIYQQBifBqRBCCCGEEEIIg5PgVAghhBBCCCGEwUlwKoQQQgghhBDC4IxsHdzT9Quzq+7fUr9ICCGEEEIIIcRbtG/nGv2i985LBac7f/9Fv1gIg/Bv2FH2RyGEEOI9Jf28ELnzb9jxgwhOJa1XCCGEEEIIIYTBSXAqhBBCCCGEEMLgJDgVQgghhBBCCGFwEpwKIYQQQgghhDA4CU6FEEIIIYQQQhicBKdCCCGEEEIIIQxOglMhhBBCCCGEEAYnwakQQgghhBBCCIOT4FQIIYQQQgghhMFJcCqEEEIIIYQQwuAkOBVCCCGEEEIIYXASnAohhBBCCCGEMDgJToUQQgghhBBCGJwEp0IIIYQQQgghDE6CUyGEEEIIIYQQBifBqRDig6RSqZg8dTq/rd/I6HFfUaxYMf0mQgjxn9KrTz9W/baeuQt+xMXVVb9aCCHeeUa2Du7p+oXZVfdvyc7ff9Evfq18fP2ws7PT/j86Opqww4d02niWKcugwUMoWLAgKamprFm9ihXLftVp8zJGjR2Pt5c3ANu2/cmsmTP0m4h3mH/Djq99f/QsU5YSJUroF+dw7do1ws+e0S8W/1HjvppAULMWXI24wtAhg7gaEaHfRAgh/nMmfPMtjQKbcPRIGAP790GtVus3eae9iX5efFhGjR2Ph4fnS8UKbYLb07LVx9z56w4D+/fWr36n+DfsyL6da/SL3zsGD06dnJ2ZM3cBjo5O2rLbt2/zyaD+OoGAj68f30ycTCE7O1KSU1i4cC7fT5+mrX9ZCxf9jK9fFQDWrFnFyC8/128i3mFvotMa+9UEWrb8WL84B9lfDKOstzcTJ31HYXsHfvppIdOmTNZv8spatPyYT4cNJyUtlbGjRrB92zZtXeeuoTRq3IRiRYvxJOYJR46EMWvmDKLv3tVZx5tUr0FDatasxb1795g+9TudurLe3nTs1JkK5Stiam5K5LVrrFqxnA3r1+m0y9I0qBkft2mLc4kSJCcmc/zEMX75+SfOnDqlbWNnb8+gQUOoUr06yYnJbN/+BzNnTNcZ1DZr3pLKlX0IP3eWpUte7Rgs5eZOWlqqnAB4S1xcXVEolFy+dFG/6rVxcXUlpEsolSpVpmBBGx4+fJDjWHFydiY4uD3W1vn0FwfgSsRlfpw/D4CBg4dgb19YvwkAd+/eyXEciGdzcnZm6rQZuJQoya+/LmbSNxP0m7zT3kQ/n13r4HaU8y6vs/+9zP6cpZKPD22D21POuzwWFhbcvHWTLZs38tOPC3XavWnNmrfEx9dPvxiAxKRE1v62OsfvfJ9+A6hc2Yd81vme+blbtvqY4PYdcSjswNVrEcyZNYsD+/dq67OOa6VCycqVy1/b74xKpWLhT7/g4eHJ5k0bGT5siH6TXI3432g+btOWG1FR9OvXi6jISBYu+pkKFSq9VKzQf+AgQkN7cuNGFE0DG+hXv1M+lODU4Gm9fn5VsbGx0SmzsSlIZV9fnTIh3pS7d+5w+dJF7evR40e5lt+9c0d/UfEWWOe1xsLcAmOFMebm5vrV/0izFi1QWVnx5++/awNTlUrF7Lnz+WTIMDw8PMlrbY2joxOtWrVmztwFbyVFTqVSMeJ/o/lm4rc0a96SOnUCdOpbtPyYmbPm0qhRIHb29uTPV4Dy5SsyetxXDBj8iU5bgDHjv2bsuAmUL1+R/PkKYGdvT6NGgUybNpPqNWpq240cNZbApkEkJiZiaqqkXftODP9ihLZepVLRoVMItf3rEBPzRFv+MmbPnc/yVWto1DhQv0q8Af8bOZq16zfToVOIftVrU6NWbX5c9DMtW36Mo6MTKpVKe6wsWrxEO2C2t7Onfv2GNA1qluurapVq2nXWqROQoz7rpX8ciOeLioxk6a9LSEiIJyCgIWW9M7LFPnR29vZMmzGLL78cqbP/vez+TGZgO336DzRo0IiCNjaYmZvh4eHJJ0OGMeGbb7O928ur37ARX02YyNivJlC1Wg396mcqX7FijmMl69W4cROKOxXXtq1eoyaLFi+hVavWODo6kdfaOtfP3bBxIEOGfoajoxMPHz3Cw7MMY8d9pbMN6tVrQOu2wRQpWuS1BaYANoUKobJUYWRkhIWFpX71M1nlyYNCocDE1IQ8Vnn0q8V/kMGD0woVKmp3wqSkRADMzMwpXdpDr6UQb8asmTNoHhSofV2+mPFje+Dgfp1ySQE3jH1799Cvby/69e3FN1+P169+ZY2bNKGkaymi70azYePfVxu7duuOn181EhMTmT9vDpUreDFyxOfcv3ePkqXc+GTIMJ31vG5Vq9Xg51+X07Zde4yMjdFoNDr1Ts7OdArpTIH8BQgPP0vnkPb416rG9m3bUCqUtG3TjobZAsBWrdtQv17GWeB1a9fgX6saPbp15dq1a9jZ29NvwCBUKhW1/P0p4+VFVFQUPbp1oX//PtyLvoePbxU8y5QFoF2HTpRwceHUqRNs3rhR+x4vw9TUDGPDdzUfDBMzMxQKhX7xa5XP2prU1DRWLPuVpoENqFzBix9mziAuNjZjUP9xG5329x/cZ8JX4/j8s6E6r3lzZ+u0i49XM/P76TnaTZ48UaedeLHVK1dw+colChUqJMF95tXAxUuWEVCvHmlpqTp1L7s/q1QqWrduS15ra8IOH6Je3VqU9/Jk5vfTSUxMpG69erRt10Fn3S9j/949KBRKgoKaM2HSt7QJbq/f5Lm2bv09xzEzauSXhIUd1rbp3CUUJ6fi3LgRxdAhg6hcwYsVy34lNS2V+g0b0q1HLwDq1A1ApbJi2dIlNGlUj3W/rcHG1paAgPqQuQ3qN2hIUkIimzZt0K7/dYiKjGTQwL4M6NebL4YP1a9+pnFjRjKgX2/69u4ht169JxSqPDaj9Quzc3IuTWTEm/ljq1QqevTsk3EfaXIKYUcOU8ShKMYKY8zMzNi/fx8xTzLO0hctWoy6AfVQWVmhSdNw8uRxjoQdpmv3HrRuE0zdgHrkyZMH3ypVGDl6LIMGD6VxkyZYWFpy6uRJ7XsGNWtO0cyJTy5eOE9ZL2/+N2os/QcMwr9OXeLUcTqpZ5V8fBjy6Wd8MnQYAwZ+QnC7DpT19ubx40f8dfu2tp14O5xLer2x/TFL1j5y4cJ5du3coS0fOHgIDRo1Jj5eTc/efenevScWFhacPXMaO3t7evXuyydDh9GuXQcCmzZFZanizJnT2uXLenvTq08/vL3LkZCYwNBhw+nTpx/NmrcgT948OvspmcHKl/8bSWi3HrRuG0z58hWJeRqj3e+6du9By1YZ6chlypbl8xH/I6RzVxo2boxGo+GS3hnNrH25d+++tA1uR5Wq1YmNjeXmjShtG/86dQnt3oPiJUpQrFgxPh/xP6pWr8G1qxE8fvTopb5n9nVYWqq03+FZn4vM7zr00+H07NWbtsHtqFM3ACMjI23b4PYdKFs2I1CKjLwGL/l9chPcrgPlylfg+PGjLFq4ADJ/iwZ98imF7OzYuXM7Y0f9j5SUFC6cP09qaioVK1WikG0hbt66+cZSU0ePGYeXdzmOHz/K9m1/UsazLDExMSxbugQg43euXj1insYwdfJE9u/dizoujn17d1O5sg/FnUtgYmLCls2bAOg/YBCl3Nw5c/oUn336CY8fP+bmjSju37tLZV8/CtvbE5+QgL19YapUrcrRI2GsWr6M6Lt38a9TB0dHJ86eOc2tWzcZPORT8llbs2zZ0pfq/J2cnendpx+NA5viXMKFfPnyodFo8KtSFc8yZQg7fOg/fzzVDQhg2OdfatdXrlwF7j+4p5MC+DaPp4GDh9CseUtKOLtgb29PSnIKFStVplLlyty8dZOYJ09e6v1eRmpaKgcO7mfZr0t4/OgRKSkpHD0ShlPx4nz0UWmMgOXLlmr7bdLTWbliGTt3bOfSpYva1+1bt7TrDG7XASurPGzeuJ4N69fptIu6fl3n/d8UO3t7Bg8eSv9Bg2nXrkOO3yH09rvr1yMZNvwL+g8YRJu27fDwLMOF8+dQx8Vp26tUKjp17sqwzz6nQ8dONGveAociDpwLP0tKSoq2XVbbXn36MviToXTo2IlWrdvgVsqdS5cv6qyzaVAzhnz6GV1Duz+zDUDRYsUoV64CKisVq1Ys16l7l72Jfn7ipCkULVqMHdu3c/58OO4flebWrZtsWL/2pffn8hUq0rRpM4yMjJg3dxYnjh8D4NjRI9Rr0JDChR2IvhfNnl079d/+uVJSUti+7U8sLCyoVKkSvr5VsLS0IOzw38FlbmrXqUvp0h6cPn2KObN+0DlmIq5c1u4PjZs0oWXL1mjSNcyfO4ffVq8iJSWFPXt2U8rNHTc3d6zz5WPViuX06dsfY6WCZUt/4XpkJAUL2lClalWSk5PZsH4tIV1CqVe/PhcvXmDShK/1P1KumjQNonPnUDzLls0xn0zW71uZsl6EHT5E85atqFTJBzMzcy5evACZx2XWcRYc3J46dQMwMzfn/LlzkHlV2L9OXYoWLaZdf1Cz5jg4FOHkyePY29s/9/fcx9c3oz/I1t9madW6DcOGf0FI567PPdbeFueSXtyIzNgu7zOlfsHbFFCvAfaFM+4xeRr3lL17dlPaw5OCBQpia2tL1arViIqM1F9MR9Uq1bT3kDo5Fce99EeYmZoBkNfamk+GlMKtlDufD/9Ub0koV74ijo6O2rPM3uXKU6KEC1YqK35bs4qGjQMZNWosefLm1S6jUqlo0KARfr5VmDZ9CiuXLc22RvE+q1MnAPvChSld2gMPD0+MjIxITEzk9OlTTJo8BadsKTQAXl7l8PDw1O57xZ2K07hxEx4/eUxQUHPs7O21bT08y+jsp62D2/HJ4KHkyZuXpKREFAol7u4fUbmyD58OHczxY0epWqUaFSpUokCBAvj6VcHM7O+U17Je3hQvUYIZU6cAENIllH79B2BpqdK2KeXmjo+PD1OmTtbuxx6engQGBnH1WgQOhR3Ia22NWq1m357dODgU4fMv/5fr96xarRpDPxmEWq3WriMy8io9uvfSOX70PxeZExcENWuuPW7J/Gze5coDsGH9OurUCcDR0Yno6Lvs3LH9pb9Pbtzc3ElLTePK5b87p6rVa+BQ2OH/7d1nXFNXH8DxXyDMICAIIqiATEGGIqJWBVGryNA6arXDWq3W+thpl7Z1a6utdrfW2umsdrjqaLXOVlRUFFAUcAAKKMoKMyTPi5BIAgG0Wque7+eTF94k93LjOeee8T/nUFZWyv69e3U+v3ffHh59/AmcnV0ICgpi+9YtOu9r1F60zZBjiceY+fb1cNnarhVcY+mSz/jwg8VMfv4F/bcJCgrGzNSMxDNHdebIyuVyEhOPEhAYhIenJ67u7jSzaoaHpzdVlVUcOnhAZ+7oH7//zpinnia4Yyf8/Pw5f+4sEpWEyvIK7Wdqj9o+NGQYHh4epKQks1rvwW2IJpzTsdZCd5pyOj0tjQ8Xv39X56fXpk5j1KjHkUqvP0J9fdsTFtaV6W9PY++e3fAv56c+ffrphJ4HBQcTFBxMXm4uf+7cQds2bZt0vaZIT0urt5PmyuU8FFW6o1L/hl4RvXnmmUlYWBgO+29sAcSevcJ5e/psnF2ctce8fXwJ69qNrl27M/UNdeSEJt3l5eURHhGBt7cvEokEatJAYECgzgJrS5d9R2BQkPYzAAGBQQQFddRZrKhnr3Bee+NN3NzcdD7r5+ePe7t2jB3zBADz5i8gOjZOJ+35+fkTHhHJrJlvadMeQGpqKqWlclrYtyCsa7c6DYP7SU7OJVas+IE1q1Ywa67uHNympme5XE6VQoGxsRG2ts21x13d3bGyskJRpeBq/hXt8Ru1+P2FXM7L49lJkxnz1HhaODjyzrw5Tc6XhnQMDsGqWTPOnTvHLz+v03kv4fAhwsMjaOnkRERkJEZGxqiqq6moqARAoahCVbMyjUwmIyKiN9XV1fy2ebPOeRqiVCnpHdkHlUrFyZMpOs/Q4Q+PoGevCLb8pj6fpk5fpaji119+wsPTk/fe/wBvH18UCgXV1Qq8fXwJDQvDwcGRzz/9WFtGXrhwvs7c9Pbt/Rjz1LgGy/P6yGQy3lv0AQ/06KUTieLn50/3Hj2YP3e2Tl4Tbq07GmsVGBSEpaU6pDfz/HlWLv9B2+tsbm5Bx44het9oWFBwMMZGxsjlciqr1BnL2NjYYKiFu7s7ZaWlZGdnU11dDTUN2sg+fQEwkUoxMjamtFROeloa586dpapS3dNpY2vLE0+MwdXdXeecwr3NwsKC1i6tWfrlF8yc+TbxBw4gk8mQy+V8vWwpkRE9dMJl6kt7zq2cycrOZOQjw9SfXbMKZbWSrt26a+d19O3TD5mVFZs2bqBTUAeCOvgye9YMzp7N0KmUGEuNCevajX179xIXM4C4mAHs27enTpinlZWM9LQ0pr89DX9fT0Y+MowjRw5j1axZvenYvV070tPTeGvaGyz//ltyc3N5esIzuLq6ceb0aZ4c/Sj+vp4sXDCfUrmcLmFdGT7iEZ1ztGvnSXx8PJERPYiM6MHOHX9gIjWhT2Q/ZDJ1o3Lc+GcYNGgwRhixdetvxMUMwN/XU3uv1Up1vtR3o/ej4erujp29PVWKSjIzr4/atG7TBnMLc0qKS8jOvn6cmlCji9nZSKVSmtva6bxXm6OjI66u7ri0bmPw5ejgqP81rSkvPs+HHyzWP6ylaXxlZmXqv0XqqVNUVFRgaWGBs7MLzi4uWMlkVFZVcraeDr70jHQA7O3sychIp6KiHFc3daNFJpPRooUD5RXlFBUX8eAAdWjw9q1bCQwOZuGiD1j783refGuGToOwtqQTx5k/dxZvvDaFo0cSqKqsYs2qFXVCNO/W/GRmYkpi4lGenzwRf19PnXDppyeow+Nq+zfy03vvvcsbr01h2zZ1xU8T6jd/7iySThy/4evdDN/2fpiYmpBVa0QUoHlzOz5fspTkU2kkn0rj0JFEFi76oE76MTc3563pM0k6eYbkU2kcOZ7MV19/1+icybZt2tLGtW2d/Fb7ZdfccN51dXfnxZen0Mq5FUePJPDk6EfpEhLEiuXfU1FRwYCBA7VhjxqtXVpjY23LnNkz8ff15N35c8m/ml9nCoBKpWT9rz9ry7aPPlyMvKSE0NAwxj/zLNTkuf899wLu7u5kZWcxe9YM/H09iYsZwJYtmyktLQVg0uTnGBAdTXlZGZ9+8hFdQoIYP+4pTp06SSvnVtpQfY2L2dmUyOXIrKx0dkS4H40fN6bRVVv16afnpBPH2bRpPRIjI54a+zQTJ01myNDhTJ8+C2dnF1JSktmwYb3+aaCmA2Xl6nX8sn5Tg6+hw4ZTUFiAkbERDw0Zxtz5jc9jHTBgIMeTU0k+lcbx5FQ2b/1dGwUC4NSqFUZGRuTl5tRp6KanpVFcVIyFuTl2ze3JybmEzMoK95pnqKubG6YmplwruEbsoIfw8fUl9dQpNq7/hSefGsuqNev48qtviBs0WOe8tW3euJEzaadpZm1N11pzV8O6dsPX14/ioiJ27boepVbbg/2jcGvXjrQzZxgyOIZOQR14cvSjHPhrP9WK+usHGsZSY7p2f6DR8rw+4595lu7de1Iql7NwwXz8fT15cvSjnDl9uibU+5+Xl4Jhd6xxKpPJCAwKxqhmbtXJlBQAEo8eRalUIpFIaO/nb7CSWZ8rl/N48fn/0SUkiOcmTeRyXh4AlpYyOoeG6n+c8+fPMWrkcB7sE86OHX9oj2tWDq5SKFi1cjkRPbsTFzOA6AH9+PCjRZSVqR8Ujo6OBAUGab8n3B+2bdvCh4vf58dVK/lyyWcknTjO/56dwPsL3yU3R134z5o5nZPJyVhYWOLj66vz/ZLiYtasXsnxY8eQy+Vs3riBq1fzG61ArF65nLFjntDp/TYyMuJkSgpvvDZF2/v70vOTOX06FWsbG7p3fwCAdWt/ZOyYJ1j34xoAjh87xrKvvuTqtas4tGhBhw4dtOcEyL+cz4IF8/n5p7V89OFibGxt8fTwoqiwkKVLP+dQfDwA3369jH3792JuboG3l4/OOfLy8li2bAm5OTnk5uSwdetmSuVyrK2ttXMZ+w+IwtTUjB07f+flF57T9l6vXrmcEcMeMji/8UbvR8OppRPmZuaoVOoeYQ2ZpSVGksbn6elXpmvbueMP+vXpRZeQIIOvSRPH63+tyWqPLBtiYSnDoUULzM3MkJqY6L9dh719C3bt3Mm58+do7+/PzDnzePWNabRxbcu5sxk4OTnTvr0f6enpZGVn8sEHn/DggwNwd3dnxMhRvLfoA53KsIZcLmf79m1sWP8rFRXqEdlrBdfYsP5X9uz6U+ezd2N+WrLkcyaOH6cdwd6/bw+rVv5AWVkprV3aENJZ93nzb+SnPbv+ZMP6XympCTcrKSlhw/pf2b59Gw/07HXD17tRI0Y+SqdOnSkqLGRnreepSqXi2rWrHElIYPOmjaSmnsREakpUVDSz51wfwVKpVBQVF3Lq1Ek2blhP4rFjqGpCwWfMnN1gXWD5D9/Rs1uXOvmt9mvObMMzmPr07YebmzuXLl5iwYL5HIqPRy6XM2/OLPbu3Y2pqRm9e0fqfEdRXcU3X3+ljSb4/rtv+OG7b6msqsTPz1/bMTJ16mtMe+M1bdm25PNP2btvD1ITKe3b+wEwYtSjeHl5kX81n/fenac9Z3paGlNefJ7Jk9QN44jefTCRmrB580Y+++Qj5HI5+/ft4fNPP+Lqtat4eHgw6KEhNX+hujFVXlaGVGpMC0fDHWNCXYbS80eLF/Hz2rU0b27H/yY/z+y58wnr2o3U1FMsXDDfYLSfrY0Nnl5eePv4NvpydXXD2NgYiURCs2ZW+qfSUV5eRnZWJtu3b2X3rp0UFRfi6urGlFdeZ0jNLgQWFhb6X6vDRGqKS2sXDh6Mx8jIiJGjHueJJ5/iwf4DqVJUcvjQIQZGR2NsbMyuXX/y5lszePGlV/D28SE0LIxpb81g9Jix+qfV2rtnD1WKKkJCQrXPjO4P9MDOzp6s7CyDz/r6HIqPZ+KEp/lyyWf6b+kwMjIiJSmp0fK8Pt0f6IGRsRG//bZJu5rxofh4fvxxFeXlZbTz8Kj32SfcGnescaoJowMoLS0lKekEAElJJ7S9hA4ODnQMVof2NcWJEye0hcjePbs5nHBI+16repaoT0lJ1j4wMtLPaEdFNbZs3kRychJffvUNf8cnsO/AQQICArl8+TIApiam2tEG4f5QUVFOWtoZnWNyuRxPT29Wrl5H/KGjxB86ysrV61CpVEgkkjqLk1zJz2fXzutzUhIOH9JWKDX+2PE78pISomNiiT98jJWr1zF6zNg6haFCoSAx8ahOb6hcLiclJRmJRIKzswsAuTk5PDLqMbbt2MXBhET2HTjI4MHDUCqqkRgZYWyk+zfm5eXoLEHv4+ODpaUMY6mUp59+RqenV5NH9RtuWVkXdM5x5fIVbd6mpte0hX2LekNpG3Oj93OraCIs/qtUSqXB0eb6KJXVyOVylnz+KTmXLjF06HCGDh3OhXPn+PijD+jX70GMpVL++H07w4aNwM7Onq+XLSW8RzcOHYzHv0MAox5ThxvejLs1P5UUF/O/555n996/OJiQyO69fxEU1BGlUv031h6N5V/KTw25mevdiMg+fZkwYSIWlpbs+nMnP/+0FmoaR89MGEfv8AcY99RoXp3yIkMGxfL1N0uprKokKLgjgx8aCsC0qa/Ro2sXHh/1CG+8NoVRjwzj3XfnU1xURDt3T+LiBuld9dZp06YtpqZmdX5jatJTeXkZrVo563Q6XL58mb21ttcAOJ54jMJrBTodIzY2Nnzx5Vf8HZ/AwYREft2wGfOaEENNWnZzc8fMzJz0M2d0QvZrC+kcir2dPeXlZSSdUNeXNP74/Xcyz5/H3NwCL+9/1skgGE7P1Owh+/AjI7mUe4n331/AW9PeYM/uP/Hx8WXBwsU6q6DXFh9/gOlvT6uzcJH+a+obr3Iw/gBKpZKiwkL2/7VP/1Ra332zjIED+vHQoBimvPg8zz4zntGPjeJMTeMrOiZW/ysGqSQqFIpqVq34gY0bN+DS2oXXXp+Kk1NLfvn5JxSKKry9fMjIyCA7O4vwiN6cO3uWh4c9xDvz5oJKRWzcoDplqkZ8/N/kX87H2cWZ2EEPAdC5Jj/9td/wPW7ftoVzGRl4enmx7pcNbNryO2+9PaNJq+c3tTzXp6mbKJVKuoR10ykvR456HBOpKVYymbaTXbj17ljjtEtomHbujJWVFXPnv0vyqTTmzn8XKyt1T5FMJiOkc2e9bxqm2QJEo/aDu74M09iDfcjQ4cycOYfgjp1oZm2NuZk5vSP70Lq1ekEl4f6jVKooKS7WORbWtRuzZs8lMCiIvLw89u7bg6WlBYFB9YeiqZRKncKyPj+uWsnLL73Agb//wshIQlBwMK+8+jrLvvlep1BWKVWUl6tXuW7IpMnPMWnyczg4OJCSkkTCoQSCg4NxMNCbbuicKpUKlWYCSo2iokJOp57iQuYFneP6q80aoj+K2RQ3ej8aObk5lFeUI5GAVHp9ZPH8uXNUVlVibCLFwrJuL7NmC5ucXMN7nXYICOSrr7+rE6ZV+zV91s2vNnz5siYSpO4S+1bNmmFkJKG0tJQrl6+Qm5uLvKQEIyMJVs3qLq2vOUd+fj7UjPoO7N+XDu296NDei8Fx0Tg6OuLn509Gejorl39P27auFBZe4+BB9ajS0aMJGGGEu5vhEa3G3K356fWpb/LoY6OxsJRx5MhhkpOT6NUrvN7nDP9yfmrIjVyvqWLjBvH29Fm0cHBgy2+bdUYo5XJ5vVtNLPtyCdlZ2ZiZmtGmrfp5Wt9CWz+uWsnJkymYmJrg4Gh4FLwpIZPP/u85/a9paUap6vuNS4qL6+10qKqsMjhKpuHq7s6MmbPp0TOc0tJS9uzZRVlZGT0MbBdS3/U1pFIpEonEYHlZXl5ep/OmQ0Ag5hYWKBTVXKmJJBMa1lB6fnBAFOERvSksKmTRgnf4eumX/PzTWiZOeJrDhw7SyrkVcTUNL325OTls2byJDet/NfiKjz9AbOwgQruEkZuTw7Spr2n3Ya1PelpanT1Y09PS2PXnDqoqq3ComUaSfVG96Ft9W7FZWFpgbCKlqrKK7KxM5HI509+cSqdAf/x9PQntFMS8ObPo06cvpuZmbNu6BU9PTywtZSQnnSA9LY01q1aQm5uLQ4sWBAZ31L8E1EQ3HTt2BAsLSzqHhvLggCjc3duRl5fHjh31d8hQcz/PTBjHunU/UlhYiJubG4+Meoxvvl+hHRk2pKnluUEqdZlZm6KqkoyMNNLT0xp97gg37441ToM6dsTIqOHLSyQSAgODDT7w9Xm089D5t1utUc28myiYu/fogbWNDUqlks2bNtK5YyDPTZpI/pWbn/Au3Hv69euPY8uWHE9M5JGHhzDlxed5dOTDdXq3b9T+fXsY99RoQjsFMXvWDK5cvkz79v46Dz+piRTHeiptmsZHWVkZ1ISDGRsZs3bNap58/FGenzyReXNm1unQMSQ/Px9FdRWlcjnvzJ+rs8WO5mVooR9D5DWLS0hNpLSsJ7KhITd7P+fPnuVqfj4mUlPatGmtPZ6dnU1JcTFWVlZ46YU3hnXthrOzCxUV5Zw7Z7gy+k/nnDbmQuYFVCoVbm7udcrE9u39MDe34Er+FeIP/E38gb8pLCzAzMwcT08vnc/KZDK8PL1RKpWczVCvfFyfmJg4LCws2b1rp/YhrFSqUNaMHhcWFFKtVPyjEbf6/NfzU4eAQMK6dqeqqpJPPvqAZ54ey7PPjOfzzz6hvFyd3xpzO/JTQ27X9YYMHc4rr0+luZ0dmzas57VXXrojFbZ/Oue0uKgQhUKBtY2N/lvaOXflFeU6nVPNmjXT2fuRWhV9RVUV5RUV2nDhrKxMxj89hikvPs/IEcP4c5fuaq6V5RUolUpsbG3r5G0NTcdafSG6spp54gqFguKiQu1xzdzzkuJissXuAo1qLD1rIhAKrhWwX2+0L/tiNhKJBDs7w+msIYHBwXy+ZClhXbtx+vQpXnrpOZ1w4n/i0sWLVFZV4ujoVGf+dkBAINZW1hQUFJBh4HkQHRtLcHAnLpw7x/btW7XHFbWidOTyEu20EkN27dpBcVERQYEdiQjvTTNra1JTT9aJVtCXm5PD9DenEtGjG2OefIyjRxKwa27H4CHXQ9jr05TyvD6avKZSqdi+7bc6ZeVDg2IY99ToejvUhFuj4dbhbRIRGamt0FRUVvDdt8t0whq++3YZFZXqeUqOjo5EROrO9TDE3z+ARR9+TNygwSz68GMCA9SZUFGl4ORJ9ZzWG9G81mpscrk6TOzixWzKa/ZjFQQAYxN1j3ZFRbn2QSaXy7X79t6MpydM1Kn0r165nPT0NKQmUprXevhJJBJCOofqjP707BVO55BQKiorSExUF/omUikqpYrSmnQMUCyXo1Q0bWXN44mJXLlyBfsWLRg8uO4Dwc/fn46dbmwBs6QTxzlzOhVTE1MGDoyuE6bT0snJYEXtn9xPRkY6UhMpXt7X5y4mHD5EaupJzEzN6vwtQ4YOp4WDA5evXOHwoYPa4/pu95zTw4fi1SGOHh6MHT9Be7xnr3B69gxHqVSSWGv7lCNHEgCIiIjUCTUbN169ME5xUREJR9RbIeiLio4hKKgjWdlZ2gU+lMpqnZHl5s1tMTaSanvlb5X/en4yMzNDamyMUqnUCR8uKSlpcOSrttuRnxpyI9frEBBI3KDBREXHNNjxMGTocF54eQpWVlasXbNau5ptbWFduzFh4qQ6+Xjs+Am4tHahrKyUjIx0OgQEMmnyc3Wu9/DIUbRv70dFZQWZFwyP7P7TOacpKcmUyuW0bdNWZ49JmUxGWFg3pCZSTqee1hkptbOzJzwiQvtvgKioGJrbNufipYvs37sHM1MzJEZGVFUpyLl0Sfu5Mr0GfMKRw/XmbQ1Xd3fOnz3LubMZmJmZ0+OBnjq/6UNDhuHS2oWS4mKO1uR7ajWmLl26SMLh69OchLqakp4zL2RSUVmBo4MDMXHXFwCSyWT4+KifJ4YaPA2J7NOXRYs+wtPTm/379zJxwtONNtgAxk94lgf0RuE9PD3Vc5NNTcjOVi+et3//Xq7kXaGlU0tGPnI9fXt4etK3b3+kJlLOnE412NgaODBW3VG5exfnz55FoahGJVFpG3kymQyrZtbIS0rIzc3V/7rW5o0bycrOwt7BnvCI3pSXl7FvX8NTeoYMHa5dpJSaeZ/x8X+jqFJga3O9jl6fppTn9Tl/9iynU08jNZESGdm3Tt1EJpPRK6K3zjHh1rojW8mEhnbBxlrdQ1l4rYDdu3bpLEqRkZFB334DcHFxwapZM0JCQtlmYPuG2oylxvTvH0X//lE6x9MzzvCz3vLZTZGUdILOnbsgNZEyeMhQOnfugo2NNfYtHPQ/KtzHUk+doqysFP8OAbw9YxbHjh4huGMn/DsE6H+0yWJjBzF6zBgOxR8kJSUZPz9/AgKDKC2Va/f2oiYMzKlVKz79YinHjx3DyNiILmFdsbezJynpBCuXfw/AmTNn8PTyJiomjmK5nIKr14iJjaO5nX2Twl6SThznt9828eSYscQOGkyHgEBOnkyhuroaV1c3PDw9Wf7DtzoVo6ZYvWoF7dv74e3jy3fLV5JwKIHSUjlOTk64ubmzeNFCNqz/Vf9r/+h+Dhz4i759H8THpz2BwcHaSsDKFcvx8WmPl7cPXy79hqPHjuDq6oa3tw9Viio2b9rQpArD7bJ540Z6PNCL6Ng4nhwzlk6dQigsKCIkNITmtnacTj3FqlXXt3pZsfx7OnbshLePL/MXLCThUAI2ttbqheiMjdi960+21OyJqq9vvwextJSxdu0abYU8JTmZ6Ng4omPiKCwopHdkX6oUlTrp8Vb4r+cnuVxOVnYmnVp25tHHn0Bqqg4PHzFiJBYWlpQUN77/3e3KT4bcyPVGjXqMQQ8NITs7m5demFwnbJCaPV5feHkK9nb2XL5ymZDOnfll/fW0lJ+fzweL36dly5Y8NfZpHh89muPHjlFSIsfLy4t2Hp4YGxvz9/79bN64kbCu3Rg2bARPPDGGlJRkcnJydLaGq12W3Q6189ZLL02hR4+elJWV4effATc3N/Jyc1m3VnefUJVKxYhHRuHp6U1+fj5t27alQ0AgVVWVbN3yG3K5nKQTxykqKqJN6zbMnvcOu3buwNXNjV69dRu1WzZvolfPcKJj4xg7djw9e4aTduYMJqYm+Pn5k5WZyfhxY7RlVJewrqxY9SMnT56kuV1zOncOxdTUjN+3bdOZsxraJQyJRMJh0TBtUFPT8+/btzJs+MN07BRSbzrRXzypqXbu+OOmvhfWtSvPTppMxtk00s6kYWUlIzi4Eza2thQWFGg7Fo8fO8bGTb/y5JixDIyJxdPbm/Pnz9ExuBMtnZzIy81ltYGVjPv260dAUBBZ2VnaevSRhMMUXL1GaOdQIvv0JbhjJ1xau5B04nij2xX9tX8f3l4+2DZvzsmTKWxc/4v+R3QEd+pETGwcxxOPceRIAtZW1vSK6I3URFpn72l9CoUCu+Z2DZbnhqxbu5qAgIA6dRMbG2uCgztx8mRKncX9hFvnjoycBgQGaeduZGSk10nMSSeOk3nhPNSsthUYFIx5E1Yb27d3N5evqBcroubhkZKSzPx5cxqdG1KfL7/4jPj4v1GpVJiZmuHh6Ym8tPSWjxQId7fVK5ezadNGpCZSRjwyivnvvseAAQPJrmfLj6ba/9dejCXGPNh/AC+8+DIP9h+A1ETKpk0bdfaarFZUs2XzJszNzYmOiSUqKhq75nYcTzzG3DkztSNPX3z+CccTE2nt0pqXX36VWXPm4eDYkmsF12pdtWEfLV7Epx+rV4Vs5+FBdEwscYMGExgUxJUrlzl9+rT+Vxq1d89u3npzKikpydjaNKdvv37EDRpMaJcwlEolBYXXQ9Rq+yf3o1nW3qmVk84o0t49u1m8aCE5ly7R0smJqKho/Pz8KS8rY83qlQ3uifZvmTN7Bn/8sR0jjAgNDaNvv37Y2jQnJSWZefNmaxd4o2auzrx5szlzOlX724aGhgHUmUtVW89e4XQO7cLFS9lsqFVxWLbsS9LTzxAVFc3ylWtwb+fB79u2NXnv06a6G/LT0iVfcO7cOXx8fJk+fRZvvz0ThUKhXcm9KW5HfmpIU6+nWeTvdOopgyMplpYy7aI+Di0c6qw26uHhiUwmIzk5icRjR7GybEZ4RCTRMbF4+/hSraxm86aNvDrlRah55h88GI/UREqXsK7EDRqs3Rru77/2M/X1V257uPCc2TPY8ttmTMxMiezTl+iYWNzc3MjKymTxooV19jTMzLxA/IG/CevajbhBgwnu2InysjK++2YZX335BdSUKWtWraSiopz+/aOY/+57jHlqHOfPntM5FzXXX71qBeVlZfj5+atHr6OicW7lwrVr6nJNU0ZlZWXi6eVN3KDB9OwZjpGxcZ08PezhEXh7+TQ6p09oenqWy+UsWDCfxGPHsLC01KYTd3d3rl67yhdffKazeNLttmfPbgqKCvD29iU6JpbwiEisbWzIzLzA/HmzdTofP1q8iHU/rqGysgI/P3+ioqJp6eRkMH1r9B8QjbWVNXt279TWo+MP/M0vP6+jmbU1H3/6BWPHjSf/cj5Ll6jTfUN27PidvLw8FAoF8Qf+ajRfH4o/QM6lS3Tu3IUJE55l5KOP4ezszPHERL74/BP9j+tQKVVs274VU6lJg+V5fQzVTcIjIpFIJKSk3NpOWUGXxMHZV3e2r56ekUPZueUH/cP/Gcu++V67uftPP63l3XlzeOCBHphbWJCbm1un4Xszwrp2o2XLlpSXlbF//74GE7Rwe0VGPf6fTY8enp74tm+PUqniSMLhekccblSviN7Y2thQrazm1MmTOo2PZd98T0hIKMuWLeHrr5Y2Kd1r0nJBYeE/6vXT/F3URDoYqsTeiA4BgbRr1w6gwXuo7WbvZ8jQ4bzy6utUVSuYNf3NOitkau6vSqG4Zf+Xt5ImrRkbGTfpt9L8TvWlI30tnZwoKS42WM5pfptb9f9uyN2QnzTna+gzTXE78lNDDF3P1d2dL5Z8hYODA4veX8jK5bemrG3p5ESnkM6YSKUN5imZTKb93ev7P/o3NJa34gYN5s23Z5Jz6RJxMQO05VZD96W5fyMjSaP3VPs3aOicDZVRMpmMr79bjq9Pe1as+I4F71zfsudu8F9+zmvUfl7d6PPnVtOU7zTh2Vk7Lzbl79aElNdHk1eqKipve934ZuoHGrXz1I1+l//Y/3Vk1OPs3fmT/uF7zj3XOH172hv6HxHuIXfDQ+vfUrsy/fGHH+i/LTRi9tz5DBo8hPS0M0x5+YUGK4zCvU/kJ/VqpDNmzObqtWtMena8wUrp/Uy/cfpfNP+dhQyMieXQwXien/zsbW003A7iOS8I9btfGqd3JKxXEAThTntn3hw2bvgVFSoeHz2GNm3EFlHC/c3RwZFqlZLjx46KhuldasLESbTz9OTAgb+YP2/2XdcwFQRBuOsbpxcyL3A69RSnU0/prIYnCPe6C5kXOH0mlby86/OshaaTy+VMe+M1hgyKZcZb08jMvPk5jcLdT+Sn66ve1rdSqaBWUFhI2pkznP2PNt6XfP4pI4Y9xIRxT4loEEEQ7kp3fVivcH8R4T6CIAiCcO8Sz3lBqJ8I6xUEQRAEQRAEQRCEf4lonAqCIAiCIAiCIAh3nGicCoIgCIIgCIIgCHecaJwKgiAIgiAIgiAId5xonAqCIAiCIAiCIAh3XBMapyqQSPQPCoIgCIIgCIIgCLebRKJuk90HGm2cKlVgYSHTPywIgiAIgiAIgiDcZhYWMpT3R9u08cZpVUUZNrYO+ocFQRAEQRAEQRCE28zG1oGqijL9w/ekRhunV6/m4NjKVf+wIAiCIAiCIAiCcJs5tnLl6tUc/cP3pEYbp2mnjmLVzB5b+5b6bwmCIAiCIAiCIAi3ia19S6ya2ZN26qj+W/ekRhunAOfPJuHlGyIWRhIEQRAEQRAEQfg3SCR4+YZw/myS/jv3rCY1TvNyMikqyCewU7hooAqCIAiCIAiCINxOEgmBncIpKsgnLydT/917VpMapwAZaSeoKC8jtHuUCPEVBEEQBEEQBEG4DWztWxLaPYqK8jIy0k7ov31Pa3LjlJoG6sWsdPwCehAYEoGTszsWllZiNFUQBEEQBEEQBOFmSCRYWFrh5OxOYEgEfgE9uJiVft81TAEkDs6+N7VrjqdvR+zsnDAxs8BIAiAaqIIgCIIgCIIgCDdGhVKl3sLz6tWc+2bxo/rcdONUEARBEARBEARBEG6VGwrrFQRBEARBEARBEITbQTROBUEQBEEQBEEQhDtONE4FQRAEQRAEQRCEO040TgVBEARBEARBEIQ7TjROBUEQBEEQBEEQhDtONE4FQRAEQRAEQRCEO040TgVBEARBEARBEIQ7TjROBUEQBEEQBEEQhDtONE4FQRAEQRAEQRCEO040TgVBEARBEARBEIQ77v+FGj+W5ZOHcAAAAABJRU5ErkJggg==;" parent="1" vertex="1">
          <mxGeometry x="200" y="900" width="660.4" height="190" as="geometry" />
        </mxCell>
        <mxCell id="_ihUUyF4QGS6WQR9YeVK-74" style="edgeStyle=orthogonalEdgeStyle;rounded=0;orthogonalLoop=1;jettySize=auto;html=1;" parent="1" source="_ihUUyF4QGS6WQR9YeVK-73" edge="1">
          <mxGeometry relative="1" as="geometry">
            <mxPoint x="960" y="1430" as="targetPoint" />
          </mxGeometry>
        </mxCell>
        <mxCell id="_ihUUyF4QGS6WQR9YeVK-73" value="&lt;font style=&quot;font-size: 18px; color: light-dark(rgb(0, 0, 0), rgb(0, 0, 0));&quot;&gt;COMPRENDIENDO ERROR&amp;nbsp;&lt;span style=&quot;font-family: &amp;quot;Segoe WPC&amp;quot;, &amp;quot;Segoe UI&amp;quot;, sans-serif; text-align: start;&quot;&gt;&quot;ValueError: buffer is not large enough&quot;&lt;/span&gt;&lt;/font&gt;" style="rounded=0;whiteSpace=wrap;html=1;fillColor=#60a917;fontColor=#ffffff;strokeColor=light-dark(#2D7600,#FFFFFF);" parent="1" vertex="1">
          <mxGeometry x="770" y="1260" width="380" height="60" as="geometry" />
        </mxCell>
        <mxCell id="_ihUUyF4QGS6WQR9YeVK-78" style="edgeStyle=orthogonalEdgeStyle;rounded=0;orthogonalLoop=1;jettySize=auto;html=1;" parent="1" source="_ihUUyF4QGS6WQR9YeVK-75" target="_ihUUyF4QGS6WQR9YeVK-76" edge="1">
          <mxGeometry relative="1" as="geometry" />
        </mxCell>
        <mxCell id="_ihUUyF4QGS6WQR9YeVK-75" value="Surge" style="text;html=1;align=center;verticalAlign=middle;whiteSpace=wrap;rounded=0;" parent="1" vertex="1">
          <mxGeometry x="930" y="1430" width="60" height="30" as="geometry" />
        </mxCell>
        <mxCell id="_ihUUyF4QGS6WQR9YeVK-76" value="No se estan pasando bien las propiedades de la imagen, para poder representar la data" style="rounded=0;whiteSpace=wrap;html=1;fontFamily=Comic Sans MS;" parent="1" vertex="1">
          <mxGeometry x="837.5" y="1500" width="260" height="100" as="geometry" />
        </mxCell>
      </root>
    </mxGraphModel>
  </diagram>
</mxfile>
